M48
;Layer_Color=9474304
;FILE_FORMAT=2:5
INCH,LZ
;TYPE=PLATED
T02F00S00C0.02165
T03F00S00C0.02362
;TYPE=NON_PLATED
%
G90
G05
T02
G00X0027659Y0072433
M15
G01Y0069874
M16
G00X0027659Y0104126
M15
G01Y0101567
M16
G00X0027659Y0126933
M15
G01Y0124374
M16
G00X0027659Y0158626
M15
G01Y0156067
M16
T03
G00X0009254Y0069972
M15
G01X0014372
M16
G00X0031695Y0069972
M15
G01X0027758
M16
G00X0031695Y0104027
M15
G01X0027758
M16
G00X0009254Y0104028
M15
G01X0014372
M16
G00X0009254Y0124472
M15
G01X0014372
M16
G00X0031695Y0124472
M15
G01X0027758
M16
G00X0031695Y0158528
M15
G01X0027758
M16
G00X0009254Y0158528
M15
G01X0014372
M16
M17
M30
