M48
;Layer_Color=9474304
;FILE_FORMAT=2:5
INCH,LZ
;TYPE=PLATED
T01F00S00C0.01181
T04F00S00C0.03937
T05F00S00C0.04000
T06F00S00C0.07874
;TYPE=NON_PLATED
T07F00S00C0.03346
T08F00S00C0.06693
T09F00S00C0.07087
%
T01
X00296Y0019
Y00411
X0077Y00178
X01157Y00381
X01477
X01635Y00344
X02079Y00254
X02184
X0275Y0028
X02795
X0284
X02885
Y0036
X0282
X0279281Y00425
X0284743
X03085Y00423
X03065Y00275
Y00235
Y002
Y00165
Y0013
X0326069Y00291
Y00339
X0360569Y01435
X036Y0151
X03723Y01833
X0355927Y0151073
X0351927
X0347927
X0336Y0151
X0332
X03305Y01427
Y0138
X03345
X0338518
X03425
X0346573Y0137927
X03505Y0138
X0357Y0142
X03553Y01119
X03488Y011
X0345
X0341
X0336927
X0333345
X03295
X0319312Y0113361
X0319062Y0117121
X0319Y0121
X0319004Y0124496
X0319Y0128
Y0134
X0315Y01345
X03115
X0303688Y0134372
X0301Y0136038
X0298481Y0134077
X0296Y0136038
X0293519Y0134077
X0291Y0136038
X02885Y0134101
Y0141
X0277296Y0141196
X02625Y0140269
X0253646
X0236Y0139
X0233181Y01362
X02307Y01337
X02281Y01311
X02255Y01286
X02156Y01199
X02485Y01195
X02535Y0119
X02485Y012535
X0271Y01245
X02715Y0120936
X0274Y0119
X027Y0128145
X0263Y01115
X02552Y01025
X02398Y00982
X027975Y009815
X0278677Y0101677
X02845Y01045
X02865Y01085
Y0111838
Y0115
X0307805Y01162
Y0108768
X0313539Y0096
X0312469Y0091
X0309Y009
X0305638
X0306571Y0062469
X03085Y00485
X0326Y0049
X03452Y006445
Y007185
Y0079
X0341Y0089
X0351Y00925
Y00975
X0348Y0104732
X035838
X0307805Y01284
X03055Y0151298
X0309481Y0153511
X0313007Y0151504
X0317221Y0151868
X0320639Y0147861
X0323Y0144
X0320639Y01597
X02531Y01652
X02358Y0168288
X02307
X021Y0171
X0206
X02065Y0155981
X02154Y00654
X02299Y00619
X0262Y00618
X02757
X02798Y00653
X01919Y00619
X01634Y00544
X01635Y00735
X01623Y01227
X016Y01322
X0155664
X01513
X0142
X01424Y0123081
X0147072Y0122905
X0150573Y0122885
X01385Y01105
X01274Y01205
Y01258
X01254Y01345
X01296
X0134
X01312Y0144719
Y01542
X01089Y01548
X00975Y01427
Y01363
Y01259
X00821Y01242
Y01313
X0079557Y015015
X0086Y0150031
X006Y0155
X00562Y01699
Y01803
X0066321Y0180179
X00747Y01919
X0084727Y0188947
X0114Y01792
X01207Y01345
X0147Y01445
X01556
Y0156
X0171Y01585
X01735Y0161519
X0183Y0171
X0187
X01915
X0195004Y0170996
X0198509Y0170991
X0202013Y0170987
X0187Y0181
Y01399
X01829
X019635Y012785
X00654Y01213
X00626Y01165
X0065Y0093
X00708Y00874
X0078525Y0105826
X00976Y00816
X0047Y01362
X0042Y0136
X00426Y01399
X00404Y01427
X0037419Y01362
X0022731Y0142904
X00119
X00117Y00884
X00188Y00921
X00228Y00884
X0019Y00824
X00363Y00816
X003995
X00436
X00396Y0085081
Y00886
T04
X02155Y01067
X02255
X02165Y01385
X02065
X01965
Y01067
X01865
X00465Y01894
X00365
X00265
X00165
X00065
T05
X0173Y00065
X0183
X0193
X0203
X0213
X0223
X0233
X0243
X0253
X0263
X0273
X0283
X0293
X0303
X0313
X0323
X0333
X0343
X0353
X0363
X0372Y0029
Y0039
Y0049
Y0059
Y0069
Y0079
Y0089
Y0099
Y0109
Y0119
Y0129
Y0139
Y0149
Y0159
Y0169
X0363Y0191
X0353
X0343
X0333
X0323
X0313
X0303
X0293
X0283
X0273
X0263
X0253
X0243
X0233
X0223
X0213
X0203
X0193
X0183
X0173
T06
X0339669Y0040445
X0341638Y0158555
X0169Y01
T07
X0122189Y0180748
X0153685
T08
X0020791Y003
T09
X0038791Y003
M30
