G04*
G04 #@! TF.GenerationSoftware,Altium Limited,Altium Designer,23.10.1 (27)*
G04*
G04 Layer_Color=16711935*
%FSLAX25Y25*%
%MOIN*%
G70*
G04*
G04 #@! TF.SameCoordinates,32BCE259-89C5-4998-93CB-A9973C1CCBB0*
G04*
G04*
G04 #@! TF.FilePolarity,Negative*
G04*
G01*
G75*
%ADD70C,0.08674*%
G04:AMPARAMS|DCode=71|XSize=86.74mil|YSize=86.74mil|CornerRadius=23.68mil|HoleSize=0mil|Usage=FLASHONLY|Rotation=0.000|XOffset=0mil|YOffset=0mil|HoleType=Round|Shape=RoundedRectangle|*
%AMROUNDEDRECTD71*
21,1,0.08674,0.03937,0,0,0.0*
21,1,0.03937,0.08674,0,0,0.0*
1,1,0.04737,0.01968,-0.01968*
1,1,0.04737,-0.01968,-0.01968*
1,1,0.04737,-0.01968,0.01968*
1,1,0.04737,0.01968,0.01968*
%
%ADD71ROUNDEDRECTD71*%
%ADD72O,0.08674X0.04737*%
%ADD73O,0.04540X0.07099*%
%ADD74O,0.09855X0.04737*%
%ADD75C,0.08800*%
G04:AMPARAMS|DCode=76|XSize=88mil|YSize=88mil|CornerRadius=24mil|HoleSize=0mil|Usage=FLASHONLY|Rotation=0.000|XOffset=0mil|YOffset=0mil|HoleType=Round|Shape=RoundedRectangle|*
%AMROUNDEDRECTD76*
21,1,0.08800,0.04000,0,0,0.0*
21,1,0.04000,0.08800,0,0,0.0*
1,1,0.04800,0.02000,-0.02000*
1,1,0.04800,-0.02000,-0.02000*
1,1,0.04800,-0.02000,0.02000*
1,1,0.04800,0.02000,0.02000*
%
%ADD76ROUNDEDRECTD76*%
%ADD77C,0.00800*%
G04:AMPARAMS|DCode=78|XSize=88mil|YSize=88mil|CornerRadius=24mil|HoleSize=0mil|Usage=FLASHONLY|Rotation=90.000|XOffset=0mil|YOffset=0mil|HoleType=Round|Shape=RoundedRectangle|*
%AMROUNDEDRECTD78*
21,1,0.08800,0.04000,0,0,90.0*
21,1,0.04000,0.08800,0,0,90.0*
1,1,0.04800,0.02000,0.02000*
1,1,0.04800,0.02000,-0.02000*
1,1,0.04800,-0.02000,-0.02000*
1,1,0.04800,-0.02000,0.02000*
%
%ADD78ROUNDEDRECTD78*%
%ADD79C,0.07887*%
%ADD80C,0.07493*%
D70*
X186500Y106700D02*
D03*
X196500Y138500D02*
D03*
X206500D02*
D03*
X215500Y106700D02*
D03*
X6500Y189400D02*
D03*
X16500D02*
D03*
X26500D02*
D03*
X36500D02*
D03*
D71*
X196500Y106700D02*
D03*
X216500Y138500D02*
D03*
X225500Y106700D02*
D03*
X46500Y189400D02*
D03*
D72*
X29726Y158528D02*
D03*
Y124472D02*
D03*
Y69972D02*
D03*
Y104027D02*
D03*
D73*
X27659Y157346D02*
D03*
X27659Y125654D02*
D03*
Y71153D02*
D03*
X27659Y102847D02*
D03*
D74*
X11813Y124472D02*
D03*
Y158528D02*
D03*
Y104028D02*
D03*
Y69972D02*
D03*
D75*
X372000Y29000D02*
D03*
Y39000D02*
D03*
Y49000D02*
D03*
Y59000D02*
D03*
Y69000D02*
D03*
Y159000D02*
D03*
Y149000D02*
D03*
Y139000D02*
D03*
Y129000D02*
D03*
Y119000D02*
D03*
Y109000D02*
D03*
Y89000D02*
D03*
Y99000D02*
D03*
Y79000D02*
D03*
X263000Y6500D02*
D03*
X243000D02*
D03*
X253000D02*
D03*
X233000D02*
D03*
X223000D02*
D03*
X213000D02*
D03*
X203000D02*
D03*
X193000D02*
D03*
X183000D02*
D03*
X273000D02*
D03*
X283000D02*
D03*
X293000D02*
D03*
X303000D02*
D03*
X313000D02*
D03*
X323000D02*
D03*
X333000D02*
D03*
X343000D02*
D03*
X353000D02*
D03*
X363000D02*
D03*
X263000Y191000D02*
D03*
X243000D02*
D03*
X253000D02*
D03*
X233000D02*
D03*
X223000D02*
D03*
X213000D02*
D03*
X203000D02*
D03*
X193000D02*
D03*
X183000D02*
D03*
X273000D02*
D03*
X283000D02*
D03*
X293000D02*
D03*
X303000D02*
D03*
X313000D02*
D03*
X323000D02*
D03*
X333000D02*
D03*
X343000D02*
D03*
X353000D02*
D03*
X363000D02*
D03*
D76*
X372000Y169000D02*
D03*
D77*
X169000Y100000D02*
D03*
X341638Y158555D02*
D03*
X339669Y40445D02*
D03*
D78*
X173000Y6500D02*
D03*
Y191000D02*
D03*
D79*
X38791Y30000D02*
D03*
D80*
X20791D02*
D03*
M02*
