G04*
G04 #@! TF.GenerationSoftware,Altium Limited,Altium Designer,23.10.1 (27)*
G04*
G04 Layer_Physical_Order=1*
G04 Layer_Color=255*
%FSLAX25Y25*%
%MOIN*%
G70*
G04*
G04 #@! TF.SameCoordinates,32BCE259-89C5-4998-93CB-A9973C1CCBB0*
G04*
G04*
G04 #@! TF.FilePolarity,Positive*
G04*
G01*
G75*
%ADD13C,0.01000*%
G04:AMPARAMS|DCode=16|XSize=216.54mil|YSize=78.74mil|CornerRadius=19.68mil|HoleSize=0mil|Usage=FLASHONLY|Rotation=90.000|XOffset=0mil|YOffset=0mil|HoleType=Round|Shape=RoundedRectangle|*
%AMROUNDEDRECTD16*
21,1,0.21654,0.03937,0,0,90.0*
21,1,0.17717,0.07874,0,0,90.0*
1,1,0.03937,0.01968,0.08858*
1,1,0.03937,0.01968,-0.08858*
1,1,0.03937,-0.01968,-0.08858*
1,1,0.03937,-0.01968,0.08858*
%
%ADD16ROUNDEDRECTD16*%
G04:AMPARAMS|DCode=17|XSize=47.24mil|YSize=86.61mil|CornerRadius=11.81mil|HoleSize=0mil|Usage=FLASHONLY|Rotation=180.000|XOffset=0mil|YOffset=0mil|HoleType=Round|Shape=RoundedRectangle|*
%AMROUNDEDRECTD17*
21,1,0.04724,0.06299,0,0,180.0*
21,1,0.02362,0.08661,0,0,180.0*
1,1,0.02362,-0.01181,0.03150*
1,1,0.02362,0.01181,0.03150*
1,1,0.02362,0.01181,-0.03150*
1,1,0.02362,-0.01181,-0.03150*
%
%ADD17ROUNDEDRECTD17*%
G04:AMPARAMS|DCode=18|XSize=30mil|YSize=65mil|CornerRadius=7.5mil|HoleSize=0mil|Usage=FLASHONLY|Rotation=180.000|XOffset=0mil|YOffset=0mil|HoleType=Round|Shape=RoundedRectangle|*
%AMROUNDEDRECTD18*
21,1,0.03000,0.05000,0,0,180.0*
21,1,0.01500,0.06500,0,0,180.0*
1,1,0.01500,-0.00750,0.02500*
1,1,0.01500,0.00750,0.02500*
1,1,0.01500,0.00750,-0.02500*
1,1,0.01500,-0.00750,-0.02500*
%
%ADD18ROUNDEDRECTD18*%
G04:AMPARAMS|DCode=19|XSize=62.99mil|YSize=59.06mil|CornerRadius=14.76mil|HoleSize=0mil|Usage=FLASHONLY|Rotation=180.000|XOffset=0mil|YOffset=0mil|HoleType=Round|Shape=RoundedRectangle|*
%AMROUNDEDRECTD19*
21,1,0.06299,0.02953,0,0,180.0*
21,1,0.03347,0.05906,0,0,180.0*
1,1,0.02953,-0.01673,0.01476*
1,1,0.02953,0.01673,0.01476*
1,1,0.02953,0.01673,-0.01476*
1,1,0.02953,-0.01673,-0.01476*
%
%ADD19ROUNDEDRECTD19*%
G04:AMPARAMS|DCode=20|XSize=47.24mil|YSize=59.06mil|CornerRadius=11.81mil|HoleSize=0mil|Usage=FLASHONLY|Rotation=180.000|XOffset=0mil|YOffset=0mil|HoleType=Round|Shape=RoundedRectangle|*
%AMROUNDEDRECTD20*
21,1,0.04724,0.03543,0,0,180.0*
21,1,0.02362,0.05906,0,0,180.0*
1,1,0.02362,-0.01181,0.01772*
1,1,0.02362,0.01181,0.01772*
1,1,0.02362,0.01181,-0.01772*
1,1,0.02362,-0.01181,-0.01772*
%
%ADD20ROUNDEDRECTD20*%
G04:AMPARAMS|DCode=21|XSize=40mil|YSize=35mil|CornerRadius=8.75mil|HoleSize=0mil|Usage=FLASHONLY|Rotation=270.000|XOffset=0mil|YOffset=0mil|HoleType=Round|Shape=RoundedRectangle|*
%AMROUNDEDRECTD21*
21,1,0.04000,0.01750,0,0,270.0*
21,1,0.02250,0.03500,0,0,270.0*
1,1,0.01750,-0.00875,-0.01125*
1,1,0.01750,-0.00875,0.01125*
1,1,0.01750,0.00875,0.01125*
1,1,0.01750,0.00875,-0.01125*
%
%ADD21ROUNDEDRECTD21*%
G04:AMPARAMS|DCode=22|XSize=15.75mil|YSize=25mil|CornerRadius=3.94mil|HoleSize=0mil|Usage=FLASHONLY|Rotation=180.000|XOffset=0mil|YOffset=0mil|HoleType=Round|Shape=RoundedRectangle|*
%AMROUNDEDRECTD22*
21,1,0.01575,0.01713,0,0,180.0*
21,1,0.00787,0.02500,0,0,180.0*
1,1,0.00787,-0.00394,0.00856*
1,1,0.00787,0.00394,0.00856*
1,1,0.00787,0.00394,-0.00856*
1,1,0.00787,-0.00394,-0.00856*
%
%ADD22ROUNDEDRECTD22*%
G04:AMPARAMS|DCode=23|XSize=11.81mil|YSize=25mil|CornerRadius=2.95mil|HoleSize=0mil|Usage=FLASHONLY|Rotation=180.000|XOffset=0mil|YOffset=0mil|HoleType=Round|Shape=RoundedRectangle|*
%AMROUNDEDRECTD23*
21,1,0.01181,0.01909,0,0,180.0*
21,1,0.00591,0.02500,0,0,180.0*
1,1,0.00591,-0.00295,0.00955*
1,1,0.00591,0.00295,0.00955*
1,1,0.00591,0.00295,-0.00955*
1,1,0.00591,-0.00295,-0.00955*
%
%ADD23ROUNDEDRECTD23*%
G04:AMPARAMS|DCode=24|XSize=50mil|YSize=75mil|CornerRadius=12.5mil|HoleSize=0mil|Usage=FLASHONLY|Rotation=180.000|XOffset=0mil|YOffset=0mil|HoleType=Round|Shape=RoundedRectangle|*
%AMROUNDEDRECTD24*
21,1,0.05000,0.05000,0,0,180.0*
21,1,0.02500,0.07500,0,0,180.0*
1,1,0.02500,-0.01250,0.02500*
1,1,0.02500,0.01250,0.02500*
1,1,0.02500,0.01250,-0.02500*
1,1,0.02500,-0.01250,-0.02500*
%
%ADD24ROUNDEDRECTD24*%
G04:AMPARAMS|DCode=25|XSize=40mil|YSize=35mil|CornerRadius=8.75mil|HoleSize=0mil|Usage=FLASHONLY|Rotation=0.000|XOffset=0mil|YOffset=0mil|HoleType=Round|Shape=RoundedRectangle|*
%AMROUNDEDRECTD25*
21,1,0.04000,0.01750,0,0,0.0*
21,1,0.02250,0.03500,0,0,0.0*
1,1,0.01750,0.01125,-0.00875*
1,1,0.01750,-0.01125,-0.00875*
1,1,0.01750,-0.01125,0.00875*
1,1,0.01750,0.01125,0.00875*
%
%ADD25ROUNDEDRECTD25*%
G04:AMPARAMS|DCode=26|XSize=11.81mil|YSize=37.4mil|CornerRadius=2.95mil|HoleSize=0mil|Usage=FLASHONLY|Rotation=270.000|XOffset=0mil|YOffset=0mil|HoleType=Round|Shape=RoundedRectangle|*
%AMROUNDEDRECTD26*
21,1,0.01181,0.03150,0,0,270.0*
21,1,0.00591,0.03740,0,0,270.0*
1,1,0.00591,-0.01575,-0.00295*
1,1,0.00591,-0.01575,0.00295*
1,1,0.00591,0.01575,0.00295*
1,1,0.00591,0.01575,-0.00295*
%
%ADD26ROUNDEDRECTD26*%
G04:AMPARAMS|DCode=27|XSize=11.81mil|YSize=33.47mil|CornerRadius=2.95mil|HoleSize=0mil|Usage=FLASHONLY|Rotation=270.000|XOffset=0mil|YOffset=0mil|HoleType=Round|Shape=RoundedRectangle|*
%AMROUNDEDRECTD27*
21,1,0.01181,0.02756,0,0,270.0*
21,1,0.00591,0.03347,0,0,270.0*
1,1,0.00591,-0.01378,-0.00295*
1,1,0.00591,-0.01378,0.00295*
1,1,0.00591,0.01378,0.00295*
1,1,0.00591,0.01378,-0.00295*
%
%ADD27ROUNDEDRECTD27*%
G04:AMPARAMS|DCode=28|XSize=60mil|YSize=11mil|CornerRadius=2.75mil|HoleSize=0mil|Usage=FLASHONLY|Rotation=0.000|XOffset=0mil|YOffset=0mil|HoleType=Round|Shape=RoundedRectangle|*
%AMROUNDEDRECTD28*
21,1,0.06000,0.00550,0,0,0.0*
21,1,0.05450,0.01100,0,0,0.0*
1,1,0.00550,0.02725,-0.00275*
1,1,0.00550,-0.02725,-0.00275*
1,1,0.00550,-0.02725,0.00275*
1,1,0.00550,0.02725,0.00275*
%
%ADD28ROUNDEDRECTD28*%
G04:AMPARAMS|DCode=29|XSize=11mil|YSize=60mil|CornerRadius=2.75mil|HoleSize=0mil|Usage=FLASHONLY|Rotation=0.000|XOffset=0mil|YOffset=0mil|HoleType=Round|Shape=RoundedRectangle|*
%AMROUNDEDRECTD29*
21,1,0.01100,0.05450,0,0,0.0*
21,1,0.00550,0.06000,0,0,0.0*
1,1,0.00550,0.00275,-0.02725*
1,1,0.00550,-0.00275,-0.02725*
1,1,0.00550,-0.00275,0.02725*
1,1,0.00550,0.00275,0.02725*
%
%ADD29ROUNDEDRECTD29*%
G04:AMPARAMS|DCode=30|XSize=40mil|YSize=70mil|CornerRadius=10mil|HoleSize=0mil|Usage=FLASHONLY|Rotation=180.000|XOffset=0mil|YOffset=0mil|HoleType=Round|Shape=RoundedRectangle|*
%AMROUNDEDRECTD30*
21,1,0.04000,0.05000,0,0,180.0*
21,1,0.02000,0.07000,0,0,180.0*
1,1,0.02000,-0.01000,0.02500*
1,1,0.02000,0.01000,0.02500*
1,1,0.02000,0.01000,-0.02500*
1,1,0.02000,-0.01000,-0.02500*
%
%ADD30ROUNDEDRECTD30*%
G04:AMPARAMS|DCode=31|XSize=40mil|YSize=65mil|CornerRadius=10mil|HoleSize=0mil|Usage=FLASHONLY|Rotation=90.000|XOffset=0mil|YOffset=0mil|HoleType=Round|Shape=RoundedRectangle|*
%AMROUNDEDRECTD31*
21,1,0.04000,0.04500,0,0,90.0*
21,1,0.02000,0.06500,0,0,90.0*
1,1,0.02000,0.02250,0.01000*
1,1,0.02000,0.02250,-0.01000*
1,1,0.02000,-0.02250,-0.01000*
1,1,0.02000,-0.02250,0.01000*
%
%ADD31ROUNDEDRECTD31*%
G04:AMPARAMS|DCode=32|XSize=40mil|YSize=28mil|CornerRadius=7mil|HoleSize=0mil|Usage=FLASHONLY|Rotation=270.000|XOffset=0mil|YOffset=0mil|HoleType=Round|Shape=RoundedRectangle|*
%AMROUNDEDRECTD32*
21,1,0.04000,0.01400,0,0,270.0*
21,1,0.02600,0.02800,0,0,270.0*
1,1,0.01400,-0.00700,-0.01300*
1,1,0.01400,-0.00700,0.01300*
1,1,0.01400,0.00700,0.01300*
1,1,0.01400,0.00700,-0.01300*
%
%ADD32ROUNDEDRECTD32*%
G04:AMPARAMS|DCode=33|XSize=150mil|YSize=90mil|CornerRadius=22.5mil|HoleSize=0mil|Usage=FLASHONLY|Rotation=270.000|XOffset=0mil|YOffset=0mil|HoleType=Round|Shape=RoundedRectangle|*
%AMROUNDEDRECTD33*
21,1,0.15000,0.04500,0,0,270.0*
21,1,0.10500,0.09000,0,0,270.0*
1,1,0.04500,-0.02250,-0.05250*
1,1,0.04500,-0.02250,0.05250*
1,1,0.04500,0.02250,0.05250*
1,1,0.04500,0.02250,-0.05250*
%
%ADD33ROUNDEDRECTD33*%
G04:AMPARAMS|DCode=34|XSize=50mil|YSize=85mil|CornerRadius=12.5mil|HoleSize=0mil|Usage=FLASHONLY|Rotation=270.000|XOffset=0mil|YOffset=0mil|HoleType=Round|Shape=RoundedRectangle|*
%AMROUNDEDRECTD34*
21,1,0.05000,0.06000,0,0,270.0*
21,1,0.02500,0.08500,0,0,270.0*
1,1,0.02500,-0.03000,-0.01250*
1,1,0.02500,-0.03000,0.01250*
1,1,0.02500,0.03000,0.01250*
1,1,0.02500,0.03000,-0.01250*
%
%ADD34ROUNDEDRECTD34*%
G04:AMPARAMS|DCode=35|XSize=100mil|YSize=65mil|CornerRadius=16.25mil|HoleSize=0mil|Usage=FLASHONLY|Rotation=90.000|XOffset=0mil|YOffset=0mil|HoleType=Round|Shape=RoundedRectangle|*
%AMROUNDEDRECTD35*
21,1,0.10000,0.03250,0,0,90.0*
21,1,0.06750,0.06500,0,0,90.0*
1,1,0.03250,0.01625,0.03375*
1,1,0.03250,0.01625,-0.03375*
1,1,0.03250,-0.01625,-0.03375*
1,1,0.03250,-0.01625,0.03375*
%
%ADD35ROUNDEDRECTD35*%
G04:AMPARAMS|DCode=36|XSize=125.98mil|YSize=125.98mil|CornerRadius=31.5mil|HoleSize=0mil|Usage=FLASHONLY|Rotation=180.000|XOffset=0mil|YOffset=0mil|HoleType=Round|Shape=RoundedRectangle|*
%AMROUNDEDRECTD36*
21,1,0.12598,0.06299,0,0,180.0*
21,1,0.06299,0.12598,0,0,180.0*
1,1,0.06299,-0.03150,0.03150*
1,1,0.06299,0.03150,0.03150*
1,1,0.06299,0.03150,-0.03150*
1,1,0.06299,-0.03150,-0.03150*
%
%ADD36ROUNDEDRECTD36*%
%ADD37C,0.19685*%
G04:AMPARAMS|DCode=38|XSize=51.58mil|YSize=24.41mil|CornerRadius=6.1mil|HoleSize=0mil|Usage=FLASHONLY|Rotation=180.000|XOffset=0mil|YOffset=0mil|HoleType=Round|Shape=RoundedRectangle|*
%AMROUNDEDRECTD38*
21,1,0.05158,0.01221,0,0,180.0*
21,1,0.03937,0.02441,0,0,180.0*
1,1,0.01221,-0.01968,0.00610*
1,1,0.01221,0.01968,0.00610*
1,1,0.01221,0.01968,-0.00610*
1,1,0.01221,-0.01968,-0.00610*
%
%ADD38ROUNDEDRECTD38*%
G04:AMPARAMS|DCode=39|XSize=50mil|YSize=50mil|CornerRadius=12.5mil|HoleSize=0mil|Usage=FLASHONLY|Rotation=180.000|XOffset=0mil|YOffset=0mil|HoleType=Round|Shape=RoundedRectangle|*
%AMROUNDEDRECTD39*
21,1,0.05000,0.02500,0,0,180.0*
21,1,0.02500,0.05000,0,0,180.0*
1,1,0.02500,-0.01250,0.01250*
1,1,0.02500,0.01250,0.01250*
1,1,0.02500,0.01250,-0.01250*
1,1,0.02500,-0.01250,-0.01250*
%
%ADD39ROUNDEDRECTD39*%
G04:AMPARAMS|DCode=40|XSize=110mil|YSize=100mil|CornerRadius=25mil|HoleSize=0mil|Usage=FLASHONLY|Rotation=0.000|XOffset=0mil|YOffset=0mil|HoleType=Round|Shape=RoundedRectangle|*
%AMROUNDEDRECTD40*
21,1,0.11000,0.05000,0,0,0.0*
21,1,0.06000,0.10000,0,0,0.0*
1,1,0.05000,0.03000,-0.02500*
1,1,0.05000,-0.03000,-0.02500*
1,1,0.05000,-0.03000,0.02500*
1,1,0.05000,0.03000,0.02500*
%
%ADD40ROUNDEDRECTD40*%
G04:AMPARAMS|DCode=41|XSize=94.49mil|YSize=86.61mil|CornerRadius=21.65mil|HoleSize=0mil|Usage=FLASHONLY|Rotation=270.000|XOffset=0mil|YOffset=0mil|HoleType=Round|Shape=RoundedRectangle|*
%AMROUNDEDRECTD41*
21,1,0.09449,0.04331,0,0,270.0*
21,1,0.05118,0.08661,0,0,270.0*
1,1,0.04331,-0.02165,-0.02559*
1,1,0.04331,-0.02165,0.02559*
1,1,0.04331,0.02165,0.02559*
1,1,0.04331,0.02165,-0.02559*
%
%ADD41ROUNDEDRECTD41*%
G04:AMPARAMS|DCode=42|XSize=59.06mil|YSize=157.48mil|CornerRadius=14.76mil|HoleSize=0mil|Usage=FLASHONLY|Rotation=180.000|XOffset=0mil|YOffset=0mil|HoleType=Round|Shape=RoundedRectangle|*
%AMROUNDEDRECTD42*
21,1,0.05906,0.12795,0,0,180.0*
21,1,0.02953,0.15748,0,0,180.0*
1,1,0.02953,-0.01476,0.06398*
1,1,0.02953,0.01476,0.06398*
1,1,0.02953,0.01476,-0.06398*
1,1,0.02953,-0.01476,-0.06398*
%
%ADD42ROUNDEDRECTD42*%
%ADD81C,0.01500*%
%ADD82C,0.01200*%
%ADD83C,0.03000*%
%ADD84C,0.02000*%
%ADD85C,0.03500*%
%ADD86C,0.02500*%
%ADD87C,0.04000*%
%ADD88C,0.01100*%
%ADD89C,0.01181*%
%ADD90C,0.03900*%
%ADD91C,0.03347*%
%ADD92C,0.07874*%
G04:AMPARAMS|DCode=93|XSize=78.74mil|YSize=78.74mil|CornerRadius=19.68mil|HoleSize=0mil|Usage=FLASHONLY|Rotation=0.000|XOffset=0mil|YOffset=0mil|HoleType=Round|Shape=RoundedRectangle|*
%AMROUNDEDRECTD93*
21,1,0.07874,0.03937,0,0,0.0*
21,1,0.03937,0.07874,0,0,0.0*
1,1,0.03937,0.01968,-0.01968*
1,1,0.03937,-0.01968,-0.01968*
1,1,0.03937,-0.01968,0.01968*
1,1,0.03937,0.01968,0.01968*
%
%ADD93ROUNDEDRECTD93*%
%ADD94O,0.07874X0.03937*%
%ADD95O,0.03740X0.06299*%
%ADD96O,0.09055X0.03937*%
%ADD97C,0.08000*%
G04:AMPARAMS|DCode=98|XSize=80mil|YSize=80mil|CornerRadius=20mil|HoleSize=0mil|Usage=FLASHONLY|Rotation=0.000|XOffset=0mil|YOffset=0mil|HoleType=Round|Shape=RoundedRectangle|*
%AMROUNDEDRECTD98*
21,1,0.08000,0.04000,0,0,0.0*
21,1,0.04000,0.08000,0,0,0.0*
1,1,0.04000,0.02000,-0.02000*
1,1,0.04000,-0.02000,-0.02000*
1,1,0.04000,-0.02000,0.02000*
1,1,0.04000,0.02000,0.02000*
%
%ADD98ROUNDEDRECTD98*%
G04:AMPARAMS|DCode=99|XSize=80mil|YSize=80mil|CornerRadius=20mil|HoleSize=0mil|Usage=FLASHONLY|Rotation=90.000|XOffset=0mil|YOffset=0mil|HoleType=Round|Shape=RoundedRectangle|*
%AMROUNDEDRECTD99*
21,1,0.08000,0.04000,0,0,90.0*
21,1,0.04000,0.08000,0,0,90.0*
1,1,0.04000,0.02000,0.02000*
1,1,0.04000,0.02000,-0.02000*
1,1,0.04000,-0.02000,-0.02000*
1,1,0.04000,-0.02000,0.02000*
%
%ADD99ROUNDEDRECTD99*%
%ADD100C,0.07087*%
%ADD101C,0.06693*%
%ADD102C,0.02362*%
G36*
X374049Y195942D02*
X375071Y195519D01*
X375948Y194846D01*
X376622Y193968D01*
X377045Y192947D01*
X377189Y191853D01*
X377188Y191850D01*
Y160888D01*
X376688Y160822D01*
X376659Y160930D01*
X376001Y162070D01*
X375070Y163001D01*
X373930Y163659D01*
X372841Y163951D01*
X372907Y164451D01*
X374000D01*
X374975Y164645D01*
X375802Y165198D01*
X376355Y166024D01*
X376549Y167000D01*
Y171000D01*
X376355Y171976D01*
X375802Y172802D01*
X374975Y173355D01*
X374000Y173549D01*
X370000D01*
X369024Y173355D01*
X368198Y172802D01*
X367645Y171976D01*
X367451Y171000D01*
Y170675D01*
X367317Y170649D01*
X366738Y170262D01*
X366738Y170262D01*
X362738Y166262D01*
X362351Y165683D01*
X362216Y165000D01*
Y149034D01*
X360954D01*
X360854Y149534D01*
X360952Y149575D01*
X361425Y150048D01*
X361681Y150666D01*
Y151334D01*
X361425Y151952D01*
X361275Y152103D01*
Y169000D01*
X361177Y169488D01*
X360901Y169901D01*
X348401Y182401D01*
X347988Y182677D01*
X347500Y182774D01*
X293028D01*
X286954Y188848D01*
X287193Y189263D01*
X287500Y190408D01*
Y191592D01*
X287193Y192737D01*
X286601Y193763D01*
X285763Y194601D01*
X284737Y195193D01*
X283592Y195500D01*
X282408D01*
X281263Y195193D01*
X280237Y194601D01*
X279399Y193763D01*
X278807Y192737D01*
X278500Y191592D01*
Y190408D01*
X278807Y189263D01*
X279399Y188237D01*
X280237Y187399D01*
X281263Y186807D01*
X282408Y186500D01*
X283592D01*
X284737Y186807D01*
X285152Y187046D01*
X291599Y180599D01*
X292012Y180323D01*
X292500Y180226D01*
X346972D01*
X358726Y168472D01*
Y152103D01*
X358575Y151952D01*
X358319Y151334D01*
Y150666D01*
X358575Y150048D01*
X359048Y149575D01*
X359146Y149534D01*
X359046Y149034D01*
X356706D01*
X356607Y149534D01*
X356880Y149647D01*
X357353Y150120D01*
X357609Y150738D01*
Y151407D01*
X357353Y152025D01*
X357311Y152066D01*
Y167963D01*
X357214Y168451D01*
X356938Y168864D01*
X346901Y178901D01*
X346488Y179177D01*
X346000Y179274D01*
X286528D01*
X276954Y188848D01*
X277193Y189263D01*
X277500Y190408D01*
Y191592D01*
X277193Y192737D01*
X276601Y193763D01*
X275763Y194601D01*
X274737Y195193D01*
X273592Y195500D01*
X272408D01*
X271263Y195193D01*
X270237Y194601D01*
X269399Y193763D01*
X268807Y192737D01*
X268500Y191592D01*
Y190408D01*
X268807Y189263D01*
X269399Y188237D01*
X270237Y187399D01*
X271263Y186807D01*
X272408Y186500D01*
X273592D01*
X274737Y186807D01*
X275151Y187046D01*
X285099Y177099D01*
X285512Y176822D01*
X286000Y176725D01*
X345472D01*
X354763Y167435D01*
Y152285D01*
X354502Y152025D01*
X354246Y151407D01*
Y150738D01*
X354502Y150120D01*
X354975Y149647D01*
X355248Y149534D01*
X355149Y149034D01*
X352706D01*
X352607Y149534D01*
X352880Y149647D01*
X353353Y150120D01*
X353608Y150738D01*
Y151407D01*
X353353Y152025D01*
X353274Y152103D01*
Y166500D01*
X353177Y166988D01*
X352901Y167401D01*
X344901Y175401D01*
X344488Y175678D01*
X344000Y175775D01*
X280028D01*
X266954Y188848D01*
X267193Y189263D01*
X267500Y190408D01*
Y191592D01*
X267193Y192737D01*
X266601Y193763D01*
X265763Y194601D01*
X264737Y195193D01*
X263592Y195500D01*
X262408D01*
X261263Y195193D01*
X260237Y194601D01*
X259399Y193763D01*
X258807Y192737D01*
X258500Y191592D01*
Y190408D01*
X258807Y189263D01*
X259399Y188237D01*
X260237Y187399D01*
X261263Y186807D01*
X262408Y186500D01*
X263592D01*
X264737Y186807D01*
X265152Y187046D01*
X278599Y173599D01*
X279012Y173322D01*
X279500Y173225D01*
X343472D01*
X350726Y165972D01*
Y152248D01*
X350502Y152025D01*
X350246Y151407D01*
Y150738D01*
X350502Y150120D01*
X350975Y149647D01*
X351248Y149534D01*
X351149Y149034D01*
X348706D01*
X348606Y149534D01*
X348880Y149647D01*
X349353Y150120D01*
X349608Y150738D01*
Y151407D01*
X349353Y152025D01*
X349274Y152103D01*
Y165500D01*
X349178Y165988D01*
X348901Y166401D01*
X343101Y172201D01*
X342688Y172477D01*
X342200Y172574D01*
X273228D01*
X256954Y188848D01*
X257193Y189263D01*
X257500Y190408D01*
Y191592D01*
X257193Y192737D01*
X256601Y193763D01*
X255763Y194601D01*
X254737Y195193D01*
X253592Y195500D01*
X252408D01*
X251263Y195193D01*
X250237Y194601D01*
X249399Y193763D01*
X248807Y192737D01*
X248500Y191592D01*
Y190408D01*
X248807Y189263D01*
X249399Y188237D01*
X250237Y187399D01*
X251263Y186807D01*
X252408Y186500D01*
X253592D01*
X254737Y186807D01*
X255152Y187046D01*
X271799Y170399D01*
X272212Y170123D01*
X272700Y170026D01*
X341672D01*
X346726Y164972D01*
Y160574D01*
X346238Y160461D01*
X345588Y161586D01*
X344669Y162506D01*
X343543Y163156D01*
X342288Y163492D01*
X340988D01*
X339732Y163156D01*
X338606Y162506D01*
X337687Y161586D01*
X337037Y160461D01*
X336701Y159205D01*
Y157905D01*
X336736Y157773D01*
X336288Y157515D01*
X325101Y168701D01*
X324688Y168977D01*
X324200Y169074D01*
X266728D01*
X246954Y188848D01*
X247193Y189263D01*
X247500Y190408D01*
Y191592D01*
X247193Y192737D01*
X246601Y193763D01*
X245763Y194601D01*
X244737Y195193D01*
X243592Y195500D01*
X242408D01*
X241263Y195193D01*
X240237Y194601D01*
X239399Y193763D01*
X238807Y192737D01*
X238500Y191592D01*
Y190408D01*
X238807Y189263D01*
X239399Y188237D01*
X240237Y187399D01*
X241263Y186807D01*
X242408Y186500D01*
X243592D01*
X244737Y186807D01*
X245151Y187046D01*
X265299Y166899D01*
X265712Y166622D01*
X266200Y166525D01*
X323672D01*
X334725Y155472D01*
Y152103D01*
X334575Y151952D01*
X334319Y151334D01*
Y150666D01*
X334575Y150048D01*
X335048Y149575D01*
X335146Y149534D01*
X335046Y149034D01*
X332954D01*
X332854Y149534D01*
X332952Y149575D01*
X333425Y150048D01*
X333681Y150666D01*
Y151334D01*
X333425Y151952D01*
X333293Y152084D01*
Y155181D01*
X333196Y155669D01*
X332920Y156082D01*
X323901Y165101D01*
X323488Y165377D01*
X323000Y165474D01*
X260328D01*
X236954Y188848D01*
X237193Y189263D01*
X237500Y190408D01*
Y191592D01*
X237193Y192737D01*
X236601Y193763D01*
X235763Y194601D01*
X234737Y195193D01*
X233592Y195500D01*
X232408D01*
X231263Y195193D01*
X230237Y194601D01*
X229399Y193763D01*
X228807Y192737D01*
X228500Y191592D01*
Y190408D01*
X228807Y189263D01*
X229399Y188237D01*
X230237Y187399D01*
X231263Y186807D01*
X232408Y186500D01*
X233592D01*
X234737Y186807D01*
X235152Y187046D01*
X258899Y163299D01*
X259312Y163022D01*
X259800Y162926D01*
X322472D01*
X328365Y157032D01*
X328353Y156902D01*
X327814Y156499D01*
X327625Y156537D01*
X327250D01*
Y153750D01*
X325750D01*
Y156537D01*
X325375D01*
X324643Y156391D01*
X324023Y155977D01*
X323609Y155357D01*
X323463Y154625D01*
Y153517D01*
X322963Y153310D01*
X314812Y161462D01*
X314233Y161848D01*
X313550Y161984D01*
X291700D01*
X291700Y161984D01*
X291017Y161848D01*
X290438Y161462D01*
X285975Y156998D01*
X285588Y156419D01*
X285518Y156067D01*
X284987Y155962D01*
X284977Y155977D01*
X284357Y156391D01*
X283625Y156537D01*
X283250D01*
Y153750D01*
X281750D01*
Y156537D01*
X281375D01*
X280643Y156391D01*
X280023Y155977D01*
X279875Y155755D01*
X279375D01*
X279227Y155977D01*
X278607Y156391D01*
X277875Y156537D01*
X277750D01*
Y153500D01*
X276250D01*
Y156537D01*
X276125D01*
X275560Y156424D01*
X275091Y156640D01*
X274990Y156723D01*
X274977Y156788D01*
X274701Y157201D01*
X272901Y159001D01*
X272488Y159277D01*
X272000Y159374D01*
X255128D01*
X226433Y188069D01*
X226601Y188237D01*
X227193Y189263D01*
X227500Y190408D01*
Y191592D01*
X227193Y192737D01*
X226601Y193763D01*
X225763Y194601D01*
X224737Y195193D01*
X223592Y195500D01*
X222408D01*
X221263Y195193D01*
X220237Y194601D01*
X219399Y193763D01*
X218807Y192737D01*
X218500Y191592D01*
Y190408D01*
X218807Y189263D01*
X219399Y188237D01*
X220237Y187399D01*
X221263Y186807D01*
X222408Y186500D01*
X223592D01*
X224227Y186670D01*
X253699Y157199D01*
X254112Y156922D01*
X254600Y156825D01*
X257209D01*
X257295Y156325D01*
X256773Y155977D01*
X256359Y155357D01*
X256213Y154625D01*
Y154250D01*
X259000D01*
Y153500D01*
X259750D01*
Y150463D01*
X259875D01*
X259969Y150482D01*
X260270Y150032D01*
X260087Y149759D01*
X259971Y149173D01*
Y144173D01*
X260087Y143588D01*
X260419Y143092D01*
X260915Y142760D01*
X261480Y142648D01*
Y141627D01*
X261075Y141221D01*
X260819Y140603D01*
Y139935D01*
X261075Y139317D01*
X261084Y139307D01*
X260877Y138807D01*
X260135D01*
X255120Y143822D01*
Y153909D01*
X255042Y154299D01*
X254821Y154630D01*
X224730Y184721D01*
X224399Y184942D01*
X224009Y185020D01*
X221406D01*
X217182Y189243D01*
X217193Y189263D01*
X217500Y190408D01*
Y191592D01*
X217193Y192737D01*
X216601Y193763D01*
X215763Y194601D01*
X214737Y195193D01*
X213592Y195500D01*
X212408D01*
X211263Y195193D01*
X210237Y194601D01*
X209399Y193763D01*
X208807Y192737D01*
X208500Y191592D01*
Y190408D01*
X208807Y189263D01*
X209399Y188237D01*
X210237Y187399D01*
X211263Y186807D01*
X212408Y186500D01*
X213592D01*
X214737Y186807D01*
X215763Y187399D01*
X215953Y187589D01*
X220263Y183279D01*
X220593Y183058D01*
X220984Y182980D01*
X223587D01*
X236098Y170469D01*
X235891Y169969D01*
X235466D01*
X234848Y169713D01*
X234375Y169240D01*
X234119Y168622D01*
Y167954D01*
X234375Y167336D01*
X234848Y166863D01*
X235466Y166607D01*
X236039D01*
X239980Y162666D01*
Y160734D01*
X239480Y160685D01*
X239442Y160878D01*
X239221Y161209D01*
X232381Y168049D01*
Y168622D01*
X232125Y169240D01*
X231652Y169713D01*
X231034Y169969D01*
X230366D01*
X229748Y169713D01*
X229275Y169240D01*
X229019Y168622D01*
Y168130D01*
X228540Y167901D01*
X216221Y180221D01*
X215890Y180442D01*
X215500Y180520D01*
X200000D01*
X199610Y180442D01*
X199279Y180221D01*
X191739Y172681D01*
X191166D01*
X190548Y172425D01*
X190075Y171952D01*
X189819Y171334D01*
Y170666D01*
X190075Y170048D01*
X190548Y169575D01*
X191166Y169319D01*
X191834D01*
X192452Y169575D01*
X192925Y170048D01*
X192981Y170182D01*
X193522D01*
X193579Y170043D01*
X194052Y169570D01*
X194670Y169315D01*
X195339D01*
X195957Y169570D01*
X196430Y170043D01*
X196485Y170177D01*
X197026D01*
X197084Y170039D01*
X197556Y169566D01*
X198174Y169310D01*
X198843D01*
X199461Y169566D01*
X199934Y170039D01*
X199989Y170173D01*
X200531D01*
X200588Y170035D01*
X201061Y169562D01*
X201679Y169306D01*
X202348D01*
X202965Y169562D01*
X203438Y170035D01*
X203694Y170652D01*
Y170875D01*
X203819Y170956D01*
X204319Y170684D01*
Y170666D01*
X204575Y170048D01*
X205048Y169575D01*
X205666Y169319D01*
X206334D01*
X206952Y169575D01*
X207425Y170048D01*
X207681Y170666D01*
Y170932D01*
X207819Y171017D01*
X208319Y170737D01*
Y170666D01*
X208575Y170048D01*
X209048Y169575D01*
X209666Y169319D01*
X210334D01*
X210952Y169575D01*
X211358Y169980D01*
X212971D01*
X221680Y161271D01*
Y127300D01*
X221758Y126910D01*
X221979Y126579D01*
X231670Y116888D01*
Y90311D01*
X231747Y89921D01*
X231968Y89590D01*
X237839Y83719D01*
Y82426D01*
X237608D01*
X236926Y82290D01*
X236347Y81903D01*
X235960Y81324D01*
X235824Y80642D01*
Y75642D01*
X235960Y74959D01*
X236347Y74380D01*
X236926Y73993D01*
X237074Y73964D01*
Y50036D01*
X236926Y50007D01*
X236347Y49620D01*
X235960Y49041D01*
X235824Y48358D01*
Y43358D01*
X235960Y42676D01*
X236347Y42097D01*
X236926Y41710D01*
X237608Y41574D01*
X240108D01*
X240791Y41710D01*
X241370Y42097D01*
X241757Y42676D01*
X241893Y43358D01*
Y48358D01*
X241757Y49041D01*
X241370Y49620D01*
X240791Y50007D01*
X240642Y50036D01*
Y73964D01*
X240791Y73993D01*
X241370Y74380D01*
X241757Y74959D01*
X241893Y75642D01*
Y80642D01*
X241757Y81324D01*
X241370Y81903D01*
X240791Y82290D01*
X240108Y82426D01*
X239878D01*
Y83122D01*
X251420D01*
X251470Y82622D01*
X251309Y82590D01*
X250730Y82203D01*
X250343Y81625D01*
X250207Y80942D01*
Y75942D01*
X250343Y75259D01*
X250730Y74680D01*
X251309Y74293D01*
X251458Y74264D01*
Y50336D01*
X251309Y50307D01*
X250730Y49920D01*
X250343Y49341D01*
X250207Y48658D01*
Y43658D01*
X250343Y42976D01*
X250730Y42397D01*
X251309Y42010D01*
X251458Y41980D01*
Y34184D01*
X222926D01*
Y41680D01*
X223075Y41710D01*
X223653Y42097D01*
X224040Y42676D01*
X224176Y43358D01*
Y48358D01*
X224040Y49041D01*
X223653Y49620D01*
X223075Y50007D01*
X222926Y50036D01*
Y73964D01*
X223075Y73993D01*
X223653Y74380D01*
X224040Y74959D01*
X224176Y75642D01*
Y78653D01*
X226762Y81238D01*
X226762Y81238D01*
X227149Y81817D01*
X227284Y82500D01*
Y90000D01*
Y102215D01*
X227468D01*
X228432Y102406D01*
X229248Y102952D01*
X229794Y103768D01*
X229985Y104732D01*
Y108668D01*
X229794Y109632D01*
X229248Y110448D01*
X228432Y110994D01*
X227468Y111185D01*
X224833D01*
X224584Y111558D01*
Y119900D01*
X224584Y119900D01*
X224448Y120583D01*
X224062Y121162D01*
X224062Y121162D01*
X218284Y126939D01*
Y134015D01*
X218468D01*
X219432Y134206D01*
X220248Y134752D01*
X220794Y135568D01*
X220985Y136531D01*
Y140469D01*
X220794Y141432D01*
X220248Y142248D01*
X219432Y142794D01*
X218468Y142985D01*
X214531D01*
X213568Y142794D01*
X212752Y142248D01*
X212206Y141432D01*
X212015Y140469D01*
Y136531D01*
X212206Y135568D01*
X212752Y134752D01*
X213568Y134206D01*
X214531Y134015D01*
X214716D01*
Y126200D01*
X214851Y125517D01*
X215238Y124938D01*
X221016Y119161D01*
Y110852D01*
X221151Y110169D01*
X221358Y109859D01*
X221206Y109632D01*
X221015Y108668D01*
Y104732D01*
X221206Y103768D01*
X221752Y102952D01*
X222568Y102406D01*
X223532Y102215D01*
X223716D01*
Y91784D01*
X198284D01*
Y102215D01*
X198468D01*
X199432Y102406D01*
X200248Y102952D01*
X200794Y103768D01*
X200985Y104732D01*
Y108668D01*
X200794Y109632D01*
X200248Y110448D01*
X199432Y110994D01*
X198468Y111185D01*
X194532D01*
X193568Y110994D01*
X192752Y110448D01*
X192206Y109632D01*
X192015Y108668D01*
Y104732D01*
X192206Y103768D01*
X192752Y102952D01*
X193568Y102406D01*
X194532Y102215D01*
X194716D01*
Y91784D01*
X152784D01*
Y93692D01*
X152811Y93732D01*
X152904Y94200D01*
Y96800D01*
X152811Y97268D01*
X152545Y97665D01*
X152148Y97930D01*
X151680Y98023D01*
X150280D01*
X149812Y97930D01*
X149415Y97665D01*
X149150Y97268D01*
X149057Y96800D01*
Y94200D01*
X149150Y93732D01*
X149216Y93633D01*
Y92445D01*
X149089Y92420D01*
X148634Y92116D01*
X148330Y91662D01*
X148223Y91125D01*
Y88875D01*
X148330Y88339D01*
X148634Y87884D01*
X149089Y87580D01*
X149625Y87473D01*
X151375D01*
X151911Y87580D01*
X152366Y87884D01*
X152588Y88216D01*
X223716D01*
Y83239D01*
X222818Y82341D01*
X222392Y82426D01*
X219892D01*
X219209Y82290D01*
X218630Y81903D01*
X218243Y81324D01*
X218108Y80642D01*
Y75642D01*
X218243Y74959D01*
X218630Y74380D01*
X219209Y73993D01*
X219357Y73964D01*
Y50036D01*
X219209Y50007D01*
X218630Y49620D01*
X218243Y49041D01*
X218108Y48358D01*
Y43358D01*
X218243Y42676D01*
X218630Y42097D01*
X219209Y41710D01*
X219357Y41680D01*
Y34184D01*
X208900D01*
X208217Y34049D01*
X207638Y33662D01*
X184684Y10707D01*
X183592Y11000D01*
X182408D01*
X181263Y10693D01*
X180237Y10101D01*
X179399Y9263D01*
X178807Y8237D01*
X178500Y7092D01*
Y5908D01*
X178807Y4763D01*
X179399Y3737D01*
X180237Y2899D01*
X181263Y2307D01*
X182408Y2000D01*
X183592D01*
X184737Y2307D01*
X185763Y2899D01*
X186601Y3737D01*
X187193Y4763D01*
X187500Y5908D01*
Y7092D01*
X187207Y8184D01*
X188187Y9164D01*
X188587Y8857D01*
X188341Y8430D01*
X188025Y7250D01*
X192250D01*
Y11475D01*
X191070Y11159D01*
X190643Y10913D01*
X190336Y11313D01*
X209639Y30616D01*
X315299D01*
X315982Y30751D01*
X316561Y31138D01*
X318025Y32603D01*
X318025Y32603D01*
X318412Y33182D01*
X318548Y33865D01*
Y39200D01*
X318548Y39200D01*
X318548Y39200D01*
Y52000D01*
Y65900D01*
Y78137D01*
X318580Y78184D01*
X318715Y78867D01*
X318715Y78867D01*
Y92152D01*
X319215Y92395D01*
X319643Y92109D01*
X320375Y91963D01*
X320750D01*
Y94750D01*
Y97537D01*
X320375D01*
X319643Y97391D01*
X319023Y96977D01*
X318749Y96566D01*
X318212Y96500D01*
X318162Y96519D01*
X317783Y96772D01*
Y98723D01*
X317829Y98952D01*
Y100658D01*
X318973D01*
Y100375D01*
X319080Y99839D01*
X319384Y99384D01*
X319839Y99080D01*
X320375Y98973D01*
X322625D01*
X323162Y99080D01*
X323616Y99384D01*
X323671Y99466D01*
X324329D01*
X324384Y99384D01*
X324838Y99080D01*
X325375Y98973D01*
X327625D01*
X328162Y99080D01*
X328515Y99316D01*
X329485D01*
X329838Y99080D01*
X330375Y98973D01*
X332625D01*
X333161Y99080D01*
X333616Y99384D01*
X333671Y99466D01*
X350046D01*
X350146Y98966D01*
X350048Y98925D01*
X349575Y98452D01*
X349319Y97834D01*
Y97166D01*
X349575Y96548D01*
X350048Y96075D01*
X350666Y95819D01*
X351334D01*
X351952Y96075D01*
X352103Y96226D01*
X360500D01*
X360988Y96323D01*
X361401Y96599D01*
X369848Y105046D01*
X370263Y104807D01*
X371408Y104500D01*
X372592D01*
X373737Y104807D01*
X374763Y105399D01*
X375601Y106237D01*
X376193Y107263D01*
X376500Y108408D01*
Y109592D01*
X376193Y110737D01*
X375601Y111763D01*
X374763Y112601D01*
X373737Y113193D01*
X372592Y113500D01*
X371408D01*
X370263Y113193D01*
X369237Y112601D01*
X368399Y111763D01*
X367807Y110737D01*
X367500Y109592D01*
Y108408D01*
X367807Y107263D01*
X368046Y106849D01*
X366194Y104996D01*
X365733Y105243D01*
X365784Y105500D01*
X365784Y105500D01*
Y147250D01*
Y164261D01*
X367246Y165722D01*
X367889Y165659D01*
X368198Y165198D01*
X369024Y164645D01*
X370000Y164451D01*
X371093D01*
X371159Y163951D01*
X370070Y163659D01*
X368930Y163001D01*
X367999Y162070D01*
X367341Y160930D01*
X367025Y159750D01*
X372000D01*
Y159000D01*
X372750D01*
Y154025D01*
X373930Y154341D01*
X375070Y154999D01*
X376001Y155930D01*
X376659Y157070D01*
X376688Y157178D01*
X377188Y157112D01*
Y145138D01*
Y51713D01*
Y5000D01*
X377189Y4997D01*
X377045Y3904D01*
X376622Y2882D01*
X375948Y2004D01*
X375071Y1331D01*
X374049Y908D01*
X372956Y764D01*
X372953Y765D01*
X5000D01*
X4997Y764D01*
X3904Y908D01*
X2882Y1331D01*
X2004Y2004D01*
X1331Y2882D01*
X908Y3904D01*
X764Y4997D01*
X765Y5000D01*
Y191850D01*
X764Y191853D01*
X908Y192947D01*
X1331Y193968D01*
X2004Y194846D01*
X2882Y195519D01*
X3904Y195942D01*
X4997Y196086D01*
X5000Y196086D01*
X190809D01*
X190943Y195586D01*
X189930Y195001D01*
X188999Y194070D01*
X188341Y192930D01*
X188025Y191750D01*
X193000D01*
Y191000D01*
X193750D01*
Y186025D01*
X194930Y186341D01*
X196070Y186999D01*
X197001Y187930D01*
X197659Y189070D01*
X197750Y189409D01*
X198250D01*
X198341Y189070D01*
X198999Y187930D01*
X199930Y186999D01*
X201070Y186341D01*
X202250Y186025D01*
Y191000D01*
X203000D01*
Y191750D01*
X207975D01*
X207659Y192930D01*
X207001Y194070D01*
X206070Y195001D01*
X205057Y195586D01*
X205191Y196086D01*
X372953D01*
X372956Y196086D01*
X374049Y195942D01*
D02*
G37*
G36*
X304474Y157916D02*
X302585Y156027D01*
X300875D01*
X300339Y155920D01*
X299884Y155616D01*
X299580Y155161D01*
X299473Y154625D01*
Y152375D01*
X299580Y151839D01*
X299884Y151384D01*
X300339Y151080D01*
X300875Y150973D01*
X302625D01*
X303162Y151080D01*
X303319Y151185D01*
X303798Y150973D01*
X303834Y150928D01*
X304057Y150388D01*
X304058Y150291D01*
X303922Y149834D01*
X303632Y149731D01*
X303562Y149778D01*
X303259Y149838D01*
X302709D01*
X302407Y149778D01*
X302151Y149607D01*
X301850D01*
X301593Y149778D01*
X301291Y149838D01*
X300741D01*
X300438Y149778D01*
X300182Y149607D01*
X299881D01*
X299625Y149778D01*
X299322Y149838D01*
X298772D01*
X298470Y149778D01*
X298214Y149607D01*
X297913D01*
X297656Y149778D01*
X297354Y149838D01*
X296804D01*
X296681Y149814D01*
X296257Y150072D01*
X296181Y150165D01*
Y150984D01*
X296661Y151080D01*
X297116Y151384D01*
X297420Y151839D01*
X297527Y152375D01*
Y154625D01*
X297420Y155161D01*
X297116Y155616D01*
X296661Y155920D01*
X296125Y156027D01*
X294375D01*
X293839Y155920D01*
X293384Y155616D01*
X293080Y155161D01*
X292973Y154625D01*
Y152375D01*
X293080Y151839D01*
X293384Y151384D01*
X293839Y151080D01*
X294040Y151040D01*
Y150165D01*
X293963Y150072D01*
X293540Y149814D01*
X293417Y149838D01*
X292867D01*
X292564Y149778D01*
X292308Y149607D01*
X292007D01*
X291751Y149778D01*
X291448Y149838D01*
X290898D01*
X290596Y149778D01*
X290547Y149745D01*
X290399Y149967D01*
X289977Y150249D01*
X289955Y150253D01*
Y146323D01*
X288455D01*
Y150602D01*
X288410Y150638D01*
X288419Y151122D01*
X288498Y151174D01*
X288885Y151753D01*
X289020Y152436D01*
Y154997D01*
X292439Y158416D01*
X304267D01*
X304474Y157916D01*
D02*
G37*
G36*
X354732Y144966D02*
X352460Y142694D01*
X352239Y142363D01*
X352162Y141973D01*
Y139423D01*
X351661Y139216D01*
X351452Y139425D01*
X350834Y139681D01*
X350166D01*
X349548Y139425D01*
X349075Y138952D01*
X348819Y138334D01*
Y137666D01*
X349075Y137048D01*
X349480Y136642D01*
Y135422D01*
X340258Y126200D01*
X340029Y126235D01*
X339855Y126768D01*
X347294Y134206D01*
X347515Y134537D01*
X347592Y134927D01*
Y136570D01*
X347998Y136975D01*
X348254Y137593D01*
Y138262D01*
X347998Y138880D01*
X347525Y139353D01*
X346907Y139609D01*
X346238D01*
X345620Y139353D01*
X345147Y138880D01*
X344892Y138262D01*
Y137593D01*
X345147Y136975D01*
X345553Y136570D01*
Y135350D01*
X338176Y127972D01*
X337621D01*
X337414Y128472D01*
X343221Y134279D01*
X343442Y134610D01*
X343520Y135000D01*
Y136642D01*
X343925Y137048D01*
X344181Y137666D01*
Y138334D01*
X343925Y138952D01*
X343452Y139425D01*
X342834Y139681D01*
X342166D01*
X341548Y139425D01*
X341075Y138952D01*
X340819Y138334D01*
Y137666D01*
X341075Y137048D01*
X341480Y136642D01*
Y135422D01*
X336052Y129994D01*
X335626Y130042D01*
X335444Y130503D01*
X339239Y134297D01*
X339460Y134628D01*
X339538Y135018D01*
Y136642D01*
X339943Y137048D01*
X340199Y137666D01*
Y138334D01*
X339943Y138952D01*
X339471Y139425D01*
X338853Y139681D01*
X338184D01*
X337566Y139425D01*
X337093Y138952D01*
X336837Y138334D01*
Y137666D01*
X337093Y137048D01*
X337499Y136642D01*
Y135441D01*
X334020Y131962D01*
X333594Y132010D01*
X333413Y132471D01*
X335221Y134279D01*
X335442Y134610D01*
X335520Y135000D01*
Y136642D01*
X335925Y137048D01*
X336181Y137666D01*
Y138334D01*
X335925Y138952D01*
X335452Y139425D01*
X334834Y139681D01*
X334166D01*
X333548Y139425D01*
X333075Y138952D01*
X332819Y138334D01*
Y137666D01*
X333075Y137048D01*
X333480Y136642D01*
Y135422D01*
X331936Y133878D01*
X330981D01*
X330774Y134378D01*
X331088Y134692D01*
X331309Y135022D01*
X331386Y135413D01*
Y136548D01*
X331452Y136575D01*
X331925Y137048D01*
X332181Y137666D01*
Y138334D01*
X331925Y138952D01*
X331452Y139425D01*
X330834Y139681D01*
X330166D01*
X329548Y139425D01*
X329075Y138952D01*
X328819Y138334D01*
Y137666D01*
X329075Y137048D01*
X329347Y136776D01*
Y135846D01*
X328686D01*
X328538Y136045D01*
X320392D01*
X320397Y136023D01*
X320645Y135651D01*
X320632Y135453D01*
X320578Y135410D01*
X320078Y135299D01*
X319952Y135425D01*
X319334Y135681D01*
X318761D01*
X318720Y135722D01*
X318702Y135749D01*
X313846Y140604D01*
Y141405D01*
X314346Y141612D01*
X314879Y141079D01*
X315210Y140858D01*
X315600Y140780D01*
X320800D01*
X321190Y140858D01*
X321521Y141079D01*
X322761Y142319D01*
X323334D01*
X323952Y142575D01*
X324216Y142838D01*
X324716Y142631D01*
Y142100D01*
X324851Y141417D01*
X325238Y140838D01*
X325480Y140677D01*
Y139829D01*
X321598D01*
X321295Y139769D01*
X321039Y139597D01*
X320868Y139341D01*
X320808Y139039D01*
Y138489D01*
X320868Y138186D01*
X320900Y138138D01*
X320679Y137989D01*
X320397Y137568D01*
X320392Y137545D01*
X328253D01*
X328249Y137568D01*
X327967Y137989D01*
X327745Y138138D01*
X327778Y138186D01*
X327838Y138489D01*
Y139039D01*
X327778Y139341D01*
X327607Y139597D01*
X327520Y139656D01*
Y140677D01*
X327762Y140838D01*
X328149Y141417D01*
X328284Y142100D01*
Y145162D01*
X328616Y145384D01*
X328671Y145466D01*
X354525D01*
X354732Y144966D01*
D02*
G37*
G36*
X309819Y134730D02*
Y134166D01*
X310075Y133548D01*
X310548Y133075D01*
X311166Y132819D01*
X311834D01*
X312452Y133075D01*
X312925Y133548D01*
X312979Y133679D01*
X313521D01*
X313575Y133548D01*
X314048Y133075D01*
X314666Y132819D01*
X315334D01*
X315952Y133075D01*
X316425Y133548D01*
X316539Y133823D01*
X317143Y134019D01*
X317319Y133902D01*
Y133666D01*
X317575Y133048D01*
X318048Y132575D01*
X318666Y132319D01*
X319334D01*
X319952Y132575D01*
X320308Y132930D01*
X320808Y132764D01*
Y132583D01*
X320868Y132281D01*
X320900Y132232D01*
X320998Y131874D01*
X320900Y131516D01*
X320868Y131467D01*
X320808Y131165D01*
Y130615D01*
X320868Y130312D01*
X321039Y130056D01*
Y129755D01*
X320868Y129499D01*
X320813Y129223D01*
X320712Y129172D01*
X320308Y129070D01*
X319952Y129425D01*
X319334Y129681D01*
X318666D01*
X318048Y129425D01*
X317575Y128952D01*
X317319Y128334D01*
Y127761D01*
X315562Y126004D01*
X283485D01*
X283373Y126122D01*
X283158Y126504D01*
X283192Y126678D01*
Y127228D01*
X283132Y127530D01*
X282961Y127787D01*
Y128087D01*
X283132Y128344D01*
X283192Y128646D01*
Y129196D01*
X283132Y129499D01*
X282961Y129755D01*
Y130056D01*
X283132Y130312D01*
X283192Y130615D01*
Y131165D01*
X283158Y131339D01*
X283373Y131720D01*
X283485Y131839D01*
X283772D01*
X284163Y131916D01*
X284493Y132137D01*
X284780Y132423D01*
X285277Y132375D01*
X285279Y132372D01*
X287072Y130579D01*
X287403Y130358D01*
X287793Y130280D01*
X304800D01*
X305190Y130358D01*
X305521Y130579D01*
X307642Y132700D01*
X307863Y133031D01*
X307941Y133421D01*
Y135901D01*
X308441Y136108D01*
X309819Y134730D01*
D02*
G37*
G36*
X242706Y132879D02*
X243252Y132063D01*
X244068Y131517D01*
X245031Y131326D01*
X248969D01*
X249932Y131517D01*
X250177Y131681D01*
X251179Y130679D01*
X251510Y130458D01*
X251900Y130380D01*
X257473D01*
Y130275D01*
X257580Y129738D01*
X257884Y129284D01*
Y129191D01*
X257523Y128950D01*
X257109Y128330D01*
X256963Y127598D01*
Y127223D01*
X259750D01*
Y125723D01*
X256963D01*
Y125348D01*
X257109Y124617D01*
X257523Y123996D01*
Y123950D01*
X257109Y123330D01*
X256963Y122598D01*
Y122223D01*
X259750D01*
Y120723D01*
X256963D01*
Y120348D01*
X257109Y119617D01*
X257523Y118996D01*
X257884Y118756D01*
Y118690D01*
X257580Y118235D01*
X257473Y117698D01*
Y117593D01*
X255177D01*
X255024Y117869D01*
X254944Y118093D01*
X255181Y118666D01*
Y119334D01*
X254925Y119952D01*
X254452Y120425D01*
X253834Y120681D01*
X253166D01*
X252548Y120425D01*
X252075Y119952D01*
X251819Y119334D01*
Y118666D01*
X252056Y118093D01*
X251976Y117869D01*
X251823Y117593D01*
X251473D01*
X251083Y117515D01*
X250752Y117294D01*
X249937Y116479D01*
X249932Y116483D01*
X248969Y116674D01*
X245031D01*
X244068Y116483D01*
X243252Y115937D01*
X242706Y115121D01*
X242515Y114157D01*
Y96441D01*
X242706Y95478D01*
X243252Y94661D01*
X244068Y94116D01*
X245031Y93924D01*
X248969D01*
X249932Y94116D01*
X250748Y94661D01*
X251294Y95478D01*
X251485Y96441D01*
Y114157D01*
X251322Y114980D01*
X251896Y115554D01*
X257473D01*
Y115448D01*
X257580Y114912D01*
X257884Y114457D01*
X258338Y114153D01*
X258875Y114046D01*
X260625D01*
X261161Y114153D01*
X261480Y114366D01*
X261925Y114192D01*
X261980Y114145D01*
Y112858D01*
X261575Y112452D01*
X261319Y111834D01*
Y111166D01*
X261575Y110548D01*
X262048Y110075D01*
X262666Y109819D01*
X263334D01*
X263952Y110075D01*
X264425Y110548D01*
X264681Y111166D01*
Y111834D01*
X264425Y112452D01*
X264020Y112858D01*
Y113497D01*
X264520Y113765D01*
X264643Y113682D01*
X265375Y113537D01*
X265500D01*
Y116573D01*
X267000D01*
Y113537D01*
X267125D01*
X267857Y113682D01*
X268477Y114096D01*
X268891Y114717D01*
X269037Y115448D01*
Y116544D01*
X269499Y116736D01*
X271814Y114421D01*
X271827Y114412D01*
X271879Y114196D01*
X271852Y113794D01*
X249578Y91520D01*
X240422D01*
X238320Y93622D01*
Y96596D01*
X238820Y96803D01*
X238848Y96775D01*
X239466Y96519D01*
X240134D01*
X240752Y96775D01*
X241225Y97248D01*
X241481Y97866D01*
Y98534D01*
X241225Y99152D01*
X240820Y99558D01*
Y115778D01*
X243522Y118480D01*
X247142D01*
X247548Y118075D01*
X248166Y117819D01*
X248834D01*
X249452Y118075D01*
X249925Y118548D01*
X250181Y119166D01*
Y119834D01*
X249925Y120452D01*
X249452Y120925D01*
X248834Y121181D01*
X248166D01*
X247548Y120925D01*
X247142Y120520D01*
X243100D01*
X242710Y120442D01*
X242520Y120315D01*
X242115Y120476D01*
X242020Y120569D01*
Y133830D01*
X242515Y133843D01*
X242706Y132879D01*
D02*
G37*
G36*
X317381Y117288D02*
Y116787D01*
X317637Y116169D01*
X318110Y115696D01*
X318679Y115460D01*
X318729Y115294D01*
X318730Y114940D01*
X318360Y114787D01*
X317887Y114314D01*
X317631Y113696D01*
Y113027D01*
X317887Y112409D01*
X318292Y112004D01*
Y110757D01*
X317792Y110550D01*
X314821Y113521D01*
X314490Y113742D01*
X314100Y113820D01*
X304600D01*
X304210Y113742D01*
X303879Y113521D01*
X300295Y109937D01*
X300074Y109606D01*
X299996Y109216D01*
Y109153D01*
X299496Y108946D01*
X292721Y115721D01*
X292390Y115942D01*
X292000Y116020D01*
X287858D01*
X287452Y116425D01*
X286834Y116681D01*
X286166D01*
X285548Y116425D01*
X285075Y115952D01*
X284819Y115334D01*
Y114666D01*
X285075Y114048D01*
X285386Y113737D01*
X285494Y113419D01*
X285386Y113101D01*
X285075Y112790D01*
X284819Y112172D01*
Y111503D01*
X285075Y110886D01*
X285510Y110451D01*
X285530Y110169D01*
X285510Y109887D01*
X285075Y109452D01*
X284819Y108834D01*
Y108166D01*
X285075Y107548D01*
X285292Y107331D01*
X285279Y106726D01*
X285264Y106706D01*
X284739Y106181D01*
X284166D01*
X283548Y105925D01*
X283075Y105452D01*
X282819Y104834D01*
Y104166D01*
X283075Y103548D01*
X283426Y103197D01*
X283253Y102697D01*
X280035D01*
X279629Y103102D01*
X279012Y103358D01*
X278343D01*
X277725Y103102D01*
X277252Y102629D01*
X276996Y102012D01*
Y101438D01*
X275779Y100221D01*
X275558Y99890D01*
X275480Y99500D01*
Y96429D01*
X275425Y96381D01*
X274980Y96207D01*
X274661Y96420D01*
X274125Y96527D01*
X272375D01*
X271838Y96420D01*
X271384Y96116D01*
X271162Y95784D01*
X268800D01*
X268800Y95784D01*
X268117Y95648D01*
X267538Y95262D01*
X267538Y95262D01*
X254918Y82641D01*
X254492Y82726D01*
X252380D01*
X252326Y82806D01*
X252363Y83421D01*
X277109Y108167D01*
X279627D01*
X279649Y108171D01*
X282402D01*
X282705Y108231D01*
X282961Y108403D01*
X283132Y108659D01*
X283192Y108961D01*
Y109511D01*
X283132Y109814D01*
X282961Y110070D01*
Y110371D01*
X283132Y110627D01*
X283192Y110930D01*
Y111480D01*
X283132Y111782D01*
X283100Y111831D01*
X283002Y112189D01*
X283100Y112547D01*
X283132Y112596D01*
X283192Y112898D01*
Y113448D01*
X283132Y113751D01*
X282961Y114007D01*
Y114308D01*
X283132Y114564D01*
X283192Y114867D01*
Y115417D01*
X283132Y115719D01*
X283100Y115768D01*
X283321Y115916D01*
X283603Y116338D01*
X283608Y116360D01*
X279677D01*
Y117860D01*
X283957D01*
X284075Y118008D01*
X316661D01*
X317381Y117288D01*
D02*
G37*
G36*
X317085Y105673D02*
X316859Y105192D01*
X316489D01*
X316186Y105132D01*
X316138Y105100D01*
X315989Y105321D01*
X315568Y105603D01*
X315545Y105608D01*
Y101677D01*
X314045D01*
Y105608D01*
X314023Y105603D01*
X313601Y105321D01*
X313453Y105100D01*
X313404Y105132D01*
X313102Y105192D01*
X312552D01*
X312249Y105132D01*
X311993Y104961D01*
X311692D01*
X311436Y105132D01*
X311133Y105192D01*
X310583D01*
X310281Y105132D01*
X310024Y104961D01*
X309723D01*
X309467Y105132D01*
X309165Y105192D01*
X308615D01*
X308312Y105132D01*
X308056Y104961D01*
X307755D01*
X307499Y105132D01*
X307196Y105192D01*
X306646D01*
X306344Y105132D01*
X306087Y104961D01*
X305786D01*
X305530Y105132D01*
X305228Y105192D01*
X304678D01*
X304504Y105158D01*
X304122Y105373D01*
X304004Y105485D01*
Y107902D01*
X306332Y110230D01*
X312529D01*
X317085Y105673D01*
D02*
G37*
G36*
X289955Y97462D02*
X290154Y97313D01*
Y96483D01*
X289839Y96420D01*
X289384Y96116D01*
X289080Y95661D01*
X288973Y95125D01*
Y92875D01*
X289080Y92339D01*
X289384Y91884D01*
X289285Y91348D01*
X283619Y85681D01*
X283287Y85185D01*
X283171Y84600D01*
Y64733D01*
X275219Y56781D01*
X274887Y56285D01*
X274771Y55700D01*
Y34184D01*
X255026D01*
Y41980D01*
X255174Y42010D01*
X255753Y42397D01*
X256140Y42976D01*
X256276Y43658D01*
Y48658D01*
X256140Y49341D01*
X255753Y49920D01*
X255174Y50307D01*
X255026Y50336D01*
Y74264D01*
X255174Y74293D01*
X255753Y74680D01*
X256140Y75259D01*
X256276Y75942D01*
Y78953D01*
X269539Y92216D01*
X271162D01*
X271384Y91884D01*
X271838Y91580D01*
X272375Y91473D01*
X274125D01*
X274661Y91580D01*
X274980Y91793D01*
X275425Y91619D01*
X275480Y91571D01*
Y84406D01*
X273355Y82280D01*
X272891Y82590D01*
X272208Y82726D01*
X269708D01*
X269025Y82590D01*
X268447Y82203D01*
X268060Y81625D01*
X267924Y80942D01*
Y75942D01*
X268060Y75259D01*
X268447Y74680D01*
X269025Y74293D01*
X269174Y74264D01*
Y50336D01*
X269025Y50307D01*
X268447Y49920D01*
X268060Y49341D01*
X267924Y48658D01*
Y43658D01*
X268060Y42976D01*
X268447Y42397D01*
X269025Y42010D01*
X269708Y41874D01*
X272208D01*
X272891Y42010D01*
X273470Y42397D01*
X273857Y42976D01*
X273992Y43658D01*
Y48658D01*
X273857Y49341D01*
X273470Y49920D01*
X272891Y50307D01*
X272743Y50336D01*
Y74264D01*
X272891Y74293D01*
X273470Y74680D01*
X273857Y75259D01*
X273992Y75942D01*
Y80034D01*
X277221Y83262D01*
X277442Y83593D01*
X277466Y83713D01*
X277966Y83663D01*
Y65350D01*
X278101Y64667D01*
X278488Y64088D01*
X278538Y64038D01*
X279117Y63652D01*
X279800Y63516D01*
X280483Y63652D01*
X281062Y64038D01*
X281449Y64617D01*
X281584Y65300D01*
X281534Y65551D01*
Y91523D01*
X281809Y91782D01*
X282390Y91723D01*
X282523Y91523D01*
X283143Y91109D01*
X283875Y90963D01*
X284000D01*
Y94000D01*
Y97037D01*
X283875D01*
X283143Y96891D01*
X282523Y96477D01*
X282250Y96068D01*
X281675Y96032D01*
X281672Y96034D01*
X281616Y96116D01*
X281161Y96420D01*
X281106Y96431D01*
X280950Y96972D01*
X281175Y97198D01*
X281431Y97816D01*
Y98484D01*
X281175Y99102D01*
X280702Y99575D01*
X280084Y99831D01*
X279862D01*
X279792Y99957D01*
X279718Y100289D01*
X280044Y100658D01*
X286171D01*
Y98952D01*
X286231Y98650D01*
X286403Y98393D01*
X286659Y98222D01*
X286961Y98162D01*
X287511D01*
X287814Y98222D01*
X287862Y98255D01*
X288011Y98033D01*
X288432Y97751D01*
X288455Y97747D01*
Y101677D01*
X289955D01*
Y97462D01*
D02*
G37*
G36*
X295907Y50839D02*
X296210Y50384D01*
X296665Y50080D01*
X297202Y49973D01*
X299412D01*
X301606Y47779D01*
X301937Y47558D01*
X302101Y47525D01*
X302185Y47404D01*
X302302Y47030D01*
X302300Y46991D01*
X302080Y46661D01*
X302052Y46525D01*
X300947D01*
X300920Y46661D01*
X300616Y47116D01*
X300162Y47420D01*
X299625Y47527D01*
X297375D01*
X296838Y47420D01*
X296384Y47116D01*
X296080Y46661D01*
X295973Y46125D01*
Y44375D01*
X296080Y43839D01*
X296384Y43384D01*
X296838Y43080D01*
X297375Y42973D01*
X299625D01*
X300162Y43080D01*
X300616Y43384D01*
X300920Y43839D01*
X300947Y43975D01*
X302052D01*
X302080Y43839D01*
X302384Y43384D01*
X302838Y43080D01*
X303375Y42973D01*
X305625D01*
X306161Y43080D01*
X306616Y43384D01*
X306920Y43839D01*
X307027Y44375D01*
Y46125D01*
X306920Y46661D01*
X306912Y46674D01*
X307140Y47233D01*
X307345Y47276D01*
X307347Y47275D01*
X307548Y47075D01*
X308166Y46819D01*
X308834D01*
X309452Y47075D01*
X309925Y47548D01*
X310181Y48166D01*
Y48834D01*
X309925Y49452D01*
X309452Y49925D01*
X309354Y49966D01*
X309454Y50466D01*
X314980D01*
Y40534D01*
X306671D01*
X306616Y40616D01*
X306161Y40920D01*
X305625Y41027D01*
X303375D01*
X302838Y40920D01*
X302384Y40616D01*
X302080Y40161D01*
X301973Y39625D01*
Y37875D01*
X302080Y37339D01*
X302384Y36884D01*
X302838Y36580D01*
X303375Y36473D01*
X305625D01*
X306161Y36580D01*
X306616Y36884D01*
X306671Y36966D01*
X314980D01*
Y34604D01*
X314560Y34184D01*
X289717D01*
X289562Y34684D01*
X289925Y35048D01*
X290181Y35666D01*
Y35879D01*
X291778Y37475D01*
X296053D01*
X296080Y37339D01*
X296384Y36884D01*
X296838Y36580D01*
X297375Y36473D01*
X299625D01*
X300162Y36580D01*
X300616Y36884D01*
X300920Y37339D01*
X301027Y37875D01*
Y39625D01*
X300920Y40161D01*
X300616Y40616D01*
X300162Y40920D01*
X299625Y41027D01*
X297375D01*
X296838Y40920D01*
X296384Y40616D01*
X296080Y40161D01*
X296053Y40025D01*
X291250D01*
X290762Y39928D01*
X290349Y39651D01*
X288379Y37681D01*
X288166D01*
X287548Y37425D01*
X287075Y36952D01*
X286819Y36334D01*
Y35666D01*
X287075Y35048D01*
X287438Y34684D01*
X287283Y34184D01*
X283217D01*
X283062Y34684D01*
X283425Y35048D01*
X283681Y35666D01*
Y36334D01*
X283425Y36952D01*
X283287Y37091D01*
Y40872D01*
X283787Y41079D01*
X283791Y41075D01*
X284409Y40819D01*
X285078D01*
X285696Y41075D01*
X286169Y41548D01*
X286424Y42166D01*
Y42834D01*
X286169Y43452D01*
X286018Y43603D01*
Y47015D01*
X289978Y50976D01*
X295879D01*
X295907Y50839D01*
D02*
G37*
%LPC*%
G36*
X37250Y194310D02*
Y190150D01*
X41410D01*
X41101Y191306D01*
X40451Y192431D01*
X39531Y193351D01*
X38406Y194001D01*
X37250Y194310D01*
D02*
G37*
G36*
X35750D02*
X34594Y194001D01*
X33469Y193351D01*
X32549Y192431D01*
X31899Y191306D01*
X31590Y190150D01*
X35750D01*
Y194310D01*
D02*
G37*
G36*
X363592Y195500D02*
X362408D01*
X361263Y195193D01*
X360237Y194601D01*
X359399Y193763D01*
X358807Y192737D01*
X358500Y191592D01*
Y190408D01*
X358807Y189263D01*
X359399Y188237D01*
X360237Y187399D01*
X361263Y186807D01*
X362408Y186500D01*
X363592D01*
X364737Y186807D01*
X365763Y187399D01*
X366601Y188237D01*
X367193Y189263D01*
X367500Y190408D01*
Y191592D01*
X367193Y192737D01*
X366601Y193763D01*
X365763Y194601D01*
X364737Y195193D01*
X363592Y195500D01*
D02*
G37*
G36*
X353592D02*
X352408D01*
X351263Y195193D01*
X350237Y194601D01*
X349399Y193763D01*
X348807Y192737D01*
X348500Y191592D01*
Y190408D01*
X348807Y189263D01*
X349399Y188237D01*
X350237Y187399D01*
X351263Y186807D01*
X352408Y186500D01*
X353592D01*
X354737Y186807D01*
X355763Y187399D01*
X356601Y188237D01*
X357193Y189263D01*
X357500Y190408D01*
Y191592D01*
X357193Y192737D01*
X356601Y193763D01*
X355763Y194601D01*
X354737Y195193D01*
X353592Y195500D01*
D02*
G37*
G36*
X343592D02*
X342408D01*
X341263Y195193D01*
X340237Y194601D01*
X339399Y193763D01*
X338807Y192737D01*
X338500Y191592D01*
Y190408D01*
X338807Y189263D01*
X339399Y188237D01*
X340237Y187399D01*
X341263Y186807D01*
X342408Y186500D01*
X343592D01*
X344737Y186807D01*
X345763Y187399D01*
X346601Y188237D01*
X347193Y189263D01*
X347500Y190408D01*
Y191592D01*
X347193Y192737D01*
X346601Y193763D01*
X345763Y194601D01*
X344737Y195193D01*
X343592Y195500D01*
D02*
G37*
G36*
X333592D02*
X332408D01*
X331263Y195193D01*
X330237Y194601D01*
X329399Y193763D01*
X328807Y192737D01*
X328500Y191592D01*
Y190408D01*
X328807Y189263D01*
X329399Y188237D01*
X330237Y187399D01*
X331263Y186807D01*
X332408Y186500D01*
X333592D01*
X334737Y186807D01*
X335763Y187399D01*
X336601Y188237D01*
X337193Y189263D01*
X337500Y190408D01*
Y191592D01*
X337193Y192737D01*
X336601Y193763D01*
X335763Y194601D01*
X334737Y195193D01*
X333592Y195500D01*
D02*
G37*
G36*
X323592D02*
X322408D01*
X321263Y195193D01*
X320237Y194601D01*
X319399Y193763D01*
X318807Y192737D01*
X318500Y191592D01*
Y190408D01*
X318807Y189263D01*
X319399Y188237D01*
X320237Y187399D01*
X321263Y186807D01*
X322408Y186500D01*
X323592D01*
X324737Y186807D01*
X325763Y187399D01*
X326601Y188237D01*
X327193Y189263D01*
X327500Y190408D01*
Y191592D01*
X327193Y192737D01*
X326601Y193763D01*
X325763Y194601D01*
X324737Y195193D01*
X323592Y195500D01*
D02*
G37*
G36*
X313592D02*
X312408D01*
X311263Y195193D01*
X310237Y194601D01*
X309399Y193763D01*
X308807Y192737D01*
X308500Y191592D01*
Y190408D01*
X308807Y189263D01*
X309399Y188237D01*
X310237Y187399D01*
X311263Y186807D01*
X312408Y186500D01*
X313592D01*
X314737Y186807D01*
X315763Y187399D01*
X316601Y188237D01*
X317193Y189263D01*
X317500Y190408D01*
Y191592D01*
X317193Y192737D01*
X316601Y193763D01*
X315763Y194601D01*
X314737Y195193D01*
X313592Y195500D01*
D02*
G37*
G36*
X303592D02*
X302408D01*
X301263Y195193D01*
X300237Y194601D01*
X299399Y193763D01*
X298807Y192737D01*
X298500Y191592D01*
Y190408D01*
X298807Y189263D01*
X299399Y188237D01*
X300237Y187399D01*
X301263Y186807D01*
X302408Y186500D01*
X303592D01*
X304737Y186807D01*
X305763Y187399D01*
X306601Y188237D01*
X307193Y189263D01*
X307500Y190408D01*
Y191592D01*
X307193Y192737D01*
X306601Y193763D01*
X305763Y194601D01*
X304737Y195193D01*
X303592Y195500D01*
D02*
G37*
G36*
X293592D02*
X292408D01*
X291263Y195193D01*
X290237Y194601D01*
X289399Y193763D01*
X288807Y192737D01*
X288500Y191592D01*
Y190408D01*
X288807Y189263D01*
X289399Y188237D01*
X290237Y187399D01*
X291263Y186807D01*
X292408Y186500D01*
X293592D01*
X294737Y186807D01*
X295763Y187399D01*
X296601Y188237D01*
X297193Y189263D01*
X297500Y190408D01*
Y191592D01*
X297193Y192737D01*
X296601Y193763D01*
X295763Y194601D01*
X294737Y195193D01*
X293592Y195500D01*
D02*
G37*
G36*
X175000Y195549D02*
X171000D01*
X170025Y195355D01*
X169198Y194802D01*
X168645Y193975D01*
X168451Y193000D01*
Y189000D01*
X168645Y188024D01*
X169198Y187198D01*
X170025Y186645D01*
X171000Y186451D01*
X175000D01*
X175976Y186645D01*
X176220Y186808D01*
X176661Y186573D01*
Y131545D01*
X158655Y113539D01*
X152418D01*
X152366Y113616D01*
X151911Y113920D01*
X151375Y114027D01*
X149625D01*
X149089Y113920D01*
X148634Y113616D01*
X148330Y113162D01*
X148223Y112625D01*
Y110375D01*
X148330Y109838D01*
X148634Y109384D01*
X149089Y109080D01*
X149196Y109058D01*
Y108056D01*
X148696Y107788D01*
X148603Y107850D01*
X147990Y107972D01*
Y104949D01*
X146490D01*
Y107972D01*
X145877Y107850D01*
X145315Y107475D01*
X144668Y107379D01*
X144200Y107472D01*
X142800D01*
X142332Y107379D01*
X141935Y107114D01*
X141670Y106717D01*
X141577Y106249D01*
Y103649D01*
X141670Y103181D01*
X141716Y103112D01*
Y102084D01*
X129784D01*
Y103750D01*
X129648Y104433D01*
X129262Y105012D01*
X128683Y105398D01*
X128502Y105434D01*
Y107066D01*
X128683Y107102D01*
X129262Y107488D01*
X129648Y108067D01*
X129784Y108750D01*
Y111250D01*
X129648Y111933D01*
X129262Y112512D01*
X128683Y112899D01*
X128000Y113034D01*
X125500D01*
X124817Y112899D01*
X124238Y112512D01*
X123852Y111933D01*
X123716Y111250D01*
Y108750D01*
X123852Y108067D01*
X124238Y107488D01*
X124817Y107102D01*
X124934Y107078D01*
Y105422D01*
X124817Y105398D01*
X124238Y105012D01*
X123852Y104433D01*
X123716Y103750D01*
Y101250D01*
X123852Y100567D01*
X124238Y99988D01*
X124817Y99602D01*
X124934Y99578D01*
Y97922D01*
X124817Y97899D01*
X124238Y97512D01*
X123852Y96933D01*
X123716Y96250D01*
Y93750D01*
X123852Y93067D01*
X124238Y92488D01*
X124817Y92102D01*
X125500Y91966D01*
X128000D01*
X128683Y92102D01*
X129262Y92488D01*
X129648Y93067D01*
X129784Y93750D01*
Y96250D01*
X129648Y96933D01*
X129262Y97512D01*
X128683Y97899D01*
X128502Y97934D01*
Y98516D01*
X142781D01*
X142800Y98023D01*
X142332Y97930D01*
X141935Y97665D01*
X141670Y97268D01*
X141577Y96800D01*
Y94200D01*
X141670Y93732D01*
X141935Y93335D01*
X142046Y93261D01*
Y92659D01*
X141773Y92477D01*
X141359Y91857D01*
X141213Y91125D01*
Y90750D01*
X144000D01*
X146787D01*
Y91125D01*
X146641Y91857D01*
X146227Y92477D01*
X145607Y92891D01*
X145357Y92941D01*
X145298Y93020D01*
X145168Y93488D01*
X145330Y93732D01*
X145423Y94200D01*
Y96800D01*
X145330Y97268D01*
X145065Y97665D01*
X144668Y97930D01*
X144200Y98023D01*
X144219Y98516D01*
X149407D01*
X150090Y98651D01*
X150669Y99038D01*
X152242Y100612D01*
X152242Y100612D01*
X152629Y101190D01*
X152765Y101873D01*
Y103112D01*
X152811Y103181D01*
X152904Y103649D01*
Y106249D01*
X152811Y106717D01*
X152765Y106786D01*
Y109461D01*
X159500D01*
X160280Y109616D01*
X160942Y110058D01*
X180142Y129258D01*
X180584Y129920D01*
X180739Y130700D01*
Y139517D01*
X181219Y139566D01*
X181475Y138948D01*
X181948Y138475D01*
X182566Y138219D01*
X183234D01*
X183852Y138475D01*
X184325Y138948D01*
X184581Y139566D01*
Y140234D01*
X184325Y140852D01*
X184274Y140903D01*
Y169897D01*
X184425Y170048D01*
X184681Y170666D01*
Y171334D01*
X184425Y171952D01*
X183952Y172425D01*
X183334Y172681D01*
X182666D01*
X182048Y172425D01*
X181575Y171952D01*
X181319Y171334D01*
Y170666D01*
X181575Y170048D01*
X181726Y169897D01*
Y141103D01*
X181475Y140852D01*
X181219Y140234D01*
X180739Y140283D01*
Y186609D01*
X181172Y186859D01*
X181263Y186807D01*
X182408Y186500D01*
X183592D01*
X184737Y186807D01*
X185763Y187399D01*
X186601Y188237D01*
X187193Y189263D01*
X187500Y190408D01*
Y191592D01*
X187193Y192737D01*
X186601Y193763D01*
X185763Y194601D01*
X184737Y195193D01*
X183592Y195500D01*
X182408D01*
X181263Y195193D01*
X180237Y194601D01*
X179399Y193763D01*
X178981Y193039D01*
X177541D01*
X177355Y193975D01*
X176802Y194802D01*
X175976Y195355D01*
X175000Y195549D01*
D02*
G37*
G36*
X207975Y190250D02*
X203750D01*
Y186025D01*
X204930Y186341D01*
X206070Y186999D01*
X207001Y187930D01*
X207659Y189070D01*
X207975Y190250D01*
D02*
G37*
G36*
X192250D02*
X188025D01*
X188341Y189070D01*
X188999Y187930D01*
X189930Y186999D01*
X191070Y186341D01*
X192250Y186025D01*
Y190250D01*
D02*
G37*
G36*
X27084Y193837D02*
X25916D01*
X24787Y193535D01*
X23776Y192950D01*
X22950Y192124D01*
X22365Y191113D01*
X22063Y189984D01*
Y188816D01*
X22365Y187687D01*
X22950Y186676D01*
X23776Y185849D01*
X24787Y185265D01*
X25916Y184963D01*
X27084D01*
X28213Y185265D01*
X29224Y185849D01*
X30051Y186676D01*
X30635Y187687D01*
X30937Y188816D01*
Y189984D01*
X30635Y191113D01*
X30051Y192124D01*
X29224Y192950D01*
X28213Y193535D01*
X27084Y193837D01*
D02*
G37*
G36*
X17084D02*
X15916D01*
X14787Y193535D01*
X13776Y192950D01*
X12949Y192124D01*
X12365Y191113D01*
X12063Y189984D01*
Y188816D01*
X12365Y187687D01*
X12949Y186676D01*
X13776Y185849D01*
X14787Y185265D01*
X15916Y184963D01*
X17084D01*
X18213Y185265D01*
X19224Y185849D01*
X20051Y186676D01*
X20635Y187687D01*
X20937Y188816D01*
Y189984D01*
X20635Y191113D01*
X20051Y192124D01*
X19224Y192950D01*
X18213Y193535D01*
X17084Y193837D01*
D02*
G37*
G36*
X7084D02*
X5916D01*
X4787Y193535D01*
X3776Y192950D01*
X2950Y192124D01*
X2365Y191113D01*
X2063Y189984D01*
Y188816D01*
X2365Y187687D01*
X2950Y186676D01*
X3776Y185849D01*
X4787Y185265D01*
X5916Y184963D01*
X7084D01*
X8213Y185265D01*
X9224Y185849D01*
X10051Y186676D01*
X10635Y187687D01*
X10937Y188816D01*
Y189984D01*
X10635Y191113D01*
X10051Y192124D01*
X9224Y192950D01*
X8213Y193535D01*
X7084Y193837D01*
D02*
G37*
G36*
X41410Y188650D02*
X37250D01*
Y184490D01*
X38406Y184799D01*
X39531Y185449D01*
X40451Y186369D01*
X41101Y187494D01*
X41410Y188650D01*
D02*
G37*
G36*
X35750D02*
X31590D01*
X31899Y187494D01*
X32549Y186369D01*
X33469Y185449D01*
X34594Y184799D01*
X35750Y184490D01*
Y188650D01*
D02*
G37*
G36*
X84727Y190732D02*
X84044Y190596D01*
X83466Y190209D01*
X83438Y190182D01*
X83052Y189603D01*
X82916Y188920D01*
Y187529D01*
X82450D01*
X81865Y187413D01*
X81369Y187081D01*
X81037Y186585D01*
X80921Y186000D01*
Y184000D01*
X81037Y183415D01*
X81369Y182919D01*
X81865Y182587D01*
X82450Y182471D01*
X86950D01*
X87535Y182587D01*
X88031Y182919D01*
X88363Y183415D01*
X88479Y184000D01*
Y186000D01*
X88363Y186585D01*
X88031Y187081D01*
X87535Y187413D01*
X86950Y187529D01*
X86484D01*
Y188810D01*
X86512Y188947D01*
X86376Y189630D01*
X85989Y190209D01*
X85410Y190596D01*
X84727Y190732D01*
D02*
G37*
G36*
X74700Y193684D02*
X74017Y193549D01*
X73438Y193162D01*
X73052Y192583D01*
X72916Y191900D01*
Y187529D01*
X72450D01*
X71865Y187413D01*
X71369Y187081D01*
X71037Y186585D01*
X70921Y186000D01*
Y184000D01*
X71037Y183415D01*
X71369Y182919D01*
X71865Y182587D01*
X72450Y182471D01*
X76950D01*
X77535Y182587D01*
X78031Y182919D01*
X78363Y183415D01*
X78479Y184000D01*
Y186000D01*
X78363Y186585D01*
X78031Y187081D01*
X77535Y187413D01*
X76950Y187529D01*
X76484D01*
Y191900D01*
X76349Y192583D01*
X75962Y193162D01*
X75383Y193549D01*
X74700Y193684D01*
D02*
G37*
G36*
X165890Y184547D02*
X165459D01*
Y179923D01*
X168114D01*
Y182323D01*
X167944Y183174D01*
X167462Y183895D01*
X166741Y184377D01*
X165890Y184547D01*
D02*
G37*
G36*
X163959D02*
X163528D01*
X162677Y184377D01*
X161955Y183895D01*
X161473Y183174D01*
X161304Y182323D01*
Y179923D01*
X163959D01*
Y184547D01*
D02*
G37*
G36*
X58450Y187529D02*
X53950D01*
X53365Y187413D01*
X52869Y187081D01*
X52537Y186585D01*
X52421Y186000D01*
Y184000D01*
X52537Y183415D01*
X52869Y182919D01*
X53365Y182587D01*
X53950Y182471D01*
X54416D01*
Y180300D01*
X54552Y179617D01*
X54938Y179038D01*
X55517Y178651D01*
X56200Y178516D01*
X56883Y178651D01*
X57462Y179038D01*
X57849Y179617D01*
X57984Y180300D01*
Y182471D01*
X58450D01*
X59035Y182587D01*
X59531Y182919D01*
X59863Y183415D01*
X59979Y184000D01*
Y186000D01*
X59863Y186585D01*
X59531Y187081D01*
X59035Y187413D01*
X58450Y187529D01*
D02*
G37*
G36*
X68450D02*
X63950D01*
X63365Y187413D01*
X62869Y187081D01*
X62537Y186585D01*
X62421Y186000D01*
Y184000D01*
X62537Y183415D01*
X62869Y182919D01*
X63365Y182587D01*
X63950Y182471D01*
X64537D01*
Y180179D01*
X64673Y179496D01*
X65060Y178917D01*
X65639Y178530D01*
X66321Y178394D01*
X67004Y178530D01*
X67583Y178917D01*
X67970Y179496D01*
X68106Y180179D01*
Y182471D01*
X68450D01*
X69035Y182587D01*
X69531Y182919D01*
X69863Y183415D01*
X69979Y184000D01*
Y186000D01*
X69863Y186585D01*
X69531Y187081D01*
X69035Y187413D01*
X68450Y187529D01*
D02*
G37*
G36*
X154037Y183421D02*
X153333D01*
X152653Y183239D01*
X152044Y182887D01*
X151546Y182389D01*
X151194Y181780D01*
X151012Y181100D01*
Y180396D01*
X151194Y179716D01*
X151546Y179107D01*
X152044Y178609D01*
X152653Y178257D01*
X153333Y178075D01*
X154037D01*
X154717Y178257D01*
X155326Y178609D01*
X155824Y179107D01*
X156176Y179716D01*
X156358Y180396D01*
Y181100D01*
X156176Y181780D01*
X155824Y182389D01*
X155326Y182887D01*
X154717Y183239D01*
X154037Y183421D01*
D02*
G37*
G36*
X168114Y178423D02*
X165459D01*
Y173800D01*
X165890D01*
X166741Y173969D01*
X167462Y174451D01*
X167944Y175173D01*
X168114Y176024D01*
Y178423D01*
D02*
G37*
G36*
X163959D02*
X161304D01*
Y176024D01*
X161473Y175173D01*
X161955Y174451D01*
X162677Y173969D01*
X163528Y173800D01*
X163959D01*
Y178423D01*
D02*
G37*
G36*
X126400Y187374D02*
X95800D01*
X95312Y187277D01*
X94899Y187001D01*
X85427Y177529D01*
X82450D01*
X81865Y177413D01*
X81369Y177081D01*
X81037Y176585D01*
X80921Y176000D01*
Y174000D01*
X81037Y173415D01*
X81369Y172919D01*
X81435Y172874D01*
X81283Y172374D01*
X78117D01*
X77965Y172874D01*
X78031Y172919D01*
X78363Y173415D01*
X78479Y174000D01*
Y176000D01*
X78363Y176585D01*
X78031Y177081D01*
X77535Y177413D01*
X76950Y177529D01*
X72450D01*
X71865Y177413D01*
X71369Y177081D01*
X71037Y176585D01*
X70921Y176000D01*
Y174000D01*
X71037Y173415D01*
X71369Y172919D01*
X71865Y172587D01*
X72450Y172471D01*
X73511D01*
X73523Y172412D01*
X73799Y171999D01*
X75223Y170574D01*
X75016Y170074D01*
X72928D01*
X69753Y173250D01*
X69863Y173415D01*
X69979Y174000D01*
Y176000D01*
X69863Y176585D01*
X69531Y177081D01*
X69035Y177413D01*
X68450Y177529D01*
X63950D01*
X63365Y177413D01*
X62869Y177081D01*
X62537Y176585D01*
X62421Y176000D01*
Y174000D01*
X62537Y173415D01*
X62869Y172919D01*
X63365Y172587D01*
X63950Y172471D01*
X66927D01*
X71499Y167899D01*
X71600Y167831D01*
X71595Y167233D01*
X71369Y167081D01*
X71037Y166585D01*
X70921Y166000D01*
Y164000D01*
X71037Y163415D01*
X71369Y162919D01*
X71865Y162587D01*
X72450Y162471D01*
X73426D01*
Y155007D01*
X73523Y154519D01*
X73799Y154106D01*
X77876Y150029D01*
Y149816D01*
X78132Y149198D01*
X78255Y149074D01*
X78048Y148574D01*
X61228D01*
X51875Y157928D01*
Y168872D01*
X55473Y172471D01*
X58450D01*
X59035Y172587D01*
X59531Y172919D01*
X59863Y173415D01*
X59979Y174000D01*
Y176000D01*
X59863Y176585D01*
X59531Y177081D01*
X59035Y177413D01*
X58450Y177529D01*
X53950D01*
X53365Y177413D01*
X52869Y177081D01*
X52537Y176585D01*
X52421Y176000D01*
Y174000D01*
X52537Y173415D01*
X52647Y173250D01*
X49699Y170301D01*
X49422Y169888D01*
X49325Y169400D01*
Y157400D01*
X49422Y156912D01*
X49699Y156499D01*
X59799Y146399D01*
X60212Y146123D01*
X60700Y146026D01*
X85775D01*
X86042Y145526D01*
X85706Y145022D01*
X85515Y144059D01*
Y129279D01*
X82921D01*
X82822Y129779D01*
X83052Y129875D01*
X83525Y130348D01*
X83781Y130966D01*
Y131634D01*
X83525Y132252D01*
X83052Y132725D01*
X82434Y132981D01*
X81766D01*
X81399Y132829D01*
X72918D01*
X72729Y132956D01*
X72295Y133042D01*
X68358D01*
X67925Y132956D01*
X67558Y132711D01*
X67313Y132343D01*
X67226Y131910D01*
Y130690D01*
X67313Y130257D01*
X67558Y129889D01*
X67925Y129644D01*
X68358Y129558D01*
X72183D01*
X72339Y129226D01*
X72359Y129074D01*
X71996Y128831D01*
X71206Y128042D01*
X68358D01*
X67925Y127956D01*
X67558Y127711D01*
X67313Y127343D01*
X67226Y126910D01*
Y125690D01*
X67313Y125257D01*
X67558Y124889D01*
X67925Y124644D01*
X68358Y124558D01*
X72295D01*
X72729Y124644D01*
X73096Y124889D01*
X73341Y125257D01*
X73427Y125690D01*
Y125937D01*
X73711Y126221D01*
X74659D01*
X74884Y125884D01*
X75339Y125580D01*
X75875Y125473D01*
X78125D01*
X78662Y125580D01*
X79116Y125884D01*
X79341Y126221D01*
X81279D01*
X81378Y125721D01*
X81148Y125625D01*
X80675Y125152D01*
X80419Y124534D01*
Y123866D01*
X80605Y123415D01*
Y106502D01*
X80105Y106403D01*
X79950Y106779D01*
X79789Y106939D01*
X79495Y107282D01*
X79718Y107664D01*
X79891Y107923D01*
X80037Y108654D01*
Y108780D01*
X77000D01*
X73963D01*
Y108654D01*
X74109Y107923D01*
X74324Y107601D01*
X74057Y107101D01*
X73389D01*
X73341Y107343D01*
X73096Y107711D01*
X72729Y107956D01*
X72295Y108042D01*
X68358D01*
X67925Y107956D01*
X67558Y107711D01*
X67467Y107574D01*
X66100D01*
X65612Y107477D01*
X65199Y107201D01*
X61368Y103370D01*
X61091Y102957D01*
X60994Y102469D01*
Y84427D01*
X60494Y84127D01*
X60125Y84200D01*
X58375D01*
X57838Y84093D01*
X57384Y83789D01*
X57301Y83665D01*
X56699D01*
X56616Y83789D01*
X56161Y84093D01*
X55625Y84200D01*
X53875D01*
X53338Y84093D01*
X52884Y83789D01*
X52580Y83335D01*
X52473Y82798D01*
Y80548D01*
X52580Y80012D01*
X52884Y79557D01*
X53338Y79253D01*
X53875Y79146D01*
X55625D01*
X56161Y79253D01*
X56616Y79557D01*
X56699Y79681D01*
X57301D01*
X57384Y79557D01*
X57838Y79253D01*
X58375Y79146D01*
X60125D01*
X60494Y79220D01*
X60994Y78920D01*
Y78154D01*
X61091Y77667D01*
X61368Y77253D01*
X63473Y75148D01*
Y73548D01*
X63580Y73012D01*
X63884Y72557D01*
X64338Y72253D01*
X64875Y72146D01*
X66625D01*
X67162Y72253D01*
X67616Y72557D01*
X67920Y73012D01*
X68027Y73548D01*
Y75798D01*
X67920Y76335D01*
X67616Y76789D01*
X67162Y77093D01*
X66625Y77200D01*
X65026D01*
X63543Y78682D01*
Y79229D01*
X63555Y79240D01*
X64043Y79450D01*
X64338Y79253D01*
X64875Y79146D01*
X66625D01*
X67162Y79253D01*
X67616Y79557D01*
X67920Y80012D01*
X68027Y80548D01*
Y82798D01*
X67920Y83335D01*
X67616Y83789D01*
X67162Y84093D01*
X66625Y84200D01*
X66439D01*
Y92082D01*
X66681Y92666D01*
Y93334D01*
X66425Y93952D01*
X66274Y94103D01*
Y95349D01*
X66774Y95398D01*
X66841Y95061D01*
X67197Y94529D01*
X67730Y94173D01*
X68358Y94048D01*
X69577D01*
Y96300D01*
Y98552D01*
X68358D01*
X67730Y98427D01*
X67197Y98071D01*
X66841Y97539D01*
X66774Y97202D01*
X66274Y97251D01*
Y98824D01*
X67359Y99909D01*
X67558Y99889D01*
X67925Y99644D01*
X68358Y99558D01*
X72295D01*
X72729Y99644D01*
X73096Y99889D01*
X73341Y100257D01*
X73427Y100690D01*
Y101910D01*
X73341Y102343D01*
X73096Y102711D01*
X72729Y102956D01*
X72295Y103042D01*
X68358D01*
X67925Y102956D01*
X67558Y102711D01*
X67467Y102575D01*
X66948D01*
X66460Y102478D01*
X66047Y102201D01*
X64099Y100253D01*
X64043Y100170D01*
X63543Y100322D01*
Y101941D01*
X66628Y105025D01*
X67467D01*
X67558Y104889D01*
X67925Y104644D01*
X68358Y104558D01*
X70771D01*
X70800Y104552D01*
X77422D01*
X77572Y104401D01*
X78190Y104145D01*
X78859D01*
X79477Y104401D01*
X79950Y104874D01*
X80105Y105250D01*
X80605Y105151D01*
Y102059D01*
X79341D01*
X79116Y102396D01*
X78662Y102700D01*
X78125Y102806D01*
X75875D01*
X75339Y102700D01*
X74884Y102396D01*
X74580Y101941D01*
X74473Y101405D01*
Y99655D01*
X74580Y99118D01*
X74884Y98663D01*
X75339Y98359D01*
X75875Y98253D01*
X78125D01*
X78662Y98359D01*
X79116Y98663D01*
X79341Y99000D01*
X85515D01*
Y88941D01*
X85706Y87978D01*
X86252Y87161D01*
X87068Y86616D01*
X88032Y86424D01*
X91969D01*
X92932Y86616D01*
X93748Y87161D01*
X94294Y87978D01*
X94485Y88941D01*
Y106658D01*
X94294Y107621D01*
X93748Y108437D01*
X92932Y108983D01*
X91969Y109174D01*
X88032D01*
X87068Y108983D01*
X86252Y108437D01*
X85706Y107621D01*
X85515Y106658D01*
Y102059D01*
X83664D01*
Y123583D01*
X83781Y123866D01*
Y124534D01*
X83525Y125152D01*
X83052Y125625D01*
X82822Y125721D01*
X82921Y126221D01*
X85539D01*
X85706Y125379D01*
X86252Y124563D01*
X87068Y124017D01*
X88032Y123826D01*
X91969D01*
X92932Y124017D01*
X93748Y124563D01*
X94294Y125379D01*
X94485Y126342D01*
Y144059D01*
X94294Y145022D01*
X93958Y145526D01*
X94225Y146026D01*
X105252D01*
X105301Y145526D01*
X104589Y145384D01*
X103770Y144836D01*
X103222Y144017D01*
X103030Y143051D01*
Y142325D01*
X107228D01*
X111426D01*
Y143051D01*
X111234Y144017D01*
X110687Y144836D01*
X109868Y145384D01*
X109156Y145526D01*
X109205Y146026D01*
X123172D01*
X125552Y143646D01*
X125360Y143184D01*
X124589D01*
X124101Y143087D01*
X123687Y142811D01*
X123411Y142397D01*
X123314Y141909D01*
Y136909D01*
X123411Y136422D01*
X123687Y136008D01*
X123769Y135954D01*
X123975Y135452D01*
X123719Y134834D01*
Y134166D01*
X123975Y133548D01*
X124448Y133075D01*
X125066Y132819D01*
X125734D01*
X126352Y133075D01*
X126825Y133548D01*
X127081Y134166D01*
Y134834D01*
X126861Y135366D01*
X126825Y135452D01*
X126982Y136003D01*
X126990Y136008D01*
X127240Y136382D01*
X127504Y136409D01*
X127768Y136382D01*
X128018Y136008D01*
X128022Y136006D01*
X128175Y135452D01*
X128141Y135371D01*
X127919Y134834D01*
Y134166D01*
X128175Y133548D01*
X128648Y133075D01*
X129266Y132819D01*
X129934D01*
X130552Y133075D01*
X131025Y133548D01*
X131281Y134166D01*
Y134834D01*
X131025Y135452D01*
X131234Y135951D01*
X131321Y136008D01*
X131570Y136382D01*
X131835Y136409D01*
X132099Y136382D01*
X132349Y136008D01*
X132394Y135978D01*
X132575Y135452D01*
X132319Y134834D01*
Y134166D01*
X132575Y133548D01*
X133048Y133075D01*
X133666Y132819D01*
X134334D01*
X134952Y133075D01*
X135425Y133548D01*
X135681Y134166D01*
Y134834D01*
X135425Y135452D01*
X135606Y135978D01*
X135651Y136008D01*
X135792Y136218D01*
X136292Y136067D01*
Y127978D01*
X136080Y127662D01*
X135973Y127125D01*
Y126086D01*
X135956Y126000D01*
Y110750D01*
X136130Y109872D01*
X136628Y109128D01*
X136878Y108878D01*
X137622Y108380D01*
X138500Y108206D01*
X139378Y108380D01*
X140122Y108878D01*
X140620Y109622D01*
X140736Y110210D01*
X141246D01*
X141359Y109643D01*
X141773Y109023D01*
X142393Y108609D01*
X143125Y108463D01*
X143250D01*
Y111500D01*
Y114537D01*
X143125D01*
X142393Y114391D01*
X141773Y113977D01*
X141359Y113357D01*
X141213Y112625D01*
Y110956D01*
X140713Y110906D01*
X140620Y111378D01*
X140544Y111491D01*
Y116379D01*
X142024Y117859D01*
X154400D01*
X154470Y117888D01*
X154717D01*
X155027Y117950D01*
X155092Y117937D01*
X155188Y117792D01*
X155649Y117484D01*
X155837Y117447D01*
Y119653D01*
X156587D01*
Y120404D01*
X158401D01*
Y120510D01*
X158293Y121054D01*
X158142Y121280D01*
X158409Y121780D01*
X160861D01*
X160875Y121748D01*
X161348Y121275D01*
X161966Y121019D01*
X162634D01*
X163252Y121275D01*
X163725Y121748D01*
X163981Y122366D01*
Y123034D01*
X163725Y123652D01*
X163252Y124125D01*
X162634Y124381D01*
X161966D01*
X161348Y124125D01*
X161042Y123820D01*
X154653D01*
X154440Y124092D01*
X154659Y124581D01*
X154717D01*
X155027Y124643D01*
X155066Y124669D01*
X155549Y124846D01*
X155844Y124648D01*
X156193Y124579D01*
X156980D01*
X157329Y124648D01*
X157625Y124846D01*
X157822Y125142D01*
X157859Y125327D01*
X163547D01*
X163937Y125405D01*
X164267Y125626D01*
X174221Y135579D01*
X174442Y135910D01*
X174520Y136300D01*
Y160161D01*
X174925Y160567D01*
X175181Y161185D01*
Y161853D01*
X174925Y162471D01*
X174452Y162944D01*
X173834Y163200D01*
X173166D01*
X172548Y162944D01*
X172075Y162471D01*
X171819Y161853D01*
Y161185D01*
X172075Y160567D01*
X172138Y160503D01*
X172117Y160398D01*
X171547Y160093D01*
X171334Y160181D01*
X170666D01*
X170048Y159925D01*
X169575Y159452D01*
X169319Y158834D01*
Y158166D01*
X169575Y157548D01*
X169980Y157142D01*
Y137622D01*
X162378Y130020D01*
X156000D01*
X155998Y130519D01*
X156616Y130775D01*
X157089Y131248D01*
X157345Y131866D01*
Y132534D01*
X157089Y133152D01*
X156673Y133568D01*
Y135689D01*
X156891Y135732D01*
X157305Y136008D01*
X157555Y136382D01*
X157819Y136409D01*
X158083Y136382D01*
X158333Y136008D01*
X158747Y135732D01*
X159234Y135635D01*
X160734D01*
X161222Y135732D01*
X161635Y136008D01*
X161912Y136422D01*
X162009Y136909D01*
Y137468D01*
X162450Y137703D01*
X162677Y137552D01*
X163528Y137382D01*
X163959D01*
Y141378D01*
Y145373D01*
X163528D01*
X162677Y145204D01*
X161955Y144722D01*
X161473Y144001D01*
X161379Y143527D01*
X161245Y143152D01*
X160812Y143169D01*
X160734Y143184D01*
X159234D01*
X158747Y143087D01*
X158333Y142811D01*
X158083Y142436D01*
X157819Y142409D01*
X157555Y142436D01*
X157305Y142811D01*
X157119Y142935D01*
X157015Y143512D01*
X157027Y143552D01*
X157281Y144166D01*
Y144834D01*
X157025Y145452D01*
X156552Y145925D01*
X155934Y146181D01*
X155266D01*
X154648Y145925D01*
X154175Y145452D01*
X153919Y144834D01*
Y144166D01*
X154175Y143548D01*
X154206Y143516D01*
X154124Y142892D01*
X154002Y142811D01*
X153752Y142436D01*
X153488Y142409D01*
X153224Y142436D01*
X152974Y142811D01*
X152597Y143062D01*
Y161177D01*
X152500Y161665D01*
X152224Y162078D01*
X127301Y187001D01*
X126888Y187277D01*
X126400Y187374D01*
D02*
G37*
G36*
X56534Y171581D02*
X55866D01*
X55248Y171325D01*
X54775Y170852D01*
X54519Y170234D01*
Y169566D01*
X54775Y168948D01*
X55248Y168475D01*
X55866Y168219D01*
X56534D01*
X57152Y168475D01*
X57303Y168625D01*
X59522D01*
X62421Y165727D01*
Y164000D01*
X62537Y163415D01*
X62869Y162919D01*
X63365Y162587D01*
X63950Y162471D01*
X68450D01*
X69035Y162587D01*
X69531Y162919D01*
X69863Y163415D01*
X69979Y164000D01*
Y166000D01*
X69863Y166585D01*
X69531Y167081D01*
X69035Y167413D01*
X68450Y167529D01*
X64223D01*
X60951Y170801D01*
X60538Y171078D01*
X60050Y171175D01*
X57303D01*
X57152Y171325D01*
X56534Y171581D01*
D02*
G37*
G36*
X14372Y161522D02*
X12313D01*
Y159028D01*
X17300D01*
X17264Y159302D01*
X16965Y160025D01*
X16489Y160645D01*
X15869Y161120D01*
X15147Y161420D01*
X14372Y161522D01*
D02*
G37*
G36*
X11313D02*
X9254D01*
X8479Y161420D01*
X7757Y161120D01*
X7137Y160645D01*
X6661Y160025D01*
X6362Y159302D01*
X6326Y159028D01*
X11313D01*
Y161522D01*
D02*
G37*
G36*
X31695Y161522D02*
X30226D01*
Y159028D01*
X34623D01*
X34587Y159302D01*
X34288Y160025D01*
X33812Y160645D01*
X33192Y161120D01*
X32470Y161420D01*
X31695Y161522D01*
D02*
G37*
G36*
X29226D02*
X28159D01*
Y159028D01*
X29226D01*
Y161522D01*
D02*
G37*
G36*
X27159Y161455D02*
X26910Y161422D01*
X26212Y161133D01*
X25613Y160673D01*
X25152Y160073D01*
X24863Y159375D01*
X24817Y159028D01*
X27159D01*
Y161455D01*
D02*
G37*
G36*
Y158028D02*
X24765D01*
Y157846D01*
X27159D01*
Y158028D01*
D02*
G37*
G36*
X17300Y158028D02*
X12313D01*
Y155533D01*
X14372D01*
X15147Y155635D01*
X15869Y155935D01*
X16489Y156410D01*
X16965Y157030D01*
X17264Y157753D01*
X17300Y158028D01*
D02*
G37*
G36*
X11313D02*
X6326D01*
X6362Y157753D01*
X6661Y157030D01*
X7137Y156410D01*
X7757Y155935D01*
X8479Y155635D01*
X9254Y155533D01*
X11313D01*
Y158028D01*
D02*
G37*
G36*
X371250Y158250D02*
X367025D01*
X367341Y157070D01*
X367999Y155930D01*
X368930Y154999D01*
X370070Y154341D01*
X371250Y154025D01*
Y158250D01*
D02*
G37*
G36*
X58450Y167529D02*
X53950D01*
X53365Y167413D01*
X52869Y167081D01*
X52537Y166585D01*
X52421Y166000D01*
Y164000D01*
X52537Y163415D01*
X52869Y162919D01*
X53365Y162587D01*
X53950Y162471D01*
X54926D01*
Y158800D01*
X55023Y158312D01*
X55299Y157899D01*
X58319Y154879D01*
Y154666D01*
X58575Y154048D01*
X59048Y153575D01*
X59666Y153319D01*
X60334D01*
X60952Y153575D01*
X61425Y154048D01*
X61681Y154666D01*
Y155334D01*
X61425Y155952D01*
X60952Y156425D01*
X60334Y156681D01*
X60121D01*
X57474Y159328D01*
Y162471D01*
X58450D01*
X59035Y162587D01*
X59531Y162919D01*
X59863Y163415D01*
X59979Y164000D01*
Y166000D01*
X59863Y166585D01*
X59531Y167081D01*
X59035Y167413D01*
X58450Y167529D01*
D02*
G37*
G36*
X33762Y153451D02*
X32687D01*
Y152335D01*
X35042D01*
X34982Y152635D01*
X34696Y153064D01*
X34267Y153350D01*
X33762Y153451D01*
D02*
G37*
G36*
X258250Y152750D02*
X256213D01*
Y152375D01*
X256359Y151643D01*
X256773Y151023D01*
X257393Y150609D01*
X258125Y150463D01*
X258250D01*
Y152750D01*
D02*
G37*
G36*
X34623Y158028D02*
X29726D01*
X28159D01*
Y157346D01*
X27659D01*
Y156846D01*
X24713D01*
X24596Y156526D01*
X24204D01*
X24105Y156484D01*
X23997D01*
X23635Y156334D01*
X23559Y156258D01*
X23460Y156217D01*
X23183Y155940D01*
X23142Y155841D01*
X23066Y155765D01*
X22916Y155403D01*
Y155295D01*
X22874Y155196D01*
Y154804D01*
X22916Y154705D01*
Y154597D01*
X23066Y154235D01*
X23142Y154159D01*
X23183Y154060D01*
X23460Y153783D01*
X23559Y153742D01*
X23635Y153666D01*
X23997Y153516D01*
X24171Y153122D01*
X26872D01*
Y152122D01*
X24214D01*
X24274Y151821D01*
X24560Y151393D01*
X24743Y151271D01*
X24745Y151259D01*
X24683Y150949D01*
Y150358D01*
X24745Y150048D01*
X24750Y150041D01*
X24880Y149669D01*
X24750Y149298D01*
X24745Y149291D01*
X24683Y148980D01*
Y148390D01*
X24693Y148338D01*
X24351Y147838D01*
X23788D01*
X23704Y147894D01*
X23216Y147991D01*
X21216D01*
X20729Y147894D01*
X20315Y147618D01*
X18351Y145654D01*
X18075Y145240D01*
X17978Y144752D01*
Y139046D01*
X17959Y139000D01*
Y133500D01*
X17976Y133459D01*
X17961Y133385D01*
Y124000D01*
X18116Y123220D01*
X18558Y122558D01*
X24058Y117058D01*
X24058Y117058D01*
X24720Y116616D01*
X25500Y116461D01*
X37000D01*
X37780Y116616D01*
X38442Y117058D01*
X43442Y122058D01*
X43884Y122720D01*
X44039Y123500D01*
Y136000D01*
X43884Y136780D01*
X43442Y137442D01*
X42992Y137743D01*
X42983Y137815D01*
X43085Y138282D01*
X43552Y138475D01*
X44025Y138948D01*
X44281Y139566D01*
Y140234D01*
X44025Y140852D01*
X43552Y141325D01*
X42934Y141581D01*
X42266D01*
X41921Y141980D01*
X42081Y142366D01*
Y143034D01*
X41825Y143652D01*
X41352Y144125D01*
X41281Y144155D01*
X41381Y144655D01*
X43043D01*
X45726Y141972D01*
Y137303D01*
X45575Y137152D01*
X45319Y136534D01*
Y135866D01*
X45575Y135248D01*
X46048Y134775D01*
X46666Y134519D01*
X47334D01*
X47952Y134775D01*
X48425Y135248D01*
X48681Y135866D01*
Y136534D01*
X48425Y137152D01*
X48274Y137303D01*
Y142500D01*
X48177Y142988D01*
X47901Y143401D01*
X44472Y146830D01*
X44059Y147107D01*
X43571Y147204D01*
X35429D01*
X34945Y147107D01*
X34937Y147111D01*
X34880Y147149D01*
X34743Y147246D01*
X34562Y147551D01*
X34573Y147602D01*
Y148193D01*
X34511Y148503D01*
X34506Y148510D01*
X34376Y148882D01*
X34506Y149253D01*
X34511Y149261D01*
X34573Y149571D01*
Y150161D01*
X34511Y150472D01*
X34513Y150484D01*
X34696Y150605D01*
X34982Y151034D01*
X35042Y151335D01*
X32187D01*
Y151835D01*
X31687D01*
Y153451D01*
X30612D01*
X30107Y153350D01*
X29634Y153556D01*
X29551Y153901D01*
X29706Y154020D01*
X30167Y154620D01*
X30456Y155318D01*
X30484Y155533D01*
X31695D01*
X32470Y155635D01*
X33192Y155935D01*
X33812Y156410D01*
X34288Y157030D01*
X34587Y157753D01*
X34623Y158028D01*
D02*
G37*
G36*
X372592Y153500D02*
X371408D01*
X370263Y153193D01*
X369237Y152601D01*
X368399Y151763D01*
X367807Y150737D01*
X367500Y149592D01*
Y148408D01*
X367807Y147263D01*
X368399Y146237D01*
X369237Y145399D01*
X370263Y144807D01*
X371408Y144500D01*
X372592D01*
X373737Y144807D01*
X374763Y145399D01*
X375601Y146237D01*
X376193Y147263D01*
X376500Y148408D01*
Y149592D01*
X376193Y150737D01*
X375601Y151763D01*
X374763Y152601D01*
X373737Y153193D01*
X372592Y153500D01*
D02*
G37*
G36*
X165890Y145373D02*
X165459D01*
Y142128D01*
X168114D01*
Y143150D01*
X167944Y144001D01*
X167462Y144722D01*
X166741Y145204D01*
X165890Y145373D01*
D02*
G37*
G36*
X197250Y143410D02*
Y139250D01*
X201410D01*
X201101Y140406D01*
X200451Y141531D01*
X199531Y142451D01*
X198406Y143101D01*
X197250Y143410D01*
D02*
G37*
G36*
X195750D02*
X194594Y143101D01*
X193469Y142451D01*
X192549Y141531D01*
X191899Y140406D01*
X191590Y139250D01*
X195750D01*
Y143410D01*
D02*
G37*
G36*
X187334Y172681D02*
X186666D01*
X186048Y172425D01*
X185575Y171952D01*
X185319Y171334D01*
Y170666D01*
X185575Y170048D01*
X185725Y169897D01*
Y141003D01*
X185575Y140852D01*
X185319Y140234D01*
Y139566D01*
X185575Y138948D01*
X186048Y138475D01*
X186666Y138219D01*
X187334D01*
X187952Y138475D01*
X188425Y138948D01*
X188681Y139566D01*
Y140234D01*
X188425Y140852D01*
X188275Y141003D01*
Y169897D01*
X188425Y170048D01*
X188681Y170666D01*
Y171334D01*
X188425Y171952D01*
X187952Y172425D01*
X187334Y172681D01*
D02*
G37*
G36*
X111426Y140825D02*
X107978D01*
Y137574D01*
X108902D01*
X109868Y137766D01*
X110687Y138313D01*
X111234Y139132D01*
X111426Y140098D01*
Y140825D01*
D02*
G37*
G36*
X168114Y140628D02*
X165459D01*
Y137382D01*
X165890D01*
X166741Y137552D01*
X167462Y138034D01*
X167944Y138755D01*
X168114Y139606D01*
Y140628D01*
D02*
G37*
G36*
X372592Y143500D02*
X371408D01*
X370263Y143193D01*
X369237Y142601D01*
X368399Y141763D01*
X367807Y140737D01*
X367500Y139592D01*
Y138408D01*
X367807Y137263D01*
X368399Y136237D01*
X369237Y135399D01*
X370263Y134807D01*
X371408Y134500D01*
X372592D01*
X373737Y134807D01*
X374763Y135399D01*
X375601Y136237D01*
X376193Y137263D01*
X376500Y138408D01*
Y139592D01*
X376193Y140737D01*
X375601Y141763D01*
X374763Y142601D01*
X373737Y143193D01*
X372592Y143500D01*
D02*
G37*
G36*
X206834Y157662D02*
X206166D01*
X205548Y157406D01*
X205075Y156933D01*
X204819Y156316D01*
Y155647D01*
X205075Y155029D01*
X205225Y154878D01*
Y142752D01*
X204787Y142635D01*
X203776Y142051D01*
X202950Y141224D01*
X202365Y140213D01*
X202063Y139084D01*
Y137916D01*
X202365Y136787D01*
X202950Y135776D01*
X203776Y134950D01*
X204787Y134365D01*
X205916Y134063D01*
X207084D01*
X208213Y134365D01*
X209224Y134950D01*
X210051Y135776D01*
X210635Y136787D01*
X210937Y137916D01*
Y139084D01*
X210635Y140213D01*
X210051Y141224D01*
X209224Y142051D01*
X208213Y142635D01*
X207774Y142752D01*
Y154878D01*
X207925Y155029D01*
X208181Y155647D01*
Y156316D01*
X207925Y156933D01*
X207452Y157406D01*
X206834Y157662D01*
D02*
G37*
G36*
X201410Y137750D02*
X197250D01*
Y133590D01*
X198406Y133899D01*
X199531Y134549D01*
X200451Y135469D01*
X201101Y136594D01*
X201410Y137750D01*
D02*
G37*
G36*
X195750D02*
X191590D01*
X191899Y136594D01*
X192549Y135469D01*
X193469Y134549D01*
X194594Y133899D01*
X195750Y133590D01*
Y137750D01*
D02*
G37*
G36*
X50642Y133042D02*
X46705D01*
X46271Y132956D01*
X45904Y132711D01*
X45659Y132343D01*
X45573Y131910D01*
Y130690D01*
X45659Y130257D01*
X45904Y129889D01*
X46271Y129644D01*
X46705Y129558D01*
X50642D01*
X51075Y129644D01*
X51442Y129889D01*
X51688Y130257D01*
X51774Y130690D01*
Y131910D01*
X51688Y132343D01*
X51442Y132711D01*
X51075Y132956D01*
X50642Y133042D01*
D02*
G37*
G36*
X131000Y129037D02*
X130875D01*
X130143Y128891D01*
X129523Y128477D01*
X129109Y127857D01*
X128996Y127289D01*
X128599Y127117D01*
X128463Y127114D01*
X128352Y127225D01*
X127734Y127481D01*
X127066D01*
X126448Y127225D01*
X126324Y127101D01*
X125497D01*
X125420Y127488D01*
X125116Y127943D01*
X124662Y128247D01*
X124125Y128354D01*
X122375D01*
X121838Y128247D01*
X121384Y127943D01*
X121080Y127488D01*
X120973Y126952D01*
Y124702D01*
X121080Y124165D01*
X121384Y123710D01*
X121811Y123425D01*
X121838Y123220D01*
Y123107D01*
X121811Y122902D01*
X121384Y122616D01*
X121080Y122161D01*
X120973Y121625D01*
Y119375D01*
X121080Y118839D01*
X121384Y118384D01*
X121838Y118080D01*
X122375Y117973D01*
X124125D01*
X124662Y118080D01*
X125116Y118384D01*
X125420Y118839D01*
X125527Y119375D01*
Y119429D01*
X126093D01*
X126448Y119075D01*
X127066Y118819D01*
X127734D01*
X128352Y119075D01*
X128487Y119209D01*
X129029Y119044D01*
X129109Y118643D01*
X129523Y118023D01*
X130143Y117609D01*
X130875Y117463D01*
X131000D01*
Y120500D01*
X131750D01*
Y121250D01*
X134537D01*
Y121625D01*
X134391Y122357D01*
X134002Y122939D01*
X133942Y123093D01*
Y123407D01*
X134002Y123561D01*
X134391Y124143D01*
X134537Y124875D01*
Y125250D01*
X131750D01*
Y126000D01*
X131000D01*
Y129037D01*
D02*
G37*
G36*
X132625D02*
X132500D01*
Y126750D01*
X134537D01*
Y127125D01*
X134391Y127857D01*
X133977Y128477D01*
X133357Y128891D01*
X132625Y129037D01*
D02*
G37*
G36*
X14372Y127467D02*
X12313D01*
Y124972D01*
X17300D01*
X17264Y125247D01*
X16965Y125970D01*
X16489Y126590D01*
X15869Y127065D01*
X15147Y127365D01*
X14372Y127467D01*
D02*
G37*
G36*
X11313D02*
X9254D01*
X8479Y127365D01*
X7757Y127065D01*
X7137Y126590D01*
X6661Y125970D01*
X6362Y125247D01*
X6326Y124972D01*
X11313D01*
Y127467D01*
D02*
G37*
G36*
X50642Y128042D02*
X46705D01*
X46271Y127956D01*
X45904Y127711D01*
X45659Y127343D01*
X45573Y126910D01*
Y125690D01*
X45659Y125257D01*
X45904Y124889D01*
X46271Y124644D01*
X46705Y124558D01*
X50642D01*
X51075Y124644D01*
X51442Y124889D01*
X51688Y125257D01*
X51774Y125690D01*
Y126910D01*
X51688Y127343D01*
X51442Y127711D01*
X51075Y127956D01*
X50642Y128042D01*
D02*
G37*
G36*
X372592Y133500D02*
X371408D01*
X370263Y133193D01*
X369237Y132601D01*
X368399Y131763D01*
X367807Y130737D01*
X367500Y129592D01*
Y128408D01*
X367807Y127263D01*
X368399Y126237D01*
X369237Y125399D01*
X370263Y124807D01*
X371408Y124500D01*
X372592D01*
X373737Y124807D01*
X374763Y125399D01*
X375601Y126237D01*
X376193Y127263D01*
X376500Y128408D01*
Y129592D01*
X376193Y130737D01*
X375601Y131763D01*
X374763Y132601D01*
X373737Y133193D01*
X372592Y133500D01*
D02*
G37*
G36*
X72295Y123042D02*
X68358D01*
X67925Y122956D01*
X67558Y122711D01*
X67467Y122574D01*
X66503D01*
X66352Y122725D01*
X65734Y122981D01*
X65066D01*
X64448Y122725D01*
X63975Y122252D01*
X63719Y121634D01*
Y120966D01*
X63975Y120348D01*
X64448Y119875D01*
X65066Y119619D01*
X65734D01*
X66352Y119875D01*
X66503Y120026D01*
X67467D01*
X67558Y119889D01*
X67925Y119644D01*
X68358Y119558D01*
X72295D01*
X72729Y119644D01*
X73096Y119889D01*
X73341Y120257D01*
X73427Y120690D01*
Y121910D01*
X73341Y122343D01*
X73096Y122711D01*
X72729Y122956D01*
X72295Y123042D01*
D02*
G37*
G36*
X78125Y124037D02*
X77750D01*
Y122000D01*
X80037D01*
Y122125D01*
X79891Y122857D01*
X79477Y123477D01*
X78857Y123891D01*
X78125Y124037D01*
D02*
G37*
G36*
X76250D02*
X75875D01*
X75143Y123891D01*
X74523Y123477D01*
X74109Y122857D01*
X73963Y122125D01*
Y122000D01*
X76250D01*
Y124037D01*
D02*
G37*
G36*
X97834Y144381D02*
X97166D01*
X96548Y144125D01*
X96075Y143652D01*
X95819Y143034D01*
Y142366D01*
X96075Y141748D01*
X96548Y141275D01*
X97166Y141019D01*
X97379D01*
X113299Y125099D01*
X113712Y124822D01*
X114200Y124725D01*
X114473D01*
Y124702D01*
X114580Y124165D01*
X114884Y123710D01*
X115311Y123425D01*
X115339Y123220D01*
Y123107D01*
X115311Y122902D01*
X114884Y122616D01*
X114580Y122161D01*
X114503Y121774D01*
X113828D01*
X99181Y136421D01*
Y136634D01*
X98925Y137252D01*
X98452Y137725D01*
X97834Y137981D01*
X97166D01*
X96548Y137725D01*
X96075Y137252D01*
X95819Y136634D01*
Y135966D01*
X96075Y135348D01*
X96548Y134875D01*
X97166Y134619D01*
X97379D01*
X112399Y119599D01*
X112812Y119323D01*
X113300Y119226D01*
X114503D01*
X114580Y118839D01*
X114884Y118384D01*
X115339Y118080D01*
X115875Y117973D01*
X117625D01*
X118161Y118080D01*
X118616Y118384D01*
X118920Y118839D01*
X119027Y119375D01*
Y121625D01*
X118920Y122161D01*
X118616Y122616D01*
X118189Y122902D01*
X118161Y123107D01*
Y123220D01*
X118189Y123425D01*
X118616Y123710D01*
X118920Y124165D01*
X119027Y124702D01*
Y126952D01*
X118920Y127488D01*
X118616Y127943D01*
X118161Y128247D01*
X117625Y128354D01*
X115875D01*
X115339Y128247D01*
X114884Y127943D01*
X114837Y127873D01*
X114193Y127809D01*
X104786Y137217D01*
X105032Y137678D01*
X105555Y137574D01*
X106478D01*
Y140825D01*
X103030D01*
Y140098D01*
X103134Y139575D01*
X102673Y139329D01*
X99181Y142821D01*
Y143034D01*
X98925Y143652D01*
X98452Y144125D01*
X97834Y144381D01*
D02*
G37*
G36*
X17300Y123972D02*
X12313D01*
Y121478D01*
X14372D01*
X15147Y121580D01*
X15869Y121879D01*
X16489Y122355D01*
X16965Y122975D01*
X17264Y123697D01*
X17300Y123972D01*
D02*
G37*
G36*
X11313D02*
X6326D01*
X6362Y123697D01*
X6661Y122975D01*
X7137Y122355D01*
X7757Y121879D01*
X8479Y121580D01*
X9254Y121478D01*
X11313D01*
Y123972D01*
D02*
G37*
G36*
X50642Y123042D02*
X46705D01*
X46271Y122956D01*
X45904Y122711D01*
X45659Y122343D01*
X45573Y121910D01*
Y120690D01*
X45659Y120257D01*
X45904Y119889D01*
X46271Y119644D01*
X46705Y119558D01*
X50642D01*
X51075Y119644D01*
X51442Y119889D01*
X51688Y120257D01*
X51774Y120690D01*
Y121910D01*
X51688Y122343D01*
X51442Y122711D01*
X51075Y122956D01*
X50642Y123042D01*
D02*
G37*
G36*
X134537Y119750D02*
X132500D01*
Y117463D01*
X132625D01*
X133357Y117609D01*
X133977Y118023D01*
X134391Y118643D01*
X134537Y119375D01*
Y119750D01*
D02*
G37*
G36*
X158401Y118904D02*
X157337D01*
Y117447D01*
X157524Y117484D01*
X157985Y117792D01*
X158293Y118253D01*
X158401Y118797D01*
Y118904D01*
D02*
G37*
G36*
X50642Y118042D02*
X46705D01*
X46271Y117956D01*
X45904Y117711D01*
X45659Y117343D01*
X45573Y116910D01*
Y115690D01*
X45659Y115257D01*
X45904Y114889D01*
X46271Y114644D01*
X46705Y114558D01*
X50642D01*
X51075Y114644D01*
X51442Y114889D01*
X51688Y115257D01*
X51774Y115690D01*
Y116910D01*
X51688Y117343D01*
X51442Y117711D01*
X51075Y117956D01*
X50642Y118042D01*
D02*
G37*
G36*
X372592Y123500D02*
X371408D01*
X370263Y123193D01*
X369237Y122601D01*
X368399Y121763D01*
X367807Y120737D01*
X367500Y119592D01*
Y118408D01*
X367807Y117263D01*
X368399Y116237D01*
X369237Y115399D01*
X370263Y114807D01*
X371408Y114500D01*
X372592D01*
X373737Y114807D01*
X374763Y115399D01*
X375601Y116237D01*
X376193Y117263D01*
X376500Y118408D01*
Y119592D01*
X376193Y120737D01*
X375601Y121763D01*
X374763Y122601D01*
X373737Y123193D01*
X372592Y123500D01*
D02*
G37*
G36*
X144875Y114537D02*
X144750D01*
Y112250D01*
X146787D01*
Y112625D01*
X146641Y113357D01*
X146227Y113977D01*
X145607Y114391D01*
X144875Y114537D01*
D02*
G37*
G36*
X78125Y112316D02*
X77750D01*
Y110280D01*
X80037D01*
Y110405D01*
X79891Y111136D01*
X79477Y111756D01*
X78857Y112171D01*
X78125Y112316D01*
D02*
G37*
G36*
X48469Y193885D02*
X44532D01*
X43568Y193694D01*
X42752Y193148D01*
X42206Y192332D01*
X42015Y191368D01*
Y187432D01*
X42206Y186468D01*
X42752Y185652D01*
X43568Y185106D01*
X44532Y184915D01*
X44716D01*
Y152900D01*
X44851Y152217D01*
X45238Y151638D01*
X55716Y141161D01*
Y111300D01*
Y101939D01*
X51861Y98084D01*
X48673D01*
X48462Y98042D01*
X46705D01*
X46271Y97956D01*
X45904Y97711D01*
X45659Y97343D01*
X45573Y96910D01*
Y95690D01*
X45659Y95257D01*
X45904Y94889D01*
X46271Y94644D01*
X46466Y94605D01*
Y92671D01*
X46384Y92616D01*
X46080Y92162D01*
X45973Y91625D01*
Y89375D01*
X46080Y88838D01*
X46384Y88384D01*
X46466Y88329D01*
Y83844D01*
X46384Y83789D01*
X46080Y83335D01*
X45973Y82798D01*
Y80548D01*
X46080Y80012D01*
X46384Y79557D01*
X46466Y79502D01*
Y76844D01*
X46384Y76789D01*
X46080Y76335D01*
X45973Y75798D01*
Y73548D01*
X46080Y73012D01*
X46384Y72557D01*
X46466Y72502D01*
Y70450D01*
X46602Y69767D01*
X46988Y69188D01*
X56516Y59661D01*
Y33200D01*
X56652Y32517D01*
X57038Y31938D01*
X62988Y25988D01*
X63567Y25602D01*
X64250Y25466D01*
X64329D01*
X64384Y25384D01*
X64838Y25080D01*
X65375Y24973D01*
X66963D01*
X67000Y24966D01*
X67000Y24966D01*
X67311D01*
X75738Y16538D01*
X76317Y16151D01*
X77000Y16016D01*
X77683Y16151D01*
X78262Y16538D01*
X78649Y17117D01*
X78784Y17800D01*
X78649Y18483D01*
X78262Y19062D01*
X69312Y28012D01*
X69009Y28214D01*
X68920Y28662D01*
X68616Y29116D01*
X68161Y29420D01*
X67625Y29527D01*
X65375D01*
X64838Y29420D01*
X64697Y29326D01*
X60084Y33939D01*
Y60400D01*
X60084Y60400D01*
X59948Y61083D01*
X59562Y61662D01*
X59562Y61662D01*
X50034Y71189D01*
Y72502D01*
X50116Y72557D01*
X50420Y73012D01*
X50527Y73548D01*
Y75798D01*
X50420Y76335D01*
X50116Y76789D01*
X50034Y76844D01*
Y79502D01*
X50116Y79557D01*
X50420Y80012D01*
X50527Y80548D01*
Y82798D01*
X50420Y83335D01*
X50116Y83789D01*
X50034Y83844D01*
Y88329D01*
X50116Y88384D01*
X50420Y88838D01*
X50527Y89375D01*
Y91625D01*
X50420Y92162D01*
X50116Y92616D01*
X50034Y92671D01*
Y94516D01*
X52600D01*
X53283Y94652D01*
X53862Y95038D01*
X58762Y99938D01*
X58762Y99938D01*
X59149Y100517D01*
X59284Y101200D01*
X59284Y101200D01*
Y109771D01*
X67735D01*
X67925Y109644D01*
X68358Y109558D01*
X72295D01*
X72729Y109644D01*
X73096Y109889D01*
X73286Y110175D01*
X73352Y110219D01*
X73463Y110330D01*
X73585Y110280D01*
X76250D01*
Y112316D01*
X76157D01*
X75950Y112816D01*
X76886Y113753D01*
X78125D01*
X78662Y113859D01*
X79116Y114163D01*
X79420Y114618D01*
X79527Y115155D01*
Y116904D01*
X79420Y117441D01*
X79116Y117896D01*
X78822Y118092D01*
X78846Y118448D01*
X78883Y118627D01*
X79477Y119023D01*
X79891Y119643D01*
X80037Y120375D01*
Y120500D01*
X73963D01*
Y120375D01*
X74109Y119643D01*
X74523Y119023D01*
X75117Y118627D01*
X75154Y118448D01*
X75178Y118092D01*
X74884Y117896D01*
X74580Y117441D01*
X74473Y116904D01*
Y115665D01*
X73697Y114890D01*
X73309Y115208D01*
X73341Y115257D01*
X73427Y115690D01*
Y116910D01*
X73341Y117343D01*
X73096Y117711D01*
X72729Y117956D01*
X72295Y118042D01*
X68358D01*
X67945Y117960D01*
X63468D01*
X62934Y118181D01*
X62266D01*
X61648Y117925D01*
X61175Y117452D01*
X60919Y116834D01*
Y116166D01*
X61175Y115548D01*
X61648Y115075D01*
X62266Y114819D01*
X62934D01*
X63133Y114901D01*
X67550D01*
X67558Y114889D01*
X67925Y114644D01*
X68358Y114558D01*
X72295D01*
X72729Y114644D01*
X72777Y114676D01*
X73095Y114288D01*
X71850Y113042D01*
X68358D01*
X67925Y112956D01*
X67735Y112829D01*
X59284D01*
Y141900D01*
X59284Y141900D01*
X59149Y142583D01*
X58762Y143162D01*
X48284Y153639D01*
Y184915D01*
X48469D01*
X49432Y185106D01*
X50248Y185652D01*
X50794Y186468D01*
X50985Y187432D01*
Y191368D01*
X50794Y192332D01*
X50248Y193148D01*
X49432Y193694D01*
X48469Y193885D01*
D02*
G37*
G36*
X50642Y113042D02*
X46705D01*
X46271Y112956D01*
X45904Y112711D01*
X45659Y112343D01*
X45573Y111910D01*
Y110690D01*
X45659Y110257D01*
X45904Y109889D01*
X46271Y109644D01*
X46705Y109558D01*
X50642D01*
X51075Y109644D01*
X51442Y109889D01*
X51688Y110257D01*
X51774Y110690D01*
Y111910D01*
X51688Y112343D01*
X51442Y112711D01*
X51075Y112956D01*
X50642Y113042D01*
D02*
G37*
G36*
X146787Y110750D02*
X144750D01*
Y108463D01*
X144875D01*
X145607Y108609D01*
X146227Y109023D01*
X146641Y109643D01*
X146787Y110375D01*
Y110750D01*
D02*
G37*
G36*
X97500Y127939D02*
X96720Y127784D01*
X96058Y127342D01*
X95616Y126680D01*
X95461Y125900D01*
X95616Y125120D01*
X96058Y124458D01*
X110216Y110300D01*
Y108750D01*
X110352Y108067D01*
X110738Y107488D01*
X111317Y107102D01*
X112000Y106966D01*
X114500D01*
X115183Y107102D01*
X115762Y107488D01*
X116148Y108067D01*
X116284Y108750D01*
Y111250D01*
X116148Y111933D01*
X115762Y112512D01*
X115183Y112899D01*
X114500Y113034D01*
X113250D01*
X98942Y127342D01*
X98280Y127784D01*
X97500Y127939D01*
D02*
G37*
G36*
X50642Y108042D02*
X46705D01*
X46271Y107956D01*
X45904Y107711D01*
X45659Y107343D01*
X45573Y106910D01*
Y105690D01*
X45659Y105257D01*
X45904Y104889D01*
X46271Y104644D01*
X46705Y104558D01*
X50642D01*
X51075Y104644D01*
X51442Y104889D01*
X51688Y105257D01*
X51774Y105690D01*
Y106910D01*
X51688Y107343D01*
X51442Y107711D01*
X51075Y107956D01*
X50642Y108042D01*
D02*
G37*
G36*
X14372Y107022D02*
X12313D01*
Y104528D01*
X17300D01*
X17264Y104803D01*
X16965Y105525D01*
X16489Y106145D01*
X15869Y106621D01*
X15147Y106920D01*
X14372Y107022D01*
D02*
G37*
G36*
X11313D02*
X9254D01*
X8479Y106920D01*
X7757Y106621D01*
X7137Y106145D01*
X6661Y105525D01*
X6362Y104803D01*
X6326Y104528D01*
X11313D01*
Y107022D01*
D02*
G37*
G36*
X31695Y107022D02*
X30226D01*
Y104527D01*
X34623D01*
X34587Y104803D01*
X34288Y105525D01*
X33812Y106145D01*
X33192Y106621D01*
X32470Y106920D01*
X31695Y107022D01*
D02*
G37*
G36*
X29226D02*
X28159D01*
Y104527D01*
X29226D01*
Y107022D01*
D02*
G37*
G36*
X27159Y106955D02*
X26910Y106922D01*
X26212Y106633D01*
X25613Y106173D01*
X25152Y105573D01*
X24863Y104875D01*
X24817Y104527D01*
X27159D01*
Y106955D01*
D02*
G37*
G36*
Y103527D02*
X24765D01*
Y103347D01*
X27159D01*
Y103527D01*
D02*
G37*
G36*
X215934Y121581D02*
X215266D01*
X214648Y121325D01*
X214175Y120852D01*
X213919Y120234D01*
Y119566D01*
X214175Y118948D01*
X214325Y118797D01*
Y110979D01*
X213787Y110835D01*
X212776Y110250D01*
X211949Y109424D01*
X211365Y108413D01*
X211063Y107284D01*
Y106116D01*
X211365Y104987D01*
X211949Y103976D01*
X212776Y103149D01*
X213787Y102565D01*
X214916Y102263D01*
X216084D01*
X217213Y102565D01*
X218224Y103149D01*
X219051Y103976D01*
X219635Y104987D01*
X219937Y106116D01*
Y107284D01*
X219635Y108413D01*
X219051Y109424D01*
X218224Y110250D01*
X217213Y110835D01*
X216875Y110925D01*
Y118797D01*
X217025Y118948D01*
X217281Y119566D01*
Y120234D01*
X217025Y120852D01*
X216552Y121325D01*
X215934Y121581D01*
D02*
G37*
G36*
X187084Y111137D02*
X185916D01*
X184787Y110835D01*
X183776Y110250D01*
X182949Y109424D01*
X182365Y108413D01*
X182063Y107284D01*
Y106116D01*
X182365Y104987D01*
X182949Y103976D01*
X183776Y103149D01*
X184787Y102565D01*
X185916Y102263D01*
X187084D01*
X188213Y102565D01*
X189224Y103149D01*
X190050Y103976D01*
X190635Y104987D01*
X190937Y106116D01*
Y107284D01*
X190635Y108413D01*
X190050Y109424D01*
X189224Y110250D01*
X188213Y110835D01*
X187084Y111137D01*
D02*
G37*
G36*
X17300Y103528D02*
X12313D01*
Y101033D01*
X14372D01*
X15147Y101136D01*
X15869Y101435D01*
X16489Y101910D01*
X16965Y102531D01*
X17264Y103253D01*
X17300Y103528D01*
D02*
G37*
G36*
X11313D02*
X6326D01*
X6362Y103253D01*
X6661Y102531D01*
X7137Y101910D01*
X7757Y101435D01*
X8479Y101136D01*
X9254Y101033D01*
X11313D01*
Y103528D01*
D02*
G37*
G36*
X50642Y103042D02*
X46705D01*
X46271Y102956D01*
X45904Y102711D01*
X45659Y102343D01*
X45573Y101910D01*
Y100690D01*
X45659Y100257D01*
X45904Y99889D01*
X46271Y99644D01*
X46705Y99558D01*
X50642D01*
X51075Y99644D01*
X51442Y99889D01*
X51688Y100257D01*
X51774Y100690D01*
Y101910D01*
X51688Y102343D01*
X51442Y102711D01*
X51075Y102956D01*
X50642Y103042D01*
D02*
G37*
G36*
X114500Y105534D02*
X112000D01*
X111317Y105398D01*
X110738Y105012D01*
X110729Y104998D01*
X107600D01*
X106644Y104808D01*
X105834Y104266D01*
X95834Y94266D01*
X95292Y93456D01*
X95102Y92500D01*
Y81600D01*
X95292Y80644D01*
X95834Y79834D01*
X96644Y79292D01*
X97600Y79102D01*
X98556Y79292D01*
X99366Y79834D01*
X99908Y80644D01*
X100098Y81600D01*
Y91465D01*
X108635Y100002D01*
X110729D01*
X110738Y99988D01*
X111317Y99602D01*
X112000Y99466D01*
X114500D01*
X115183Y99602D01*
X115762Y99988D01*
X116148Y100567D01*
X116284Y101250D01*
Y103750D01*
X116148Y104433D01*
X115762Y105012D01*
X115183Y105398D01*
X114500Y105534D01*
D02*
G37*
G36*
X33762Y98951D02*
X32687D01*
Y97835D01*
X35042D01*
X34982Y98135D01*
X34696Y98564D01*
X34267Y98850D01*
X33762Y98951D01*
D02*
G37*
G36*
X330750Y97537D02*
X330375D01*
X329643Y97391D01*
X329023Y96977D01*
X328977D01*
X328357Y97391D01*
X327625Y97537D01*
X327250D01*
Y94750D01*
Y91963D01*
X327625D01*
X328357Y92109D01*
X328977Y92523D01*
X329023D01*
X329643Y92109D01*
X330375Y91963D01*
X330750D01*
Y94750D01*
Y97537D01*
D02*
G37*
G36*
X325750D02*
X325375D01*
X324643Y97391D01*
X324023Y96977D01*
X323977D01*
X323357Y97391D01*
X322625Y97537D01*
X322250D01*
Y94750D01*
Y91963D01*
X322625D01*
X323357Y92109D01*
X323977Y92523D01*
X324023D01*
X324643Y92109D01*
X325375Y91963D01*
X325750D01*
Y94750D01*
Y97537D01*
D02*
G37*
G36*
X332625D02*
X332250D01*
Y95500D01*
X334537D01*
Y95625D01*
X334391Y96357D01*
X333977Y96977D01*
X333357Y97391D01*
X332625Y97537D01*
D02*
G37*
G36*
X169650Y104937D02*
X168350D01*
X167094Y104601D01*
X165969Y103951D01*
X165049Y103031D01*
X164399Y101906D01*
X164063Y100650D01*
Y99350D01*
X164399Y98094D01*
X165049Y96969D01*
X165969Y96049D01*
X167094Y95399D01*
X168350Y95063D01*
X169650D01*
X170906Y95399D01*
X172031Y96049D01*
X172951Y96969D01*
X173601Y98094D01*
X173937Y99350D01*
Y100650D01*
X173601Y101906D01*
X172951Y103031D01*
X172031Y103951D01*
X170906Y104601D01*
X169650Y104937D01*
D02*
G37*
G36*
X78125Y96816D02*
X77750D01*
Y94779D01*
X80037D01*
Y94905D01*
X79891Y95636D01*
X79477Y96256D01*
X78857Y96671D01*
X78125Y96816D01*
D02*
G37*
G36*
X372592Y103500D02*
X371408D01*
X370263Y103193D01*
X369237Y102601D01*
X368399Y101763D01*
X367807Y100737D01*
X367500Y99592D01*
Y98408D01*
X367807Y97263D01*
X368046Y96848D01*
X364972Y93774D01*
X352103D01*
X351952Y93925D01*
X351334Y94181D01*
X350666D01*
X350048Y93925D01*
X349575Y93452D01*
X349319Y92834D01*
Y92166D01*
X349575Y91548D01*
X350048Y91075D01*
X350666Y90819D01*
X351334D01*
X351952Y91075D01*
X352103Y91225D01*
X365500D01*
X365988Y91322D01*
X366401Y91599D01*
X369848Y95046D01*
X370263Y94807D01*
X371408Y94500D01*
X372592D01*
X373737Y94807D01*
X374763Y95399D01*
X375601Y96237D01*
X376193Y97263D01*
X376500Y98408D01*
Y99592D01*
X376193Y100737D01*
X375601Y101763D01*
X374763Y102601D01*
X373737Y103193D01*
X372592Y103500D01*
D02*
G37*
G36*
X34623Y103527D02*
X29726D01*
X28159D01*
Y102847D01*
X27659D01*
Y102347D01*
X24746D01*
X24596Y101935D01*
X24204D01*
X24105Y101894D01*
X23997D01*
X23635Y101744D01*
X23559Y101668D01*
X23460Y101626D01*
X23183Y101349D01*
X23142Y101250D01*
X23066Y101174D01*
X22916Y100812D01*
Y100705D01*
X22874Y100605D01*
Y100214D01*
X22916Y100114D01*
Y100006D01*
X23066Y99645D01*
X23142Y99569D01*
X23183Y99469D01*
X23460Y99192D01*
X23559Y99151D01*
X23635Y99075D01*
X23997Y98925D01*
X24116Y98622D01*
X26872D01*
Y97622D01*
X24214D01*
X24274Y97321D01*
X24560Y96893D01*
X24743Y96771D01*
X24745Y96759D01*
X24683Y96449D01*
Y95858D01*
X24745Y95548D01*
X24750Y95541D01*
X24880Y95169D01*
X24750Y94798D01*
X24745Y94791D01*
X24683Y94480D01*
Y93890D01*
X24695Y93828D01*
X24357Y93328D01*
X24345D01*
X24247Y93394D01*
X23759Y93491D01*
X19786D01*
X19752Y93525D01*
X19134Y93781D01*
X18466D01*
X17848Y93525D01*
X17375Y93052D01*
X17119Y92434D01*
Y91766D01*
X17375Y91148D01*
X17848Y90675D01*
X18466Y90419D01*
X19134D01*
X19752Y90675D01*
X20019Y90942D01*
X23759D01*
X24247Y91039D01*
X24345Y91105D01*
X24357D01*
X24695Y90605D01*
X24683Y90543D01*
Y89953D01*
X24484Y89726D01*
X23868Y89709D01*
X23752Y89825D01*
X23134Y90081D01*
X22466D01*
X21848Y89825D01*
X21375Y89352D01*
X21119Y88734D01*
Y88066D01*
X21375Y87448D01*
X21848Y86975D01*
X22466Y86719D01*
X23134D01*
X23752Y86975D01*
X23906Y87128D01*
X24365Y87097D01*
X24683Y86705D01*
Y86114D01*
X24745Y85804D01*
X24750Y85797D01*
X24880Y85425D01*
X24750Y85054D01*
X24745Y85046D01*
X24683Y84736D01*
Y84146D01*
X24695Y84084D01*
X24357Y83584D01*
X24345D01*
X24247Y83650D01*
X23759Y83747D01*
X20030D01*
X19952Y83825D01*
X19334Y84081D01*
X18666D01*
X18048Y83825D01*
X17575Y83352D01*
X17319Y82734D01*
Y82066D01*
X17575Y81448D01*
X18048Y80975D01*
X18666Y80719D01*
X19334D01*
X19952Y80975D01*
X20175Y81198D01*
X23759D01*
X24247Y81295D01*
X24345Y81361D01*
X24357D01*
X24695Y80861D01*
X24683Y80799D01*
Y80209D01*
X24745Y79898D01*
X24750Y79891D01*
X24880Y79520D01*
X24750Y79148D01*
X24745Y79141D01*
X24683Y78831D01*
Y78240D01*
X24730Y78008D01*
X24560Y77895D01*
X24274Y77466D01*
X24214Y77165D01*
X26872D01*
Y76165D01*
X24214D01*
X24274Y75865D01*
X24440Y75616D01*
X24208Y75116D01*
X24204D01*
X24105Y75075D01*
X23997D01*
X23635Y74925D01*
X23559Y74849D01*
X23460Y74808D01*
X23183Y74531D01*
X23142Y74431D01*
X23066Y74355D01*
X22916Y73993D01*
Y73886D01*
X22874Y73786D01*
Y73395D01*
X22916Y73295D01*
Y73188D01*
X23066Y72826D01*
X23142Y72750D01*
X23183Y72650D01*
X23460Y72374D01*
X23559Y72332D01*
X23635Y72256D01*
X23997Y72106D01*
X24105D01*
X24204Y72065D01*
X24596D01*
X24746Y71653D01*
X27659D01*
Y71153D01*
X28159D01*
Y70472D01*
X29726D01*
X34623D01*
X34587Y70747D01*
X34288Y71469D01*
X33812Y72090D01*
X33192Y72565D01*
X32470Y72865D01*
X31695Y72967D01*
X30484D01*
X30456Y73182D01*
X30273Y73623D01*
X30612Y74065D01*
X31687D01*
Y75681D01*
X32187D01*
Y76181D01*
X35042D01*
X34982Y76482D01*
X34696Y76910D01*
X34513Y77032D01*
X34511Y77044D01*
X34573Y77354D01*
Y77945D01*
X34511Y78255D01*
X34506Y78262D01*
X34376Y78634D01*
X34506Y79005D01*
X34511Y79013D01*
X34573Y79323D01*
Y79913D01*
X34560Y79975D01*
X34621Y80063D01*
X35038Y80338D01*
X35617Y79952D01*
X36300Y79816D01*
X43600D01*
X44283Y79952D01*
X44862Y80338D01*
X45248Y80917D01*
X45384Y81600D01*
X45248Y82283D01*
X44875Y82842D01*
Y89000D01*
X44778Y89488D01*
X44501Y89901D01*
X42072Y92330D01*
X41659Y92607D01*
X41171Y92704D01*
X35300D01*
X34963Y92637D01*
X34616Y92930D01*
X34572Y93003D01*
X34560Y93041D01*
X34573Y93102D01*
Y93693D01*
X34511Y94003D01*
X34506Y94010D01*
X34376Y94382D01*
X34506Y94753D01*
X34511Y94761D01*
X34573Y95071D01*
Y95661D01*
X34511Y95972D01*
X34513Y95984D01*
X34696Y96105D01*
X34982Y96534D01*
X35042Y96835D01*
X32187D01*
Y97335D01*
X31687D01*
Y98951D01*
X30612D01*
X30107Y98850D01*
X29634Y99056D01*
X29551Y99401D01*
X29706Y99520D01*
X30167Y100119D01*
X30456Y100818D01*
X30484Y101033D01*
X31695D01*
X32470Y101136D01*
X33192Y101435D01*
X33812Y101910D01*
X34288Y102531D01*
X34587Y103253D01*
X34623Y103527D01*
D02*
G37*
G36*
X334537Y94000D02*
X332250D01*
Y91963D01*
X332625D01*
X333357Y92109D01*
X333977Y92523D01*
X334391Y93143D01*
X334537Y93875D01*
Y94000D01*
D02*
G37*
G36*
X55625Y93537D02*
X55500D01*
Y91250D01*
X57537D01*
Y91625D01*
X57391Y92357D01*
X56977Y92977D01*
X56357Y93391D01*
X55625Y93537D01*
D02*
G37*
G36*
X54000D02*
X53875D01*
X53143Y93391D01*
X52523Y92977D01*
X52109Y92357D01*
X51963Y91625D01*
Y91250D01*
X54000D01*
Y93537D01*
D02*
G37*
G36*
X80037Y93279D02*
X77750D01*
Y91243D01*
X78125D01*
X78857Y91388D01*
X79477Y91803D01*
X79891Y92423D01*
X80037Y93155D01*
Y93279D01*
D02*
G37*
G36*
X72295Y98552D02*
X71077D01*
Y96300D01*
Y94048D01*
X72295D01*
X72924Y94173D01*
X73456Y94529D01*
X73463Y94539D01*
X73963Y94388D01*
Y93155D01*
X74109Y92423D01*
X74523Y91803D01*
X75143Y91388D01*
X75875Y91243D01*
X76250D01*
Y94029D01*
Y96816D01*
X75875D01*
X75143Y96671D01*
X74523Y96256D01*
X74437Y96127D01*
X73937Y96279D01*
Y96910D01*
X73812Y97539D01*
X73456Y98071D01*
X72924Y98427D01*
X72295Y98552D01*
D02*
G37*
G36*
X372592Y93500D02*
X371408D01*
X370263Y93193D01*
X369237Y92601D01*
X368399Y91763D01*
X367807Y90737D01*
X367683Y90275D01*
X342103D01*
X341952Y90425D01*
X341334Y90681D01*
X340666D01*
X340048Y90425D01*
X339575Y89952D01*
X339319Y89334D01*
Y88666D01*
X339575Y88048D01*
X340048Y87575D01*
X340666Y87319D01*
X341334D01*
X341952Y87575D01*
X342103Y87726D01*
X367683D01*
X367807Y87263D01*
X368399Y86237D01*
X369237Y85399D01*
X370263Y84807D01*
X371408Y84500D01*
X372592D01*
X373737Y84807D01*
X374763Y85399D01*
X375601Y86237D01*
X376193Y87263D01*
X376500Y88408D01*
Y89592D01*
X376193Y90737D01*
X375601Y91763D01*
X374763Y92601D01*
X373737Y93193D01*
X372592Y93500D01*
D02*
G37*
G36*
X57537Y89750D02*
X55500D01*
Y87463D01*
X55625D01*
X56357Y87609D01*
X56977Y88023D01*
X57391Y88643D01*
X57537Y89375D01*
Y89750D01*
D02*
G37*
G36*
X54000D02*
X51963D01*
Y89375D01*
X52109Y88643D01*
X52523Y88023D01*
X53143Y87609D01*
X53875Y87463D01*
X54000D01*
Y89750D01*
D02*
G37*
G36*
X146787Y89250D02*
X144750D01*
Y86963D01*
X144875D01*
X145607Y87109D01*
X146227Y87523D01*
X146641Y88143D01*
X146787Y88875D01*
Y89250D01*
D02*
G37*
G36*
X143250D02*
X141213D01*
Y88875D01*
X141359Y88143D01*
X141773Y87523D01*
X142393Y87109D01*
X143125Y86963D01*
X143250D01*
Y89250D01*
D02*
G37*
G36*
X111033Y83099D02*
X108783D01*
X107905Y82925D01*
X107160Y82427D01*
X106702Y81741D01*
X106582Y81666D01*
X106132Y81574D01*
X105657Y81891D01*
X104925Y82037D01*
X104550D01*
Y79250D01*
Y76463D01*
X104925D01*
X105657Y76609D01*
X106277Y77023D01*
X106304Y77064D01*
X106906D01*
X107160Y76683D01*
X107905Y76186D01*
X108783Y76011D01*
X111033D01*
Y79555D01*
X111783D01*
D01*
X111033D01*
Y83099D01*
D02*
G37*
G36*
X114783D02*
X112533D01*
Y80305D01*
X117077D01*
Y80805D01*
X116902Y81683D01*
X116405Y82427D01*
X115661Y82925D01*
X114783Y83099D01*
D02*
G37*
G36*
X372592Y83500D02*
X371408D01*
X370263Y83193D01*
X369237Y82601D01*
X368399Y81763D01*
X367807Y80737D01*
X367683Y80274D01*
X346303D01*
X346152Y80425D01*
X345534Y80681D01*
X344866D01*
X344248Y80425D01*
X343775Y79952D01*
X343519Y79334D01*
Y78666D01*
X343775Y78048D01*
X344248Y77575D01*
X344866Y77319D01*
X345534D01*
X346152Y77575D01*
X346303Y77725D01*
X367683D01*
X367807Y77263D01*
X368399Y76237D01*
X369237Y75399D01*
X370263Y74807D01*
X371408Y74500D01*
X372592D01*
X373737Y74807D01*
X374763Y75399D01*
X375601Y76237D01*
X376193Y77263D01*
X376500Y78408D01*
Y79592D01*
X376193Y80737D01*
X375601Y81763D01*
X374763Y82601D01*
X373737Y83193D01*
X372592Y83500D01*
D02*
G37*
G36*
X103050Y82037D02*
X102675D01*
X101943Y81891D01*
X101323Y81477D01*
X100909Y80857D01*
X100763Y80125D01*
Y80000D01*
X103050D01*
Y82037D01*
D02*
G37*
G36*
X202108Y82936D02*
X201608D01*
Y78892D01*
X204402D01*
Y80642D01*
X204228Y81520D01*
X203730Y82264D01*
X202986Y82761D01*
X202108Y82936D01*
D02*
G37*
G36*
X200108D02*
X199608D01*
X198730Y82761D01*
X197986Y82264D01*
X197489Y81520D01*
X197314Y80642D01*
Y78892D01*
X200108D01*
Y82936D01*
D02*
G37*
G36*
X91625Y83912D02*
X90750D01*
Y78640D01*
X94273D01*
Y81265D01*
X94182Y81950D01*
X93918Y82589D01*
X93497Y83137D01*
X92949Y83558D01*
X92310Y83822D01*
X91625Y83912D01*
D02*
G37*
G36*
X89250D02*
X88375D01*
X87690Y83822D01*
X87051Y83558D01*
X86503Y83137D01*
X86082Y82589D01*
X85818Y81950D01*
X85727Y81265D01*
Y78640D01*
X89250D01*
Y83912D01*
D02*
G37*
G36*
X151625Y82912D02*
X150750D01*
Y77640D01*
X154273D01*
Y80265D01*
X154182Y80950D01*
X153918Y81589D01*
X153497Y82137D01*
X152949Y82558D01*
X152310Y82822D01*
X151625Y82912D01*
D02*
G37*
G36*
X149250D02*
X148375D01*
X147690Y82822D01*
X147051Y82558D01*
X146503Y82137D01*
X146082Y81589D01*
X145818Y80950D01*
X145727Y80265D01*
Y77640D01*
X149250D01*
Y82912D01*
D02*
G37*
G36*
X60125Y77200D02*
X58375D01*
X57838Y77093D01*
X57384Y76789D01*
X57301Y76665D01*
X56699D01*
X56616Y76789D01*
X56161Y77093D01*
X55625Y77200D01*
X53875D01*
X53338Y77093D01*
X52884Y76789D01*
X52580Y76335D01*
X52473Y75798D01*
Y73548D01*
X52580Y73012D01*
X52884Y72557D01*
X53338Y72253D01*
X53875Y72146D01*
X55625D01*
X56161Y72253D01*
X56616Y72557D01*
X56699Y72681D01*
X57301D01*
X57384Y72557D01*
X57838Y72253D01*
X58375Y72146D01*
X60125D01*
X60662Y72253D01*
X61116Y72557D01*
X61420Y73012D01*
X61527Y73548D01*
Y75798D01*
X61420Y76335D01*
X61116Y76789D01*
X60662Y77093D01*
X60125Y77200D01*
D02*
G37*
G36*
X103050Y78500D02*
X100763D01*
Y78375D01*
X100909Y77643D01*
X101323Y77023D01*
X101943Y76609D01*
X102675Y76463D01*
X103050D01*
Y78500D01*
D02*
G37*
G36*
X117077Y78805D02*
X112533D01*
Y76011D01*
X114783D01*
X115661Y76186D01*
X116405Y76683D01*
X116902Y77427D01*
X117077Y78305D01*
Y78805D01*
D02*
G37*
G36*
X35042Y75181D02*
X32687D01*
Y74065D01*
X33762D01*
X34267Y74166D01*
X34696Y74452D01*
X34982Y74880D01*
X35042Y75181D01*
D02*
G37*
G36*
X204402Y77392D02*
X201608D01*
Y73348D01*
X202108D01*
X202986Y73522D01*
X203730Y74020D01*
X204228Y74764D01*
X204402Y75642D01*
Y77392D01*
D02*
G37*
G36*
X200108D02*
X197314D01*
Y75642D01*
X197489Y74764D01*
X197986Y74020D01*
X198730Y73522D01*
X199608Y73348D01*
X200108D01*
Y77392D01*
D02*
G37*
G36*
X114500Y98034D02*
X112000D01*
X111317Y97899D01*
X110738Y97512D01*
X110352Y96933D01*
X110216Y96250D01*
Y93750D01*
X110352Y93067D01*
X110738Y92488D01*
X111317Y92102D01*
X112000Y91966D01*
X113761D01*
X117816Y87911D01*
Y72284D01*
X116461D01*
X116431Y72433D01*
X116044Y73012D01*
X115465Y73399D01*
X114783Y73534D01*
X109522D01*
X109044Y74012D01*
X108466Y74398D01*
X107783Y74534D01*
X105971D01*
X105916Y74616D01*
X105462Y74920D01*
X104925Y75027D01*
X102675D01*
X102138Y74920D01*
X101684Y74616D01*
X101380Y74161D01*
X101273Y73625D01*
Y71875D01*
X101380Y71338D01*
X101684Y70884D01*
Y70718D01*
X101323Y70477D01*
X100909Y69857D01*
X100763Y69125D01*
Y69000D01*
X103800D01*
Y68250D01*
X104550D01*
Y65463D01*
X104925D01*
X105657Y65609D01*
X106277Y66023D01*
X106691Y66643D01*
X106837Y67375D01*
Y68112D01*
X107337Y68264D01*
X107521Y67988D01*
X108100Y67602D01*
X108783Y67466D01*
X114783D01*
X115465Y67602D01*
X116044Y67988D01*
X116431Y68567D01*
X116461Y68716D01*
X129594D01*
Y65250D01*
X129688Y64532D01*
X129965Y63863D01*
X130406Y63289D01*
X130981Y62848D01*
X131649Y62571D01*
X132367Y62476D01*
X136867D01*
X137585Y62571D01*
X138254Y62848D01*
X138829Y63289D01*
X139276Y63318D01*
X140745Y61849D01*
X141324Y61462D01*
X142007Y61326D01*
X142007Y61326D01*
X146208D01*
Y59735D01*
X146373Y58906D01*
X146843Y58203D01*
X147546Y57734D01*
X148375Y57569D01*
X151625D01*
X152454Y57734D01*
X153157Y58203D01*
X153627Y58906D01*
X153792Y59735D01*
Y66485D01*
X153627Y67314D01*
X153157Y68017D01*
X152454Y68487D01*
X151625Y68652D01*
X148375D01*
X147546Y68487D01*
X146843Y68017D01*
X146373Y67314D01*
X146208Y66485D01*
Y64894D01*
X142746D01*
X139641Y68000D01*
Y75750D01*
X139547Y76468D01*
X139269Y77137D01*
X138829Y77711D01*
X138254Y78152D01*
X137585Y78429D01*
X136867Y78524D01*
X132367D01*
X131649Y78429D01*
X130981Y78152D01*
X130406Y77711D01*
X129965Y77137D01*
X129688Y76468D01*
X129594Y75750D01*
Y72284D01*
X121384D01*
Y88650D01*
X121384Y88650D01*
X121248Y89333D01*
X120862Y89912D01*
X120862Y89912D01*
X116284Y94489D01*
Y96250D01*
X116148Y96933D01*
X115762Y97512D01*
X115183Y97899D01*
X114500Y98034D01*
D02*
G37*
G36*
X94273Y77140D02*
X90750D01*
Y71867D01*
X91625D01*
X92310Y71957D01*
X92949Y72222D01*
X93497Y72643D01*
X93918Y73191D01*
X94182Y73830D01*
X94273Y74515D01*
Y77140D01*
D02*
G37*
G36*
X89250D02*
X85727D01*
Y74515D01*
X85818Y73830D01*
X86082Y73191D01*
X86503Y72643D01*
X87051Y72222D01*
X87690Y71957D01*
X88375Y71867D01*
X89250D01*
Y77140D01*
D02*
G37*
G36*
X154273Y76140D02*
X150750D01*
Y70867D01*
X151625D01*
X152310Y70957D01*
X152949Y71222D01*
X153497Y71643D01*
X153918Y72191D01*
X154182Y72830D01*
X154273Y73515D01*
Y76140D01*
D02*
G37*
G36*
X149250D02*
X145727D01*
Y73515D01*
X145818Y72830D01*
X146082Y72191D01*
X146503Y71643D01*
X147051Y71222D01*
X147690Y70957D01*
X148375Y70867D01*
X149250D01*
Y76140D01*
D02*
G37*
G36*
X14372Y72967D02*
X12313D01*
Y70472D01*
X17300D01*
X17264Y70747D01*
X16965Y71469D01*
X16489Y72090D01*
X15869Y72565D01*
X15147Y72865D01*
X14372Y72967D01*
D02*
G37*
G36*
X11313D02*
X9254D01*
X8479Y72865D01*
X7757Y72565D01*
X7137Y72090D01*
X6661Y71469D01*
X6362Y70747D01*
X6326Y70472D01*
X11313D01*
Y72967D01*
D02*
G37*
G36*
X27160Y70653D02*
X24765D01*
Y70472D01*
X27160D01*
Y70653D01*
D02*
G37*
G36*
Y69472D02*
X24817D01*
X24863Y69125D01*
X25152Y68427D01*
X25613Y67827D01*
X26212Y67367D01*
X26910Y67078D01*
X27160Y67045D01*
Y69472D01*
D02*
G37*
G36*
X34623D02*
X30226D01*
Y66978D01*
X31695D01*
X32470Y67080D01*
X33192Y67379D01*
X33812Y67855D01*
X34288Y68475D01*
X34587Y69197D01*
X34623Y69472D01*
D02*
G37*
G36*
X29226D02*
X28159D01*
Y66978D01*
X29226D01*
Y69472D01*
D02*
G37*
G36*
X17300D02*
X12313D01*
Y66978D01*
X14372D01*
X15147Y67080D01*
X15869Y67379D01*
X16489Y67855D01*
X16965Y68475D01*
X17264Y69197D01*
X17300Y69472D01*
D02*
G37*
G36*
X11313D02*
X6326D01*
X6362Y69197D01*
X6661Y68475D01*
X7137Y67855D01*
X7757Y67379D01*
X8479Y67080D01*
X9254Y66978D01*
X11313D01*
Y69472D01*
D02*
G37*
G36*
X103050Y67500D02*
X100763D01*
Y67375D01*
X100909Y66643D01*
X101323Y66023D01*
X101943Y65609D01*
X102675Y65463D01*
X103050D01*
Y67500D01*
D02*
G37*
G36*
X372592Y73500D02*
X371408D01*
X370263Y73193D01*
X369237Y72601D01*
X368399Y71763D01*
X367807Y70737D01*
X367500Y69592D01*
Y68408D01*
X367807Y67263D01*
X368399Y66237D01*
X369237Y65399D01*
X370263Y64807D01*
X371408Y64500D01*
X372592D01*
X373737Y64807D01*
X374763Y65399D01*
X375601Y66237D01*
X376193Y67263D01*
X376500Y68408D01*
Y69592D01*
X376193Y70737D01*
X375601Y71763D01*
X374763Y72601D01*
X373737Y73193D01*
X372592Y73500D01*
D02*
G37*
G36*
X91625Y69652D02*
X88375D01*
X87546Y69487D01*
X86843Y69017D01*
X86373Y68314D01*
X86208Y67485D01*
Y60735D01*
X86373Y59906D01*
X86843Y59203D01*
X87546Y58733D01*
X88375Y58569D01*
X91625D01*
X92454Y58733D01*
X93157Y59203D01*
X93627Y59906D01*
X93639Y59966D01*
X101629D01*
X101684Y59884D01*
X101966Y59695D01*
Y48428D01*
X101817Y48399D01*
X101238Y48012D01*
X100852Y47433D01*
X100716Y46750D01*
Y44250D01*
X100852Y43567D01*
X101238Y42988D01*
X101817Y42601D01*
X102500Y42466D01*
X105000D01*
X105683Y42601D01*
X106262Y42988D01*
X106649Y43567D01*
X106678Y43716D01*
X162761D01*
X171216Y35261D01*
Y11049D01*
X171000D01*
X170025Y10855D01*
X169198Y10302D01*
X168645Y9475D01*
X168451Y8500D01*
Y4500D01*
X168645Y3525D01*
X169198Y2698D01*
X170025Y2145D01*
X171000Y1951D01*
X175000D01*
X175976Y2145D01*
X176802Y2698D01*
X177355Y3525D01*
X177549Y4500D01*
Y8500D01*
X177355Y9475D01*
X176802Y10302D01*
X175976Y10855D01*
X175000Y11049D01*
X174784D01*
Y36000D01*
X174784Y36000D01*
X174648Y36683D01*
X174262Y37262D01*
X164762Y46762D01*
X164183Y47148D01*
X163500Y47284D01*
X106678D01*
X106649Y47433D01*
X106262Y48012D01*
X105683Y48399D01*
X105534Y48428D01*
Y59628D01*
X105916Y59884D01*
X105971Y59966D01*
X107044D01*
X107134Y59512D01*
X107521Y58933D01*
X108100Y58546D01*
X108783Y58411D01*
X114783D01*
X115465Y58546D01*
X116044Y58933D01*
X116431Y59512D01*
X116567Y60195D01*
Y62695D01*
X116431Y63378D01*
X116044Y63957D01*
X115465Y64343D01*
X114783Y64479D01*
X108783D01*
X108100Y64343D01*
X107521Y63957D01*
X107239Y63534D01*
X105971D01*
X105916Y63616D01*
X105462Y63920D01*
X104925Y64027D01*
X102675D01*
X102138Y63920D01*
X101684Y63616D01*
X101629Y63534D01*
X93792D01*
Y67485D01*
X93627Y68314D01*
X93157Y69017D01*
X92454Y69487D01*
X91625Y69652D01*
D02*
G37*
G36*
X48693Y58163D02*
X42693D01*
X41910Y58060D01*
X41180Y57758D01*
X40553Y57277D01*
X40072Y56650D01*
X39770Y55921D01*
X39673Y55186D01*
X26909D01*
X26813Y55921D01*
X26510Y56650D01*
X26030Y57277D01*
X25403Y57758D01*
X24673Y58060D01*
X23890Y58163D01*
X17890D01*
X17107Y58060D01*
X16377Y57758D01*
X15750Y57277D01*
X15269Y56650D01*
X14967Y55921D01*
X14864Y55137D01*
Y50138D01*
X14967Y49354D01*
X15269Y48625D01*
X15750Y47998D01*
X16377Y47517D01*
X17107Y47215D01*
X17890Y47112D01*
X23890D01*
X24673Y47215D01*
X25403Y47517D01*
X26030Y47998D01*
X26510Y48625D01*
X26813Y49354D01*
X26909Y50089D01*
X39673D01*
X39770Y49354D01*
X40072Y48625D01*
X40553Y47998D01*
X41180Y47517D01*
X41910Y47215D01*
X42693Y47112D01*
X43144D01*
Y36707D01*
X43338Y35732D01*
X43890Y34905D01*
X64224Y14572D01*
X65044Y14023D01*
Y4602D01*
X65197Y3831D01*
X65634Y3178D01*
X66288Y2741D01*
X67059Y2587D01*
X70012D01*
X70783Y2741D01*
X71437Y3178D01*
X71873Y3831D01*
X72027Y4602D01*
Y17398D01*
X71873Y18169D01*
X71437Y18823D01*
X70783Y19259D01*
X70012Y19413D01*
X67059D01*
X66669Y19335D01*
X48242Y37763D01*
Y47112D01*
X48693D01*
X49476Y47215D01*
X50206Y47517D01*
X50832Y47998D01*
X51313Y48625D01*
X51616Y49354D01*
X51719Y50138D01*
Y55137D01*
X51616Y55921D01*
X51313Y56650D01*
X50832Y57277D01*
X50206Y57758D01*
X49476Y58060D01*
X48693Y58163D01*
D02*
G37*
G36*
X372592Y63500D02*
X371408D01*
X370263Y63193D01*
X369237Y62601D01*
X368399Y61763D01*
X367807Y60737D01*
X367500Y59592D01*
Y58408D01*
X367807Y57263D01*
X368399Y56237D01*
X369237Y55399D01*
X370263Y54807D01*
X371408Y54500D01*
X372592D01*
X373737Y54807D01*
X374763Y55399D01*
X375601Y56237D01*
X376193Y57263D01*
X376500Y58408D01*
Y59592D01*
X376193Y60737D01*
X375601Y61763D01*
X374763Y62601D01*
X373737Y63193D01*
X372592Y63500D01*
D02*
G37*
G36*
X163834Y75181D02*
X163166D01*
X162548Y74925D01*
X162075Y74452D01*
X161819Y73834D01*
Y73166D01*
X161871Y73041D01*
Y55101D01*
X161719Y54734D01*
Y54066D01*
X161975Y53448D01*
X162448Y52975D01*
X163066Y52719D01*
X163734D01*
X164352Y52975D01*
X164825Y53448D01*
X165081Y54066D01*
Y54734D01*
X164929Y55101D01*
Y72558D01*
X165181Y73166D01*
Y73834D01*
X164925Y74452D01*
X164452Y74925D01*
X163834Y75181D01*
D02*
G37*
G36*
X372592Y53500D02*
X371408D01*
X370263Y53193D01*
X369237Y52601D01*
X368399Y51763D01*
X367807Y50737D01*
X367683Y50274D01*
X327103D01*
X326952Y50425D01*
X326334Y50681D01*
X325666D01*
X325048Y50425D01*
X324575Y49952D01*
X324319Y49334D01*
Y48666D01*
X324575Y48048D01*
X325048Y47575D01*
X325666Y47319D01*
X326334D01*
X326952Y47575D01*
X327103Y47725D01*
X367683D01*
X367807Y47263D01*
X368399Y46237D01*
X369237Y45399D01*
X370263Y44807D01*
X371408Y44500D01*
X372592D01*
X373737Y44807D01*
X374763Y45399D01*
X375601Y46237D01*
X376193Y47263D01*
X376500Y48408D01*
Y49592D01*
X376193Y50737D01*
X375601Y51763D01*
X374763Y52601D01*
X373737Y53193D01*
X372592Y53500D01*
D02*
G37*
G36*
X202108Y50652D02*
X201608D01*
Y46608D01*
X204402D01*
Y48358D01*
X204228Y49236D01*
X203730Y49980D01*
X202986Y50478D01*
X202108Y50652D01*
D02*
G37*
G36*
X200108D02*
X199608D01*
X198730Y50478D01*
X197986Y49980D01*
X197489Y49236D01*
X197314Y48358D01*
Y46608D01*
X200108D01*
Y50652D01*
D02*
G37*
G36*
X67625Y47537D02*
X67250D01*
Y45500D01*
X69537D01*
Y45625D01*
X69391Y46357D01*
X68977Y46977D01*
X68357Y47391D01*
X67625Y47537D01*
D02*
G37*
G36*
X65750D02*
X65375D01*
X64643Y47391D01*
X64023Y46977D01*
X63609Y46357D01*
X63463Y45625D01*
Y45500D01*
X65750D01*
Y47537D01*
D02*
G37*
G36*
X69537Y44000D02*
X67250D01*
Y41963D01*
X67625D01*
X68357Y42109D01*
X68977Y42523D01*
X69391Y43143D01*
X69537Y43875D01*
Y44000D01*
D02*
G37*
G36*
X65750D02*
X63463D01*
Y43875D01*
X63609Y43143D01*
X64023Y42523D01*
X64643Y42109D01*
X65375Y41963D01*
X65750D01*
Y44000D01*
D02*
G37*
G36*
X184392Y82426D02*
X181892D01*
X181209Y82290D01*
X180630Y81903D01*
X180243Y81324D01*
X180107Y80642D01*
Y75642D01*
X180243Y74959D01*
X180630Y74380D01*
X181209Y73993D01*
X181357Y73964D01*
Y65400D01*
Y50036D01*
X181209Y50007D01*
X180630Y49620D01*
X180243Y49041D01*
X180107Y48358D01*
Y43358D01*
X180243Y42676D01*
X180630Y42097D01*
X181209Y41710D01*
X181892Y41574D01*
X184392D01*
X185074Y41710D01*
X185653Y42097D01*
X186040Y42676D01*
X186176Y43358D01*
Y48358D01*
X186040Y49041D01*
X185653Y49620D01*
X185074Y50007D01*
X184926Y50036D01*
Y63616D01*
X215400D01*
X216083Y63752D01*
X216662Y64138D01*
X217049Y64717D01*
X217184Y65400D01*
X217049Y66083D01*
X216662Y66662D01*
X216083Y67049D01*
X215400Y67184D01*
X184926D01*
Y73964D01*
X185074Y73993D01*
X185653Y74380D01*
X186040Y74959D01*
X186176Y75642D01*
Y80642D01*
X186040Y81324D01*
X185653Y81903D01*
X185074Y82290D01*
X184392Y82426D01*
D02*
G37*
G36*
X204402Y45108D02*
X201608D01*
Y41064D01*
X202108D01*
X202986Y41239D01*
X203730Y41736D01*
X204228Y42480D01*
X204402Y43358D01*
Y45108D01*
D02*
G37*
G36*
X200108D02*
X197314D01*
Y43358D01*
X197489Y42480D01*
X197986Y41736D01*
X198730Y41239D01*
X199608Y41064D01*
X200108D01*
Y45108D01*
D02*
G37*
G36*
X340319Y45382D02*
X339019D01*
X337764Y45045D01*
X336638Y44396D01*
X335719Y43476D01*
X335069Y42351D01*
X334732Y41095D01*
Y39795D01*
X335069Y38539D01*
X335719Y37413D01*
X336638Y36494D01*
X337764Y35844D01*
X338398Y35675D01*
X338332Y35175D01*
X327172D01*
X327021Y35325D01*
X326403Y35581D01*
X325734D01*
X325117Y35325D01*
X324644Y34852D01*
X324388Y34234D01*
Y33566D01*
X324644Y32948D01*
X325117Y32475D01*
X325734Y32219D01*
X326403D01*
X327021Y32475D01*
X327172Y32625D01*
X366900D01*
X367388Y32722D01*
X367801Y32999D01*
X369848Y35046D01*
X370263Y34807D01*
X371408Y34500D01*
X372592D01*
X373737Y34807D01*
X374763Y35399D01*
X375601Y36237D01*
X376193Y37263D01*
X376500Y38408D01*
Y39592D01*
X376193Y40737D01*
X375601Y41763D01*
X374763Y42601D01*
X373737Y43193D01*
X372592Y43500D01*
X371408D01*
X370263Y43193D01*
X369237Y42601D01*
X368399Y41763D01*
X367807Y40737D01*
X367500Y39592D01*
Y38408D01*
X367807Y37263D01*
X368046Y36849D01*
X366372Y35175D01*
X341007D01*
X340941Y35675D01*
X341575Y35844D01*
X342701Y36494D01*
X343620Y37413D01*
X344270Y38539D01*
X344606Y39795D01*
Y41095D01*
X344270Y42351D01*
X343620Y43476D01*
X342701Y44396D01*
X341575Y45045D01*
X340319Y45382D01*
D02*
G37*
G36*
X67625Y40527D02*
X65375D01*
X64838Y40420D01*
X64384Y40116D01*
X64080Y39661D01*
X63973Y39125D01*
Y37375D01*
X64080Y36838D01*
X64384Y36384D01*
X64508Y36301D01*
Y35699D01*
X64384Y35616D01*
X64080Y35162D01*
X63973Y34625D01*
Y32875D01*
X64080Y32339D01*
X64384Y31884D01*
X64838Y31580D01*
X65375Y31473D01*
X67625D01*
X68161Y31580D01*
X68616Y31884D01*
X68920Y32339D01*
X69027Y32875D01*
Y34625D01*
X68920Y35162D01*
X68616Y35616D01*
X68492Y35699D01*
Y36301D01*
X68616Y36384D01*
X68920Y36838D01*
X69027Y37375D01*
Y39125D01*
X68920Y39661D01*
X68616Y40116D01*
X68161Y40420D01*
X67625Y40527D01*
D02*
G37*
G36*
X372592Y33500D02*
X371408D01*
X370263Y33193D01*
X369237Y32601D01*
X368399Y31763D01*
X367807Y30737D01*
X367683Y30275D01*
X327272D01*
X327021Y30525D01*
X326403Y30781D01*
X325734D01*
X325117Y30525D01*
X324644Y30052D01*
X324388Y29434D01*
Y28766D01*
X324644Y28148D01*
X325117Y27675D01*
X325734Y27419D01*
X326403D01*
X327021Y27675D01*
X327072Y27725D01*
X367683D01*
X367807Y27263D01*
X368399Y26237D01*
X369237Y25399D01*
X370263Y24807D01*
X371408Y24500D01*
X372592D01*
X373737Y24807D01*
X374763Y25399D01*
X375601Y26237D01*
X376193Y27263D01*
X376500Y28408D01*
Y29592D01*
X376193Y30737D01*
X375601Y31763D01*
X374763Y32601D01*
X373737Y33193D01*
X372592Y33500D01*
D02*
G37*
G36*
X81165Y34287D02*
X79750D01*
Y29285D01*
X84358D01*
Y31095D01*
X84249Y31921D01*
X83930Y32691D01*
X83423Y33352D01*
X82762Y33859D01*
X81992Y34178D01*
X81165Y34287D01*
D02*
G37*
G36*
X78250D02*
X76835D01*
X76008Y34178D01*
X75238Y33859D01*
X74577Y33352D01*
X74070Y32691D01*
X73751Y31921D01*
X73642Y31095D01*
Y29285D01*
X78250D01*
Y34287D01*
D02*
G37*
G36*
X288834Y29681D02*
X288166D01*
X287548Y29425D01*
X287075Y28952D01*
X286819Y28334D01*
Y28121D01*
X286123Y27425D01*
X285751Y27628D01*
X285681Y27691D01*
Y28334D01*
X285425Y28952D01*
X284952Y29425D01*
X284334Y29681D01*
X283666D01*
X283048Y29425D01*
X282575Y28952D01*
X282319Y28334D01*
Y28121D01*
X281623Y27425D01*
X281251Y27628D01*
X281181Y27691D01*
Y28334D01*
X280925Y28952D01*
X280452Y29425D01*
X279834Y29681D01*
X279166D01*
X278548Y29425D01*
X278075Y28952D01*
X277819Y28334D01*
Y28121D01*
X277123Y27425D01*
X276750Y27628D01*
X276681Y27691D01*
Y28334D01*
X276425Y28952D01*
X275952Y29425D01*
X275334Y29681D01*
X274666D01*
X274048Y29425D01*
X273897Y29274D01*
X234500D01*
X234012Y29177D01*
X233599Y28901D01*
X215152Y10454D01*
X214737Y10693D01*
X213592Y11000D01*
X212408D01*
X211263Y10693D01*
X210237Y10101D01*
X209399Y9263D01*
X208807Y8237D01*
X208500Y7092D01*
Y5908D01*
X208807Y4763D01*
X209399Y3737D01*
X210237Y2899D01*
X211263Y2307D01*
X212408Y2000D01*
X213592D01*
X214737Y2307D01*
X215763Y2899D01*
X216601Y3737D01*
X217193Y4763D01*
X217500Y5908D01*
Y7092D01*
X217193Y8237D01*
X216954Y8652D01*
X235028Y26726D01*
X241205D01*
X241254Y26226D01*
X241012Y26177D01*
X240599Y25901D01*
X225151Y10454D01*
X224737Y10693D01*
X223592Y11000D01*
X222408D01*
X221263Y10693D01*
X220237Y10101D01*
X219399Y9263D01*
X218807Y8237D01*
X218500Y7092D01*
Y5908D01*
X218807Y4763D01*
X219399Y3737D01*
X220237Y2899D01*
X221263Y2307D01*
X222408Y2000D01*
X223592D01*
X224737Y2307D01*
X225763Y2899D01*
X226601Y3737D01*
X227193Y4763D01*
X227500Y5908D01*
Y7092D01*
X227193Y8237D01*
X226954Y8652D01*
X242028Y23726D01*
X247716D01*
X247923Y23225D01*
X235152Y10454D01*
X234737Y10693D01*
X233592Y11000D01*
X232408D01*
X231263Y10693D01*
X230237Y10101D01*
X229399Y9263D01*
X228807Y8237D01*
X228500Y7092D01*
Y5908D01*
X228807Y4763D01*
X229399Y3737D01*
X230237Y2899D01*
X231263Y2307D01*
X232408Y2000D01*
X233592D01*
X234737Y2307D01*
X235763Y2899D01*
X236601Y3737D01*
X237193Y4763D01*
X237500Y5908D01*
Y7092D01*
X237193Y8237D01*
X236954Y8652D01*
X249528Y21226D01*
X255216D01*
X255423Y20726D01*
X245151Y10454D01*
X244737Y10693D01*
X243592Y11000D01*
X242408D01*
X241263Y10693D01*
X240237Y10101D01*
X239399Y9263D01*
X238807Y8237D01*
X238500Y7092D01*
Y5908D01*
X238807Y4763D01*
X239399Y3737D01*
X240237Y2899D01*
X241263Y2307D01*
X242408Y2000D01*
X243592D01*
X244737Y2307D01*
X245763Y2899D01*
X246601Y3737D01*
X247193Y4763D01*
X247500Y5908D01*
Y7092D01*
X247193Y8237D01*
X246954Y8652D01*
X257028Y18725D01*
X262716D01*
X262923Y18225D01*
X255152Y10454D01*
X254737Y10693D01*
X253592Y11000D01*
X252408D01*
X251263Y10693D01*
X250237Y10101D01*
X249399Y9263D01*
X248807Y8237D01*
X248500Y7092D01*
Y5908D01*
X248807Y4763D01*
X249399Y3737D01*
X250237Y2899D01*
X251263Y2307D01*
X252408Y2000D01*
X253592D01*
X254737Y2307D01*
X255763Y2899D01*
X256601Y3737D01*
X257193Y4763D01*
X257500Y5908D01*
Y7092D01*
X257193Y8237D01*
X256954Y8652D01*
X264728Y16425D01*
X270416D01*
X270623Y15925D01*
X265152Y10454D01*
X264737Y10693D01*
X263592Y11000D01*
X262408D01*
X261263Y10693D01*
X260237Y10101D01*
X259399Y9263D01*
X258807Y8237D01*
X258500Y7092D01*
Y5908D01*
X258807Y4763D01*
X259399Y3737D01*
X260237Y2899D01*
X261263Y2307D01*
X262408Y2000D01*
X263592D01*
X264737Y2307D01*
X265763Y2899D01*
X266601Y3737D01*
X267193Y4763D01*
X267500Y5908D01*
Y7092D01*
X267193Y8237D01*
X266954Y8652D01*
X272228Y13926D01*
X277916D01*
X278123Y13426D01*
X275151Y10454D01*
X274737Y10693D01*
X273592Y11000D01*
X272408D01*
X271263Y10693D01*
X270237Y10101D01*
X269399Y9263D01*
X268807Y8237D01*
X268500Y7092D01*
Y5908D01*
X268807Y4763D01*
X269399Y3737D01*
X270237Y2899D01*
X271263Y2307D01*
X272408Y2000D01*
X273592D01*
X274737Y2307D01*
X275763Y2899D01*
X276601Y3737D01*
X277193Y4763D01*
X277500Y5908D01*
Y7092D01*
X277193Y8237D01*
X276954Y8652D01*
X279728Y11426D01*
X282064D01*
X282130Y10926D01*
X281263Y10693D01*
X280237Y10101D01*
X279399Y9263D01*
X278807Y8237D01*
X278500Y7092D01*
Y5908D01*
X278807Y4763D01*
X279399Y3737D01*
X280237Y2899D01*
X281263Y2307D01*
X282408Y2000D01*
X283592D01*
X284737Y2307D01*
X285763Y2899D01*
X286601Y3737D01*
X287193Y4763D01*
X287500Y5908D01*
Y7092D01*
X287193Y8237D01*
X286954Y8652D01*
X293528Y15225D01*
X305397D01*
X305528Y15095D01*
X305553Y14966D01*
X305571Y14559D01*
X305263Y14275D01*
X299500D01*
X299012Y14177D01*
X298599Y13901D01*
X295151Y10454D01*
X294737Y10693D01*
X293592Y11000D01*
X292408D01*
X291263Y10693D01*
X290237Y10101D01*
X289399Y9263D01*
X288807Y8237D01*
X288500Y7092D01*
Y5908D01*
X288807Y4763D01*
X289399Y3737D01*
X290237Y2899D01*
X291263Y2307D01*
X292408Y2000D01*
X293592D01*
X294737Y2307D01*
X295763Y2899D01*
X296601Y3737D01*
X297193Y4763D01*
X297500Y5908D01*
Y7092D01*
X297193Y8237D01*
X296954Y8652D01*
X300028Y11726D01*
X305397D01*
X305548Y11575D01*
X306166Y11319D01*
X306834D01*
X307452Y11575D01*
X307925Y12048D01*
X308181Y12666D01*
Y13334D01*
X307925Y13952D01*
X307452Y14425D01*
X307321Y14479D01*
Y15021D01*
X307452Y15075D01*
X307925Y15548D01*
X308181Y16166D01*
Y16834D01*
X307925Y17452D01*
X307452Y17925D01*
X307321Y17979D01*
Y18521D01*
X307452Y18575D01*
X307925Y19048D01*
X308181Y19666D01*
Y20334D01*
X307925Y20952D01*
X307452Y21425D01*
X307321Y21479D01*
Y22021D01*
X307452Y22075D01*
X307925Y22548D01*
X308181Y23166D01*
Y23834D01*
X307925Y24452D01*
X307452Y24925D01*
X306834Y25181D01*
X306166D01*
X305548Y24925D01*
X305397Y24775D01*
X292000D01*
X291855Y24746D01*
X291609Y25207D01*
X292474Y26071D01*
X305556D01*
X306166Y25819D01*
X306834D01*
X307452Y26075D01*
X307925Y26548D01*
X308181Y27166D01*
Y27834D01*
X307925Y28452D01*
X307452Y28925D01*
X306834Y29181D01*
X306166D01*
X305548Y28925D01*
X305243Y28620D01*
X291946D01*
X291458Y28523D01*
X291045Y28247D01*
X290681Y27883D01*
X290181Y28091D01*
Y28334D01*
X289925Y28952D01*
X289452Y29425D01*
X288834Y29681D01*
D02*
G37*
G36*
X21364Y34346D02*
X20219D01*
X19114Y34050D01*
X18123Y33478D01*
X17313Y32669D01*
X16741Y31678D01*
X16445Y30572D01*
Y29428D01*
X16741Y28322D01*
X17313Y27331D01*
X18123Y26522D01*
X19114Y25950D01*
X20219Y25654D01*
X21364D01*
X22469Y25950D01*
X23460Y26522D01*
X24269Y27331D01*
X24842Y28322D01*
X25138Y29428D01*
Y30572D01*
X24842Y31678D01*
X24269Y32669D01*
X23460Y33478D01*
X22469Y34050D01*
X21364Y34346D01*
D02*
G37*
G36*
X39390Y34543D02*
X38193D01*
X37038Y34234D01*
X36002Y33636D01*
X35156Y32790D01*
X34558Y31754D01*
X34248Y30598D01*
Y29402D01*
X34558Y28246D01*
X35156Y27210D01*
X36002Y26364D01*
X37038Y25766D01*
X38193Y25457D01*
X39390D01*
X40545Y25766D01*
X41581Y26364D01*
X42427Y27210D01*
X43025Y28246D01*
X43335Y29402D01*
Y30598D01*
X43025Y31754D01*
X42427Y32790D01*
X41581Y33636D01*
X40545Y34234D01*
X39390Y34543D01*
D02*
G37*
G36*
X84358Y27785D02*
X79750D01*
Y22784D01*
X81165D01*
X81992Y22893D01*
X82762Y23211D01*
X83423Y23719D01*
X83930Y24380D01*
X84249Y25150D01*
X84358Y25976D01*
Y27785D01*
D02*
G37*
G36*
X78250D02*
X73642D01*
Y25976D01*
X73751Y25150D01*
X74070Y24380D01*
X74577Y23719D01*
X75238Y23211D01*
X76008Y22893D01*
X76835Y22784D01*
X78250D01*
Y27785D01*
D02*
G37*
G36*
X163834Y36081D02*
X163166D01*
X162548Y35825D01*
X162075Y35352D01*
X161819Y34734D01*
Y34066D01*
X161971Y33699D01*
Y30831D01*
X160134D01*
X159181Y30705D01*
X158293Y30338D01*
X157531Y29752D01*
X156946Y28990D01*
X156578Y28102D01*
X156453Y27150D01*
Y20850D01*
X156578Y19898D01*
X156602Y19841D01*
X147544Y10784D01*
X114456D01*
X105398Y19841D01*
X105422Y19898D01*
X105547Y20850D01*
Y27150D01*
X105422Y28102D01*
X105054Y28990D01*
X104469Y29752D01*
X103707Y30338D01*
X102819Y30705D01*
X101866Y30831D01*
X95567D01*
X94614Y30705D01*
X93726Y30338D01*
X92964Y29752D01*
X92379Y28990D01*
X92011Y28102D01*
X91886Y27150D01*
Y20850D01*
X92011Y19898D01*
X92379Y19010D01*
X92964Y18248D01*
X93726Y17662D01*
X94614Y17295D01*
X95567Y17169D01*
X101866D01*
X102819Y17295D01*
X102875Y17318D01*
X112455Y7738D01*
X112455Y7738D01*
X113034Y7351D01*
X113716Y7216D01*
X148284D01*
X148966Y7351D01*
X149545Y7738D01*
X159125Y17318D01*
X159181Y17295D01*
X160134Y17169D01*
X166433D01*
X167386Y17295D01*
X168274Y17662D01*
X169036Y18248D01*
X169621Y19010D01*
X169989Y19898D01*
X170114Y20850D01*
Y27150D01*
X169989Y28102D01*
X169621Y28990D01*
X169036Y29752D01*
X168274Y30338D01*
X167386Y30705D01*
X166433Y30831D01*
X165029D01*
Y33699D01*
X165181Y34066D01*
Y34734D01*
X164925Y35352D01*
X164452Y35825D01*
X163834Y36081D01*
D02*
G37*
G36*
X48206Y13493D02*
X45956D01*
Y8213D01*
X51736D01*
Y9962D01*
X51616Y10876D01*
X51263Y11728D01*
X50702Y12459D01*
X49971Y13020D01*
X49119Y13372D01*
X48206Y13493D01*
D02*
G37*
G36*
X44456D02*
X42206D01*
X41292Y13372D01*
X40441Y13020D01*
X39710Y12459D01*
X39149Y11728D01*
X38796Y10876D01*
X38676Y9962D01*
Y8213D01*
X44456D01*
Y13493D01*
D02*
G37*
G36*
X25158Y13393D02*
X22908D01*
Y8112D01*
X28688D01*
Y9862D01*
X28568Y10776D01*
X28215Y11628D01*
X27654Y12359D01*
X26923Y12920D01*
X26072Y13272D01*
X25158Y13393D01*
D02*
G37*
G36*
X21408D02*
X19158D01*
X18244Y13272D01*
X17393Y12920D01*
X16662Y12359D01*
X16101Y11628D01*
X15748Y10776D01*
X15628Y9862D01*
Y8112D01*
X21408D01*
Y13393D01*
D02*
G37*
G36*
X203750Y11475D02*
Y7250D01*
X207975D01*
X207659Y8430D01*
X207001Y9570D01*
X206070Y10501D01*
X204930Y11159D01*
X203750Y11475D01*
D02*
G37*
G36*
X81165Y50712D02*
X76835D01*
X76139Y50620D01*
X75490Y50352D01*
X74934Y49925D01*
X74506Y49368D01*
X74238Y48719D01*
X74146Y48024D01*
Y42906D01*
X74238Y42210D01*
X74506Y41561D01*
X74934Y41005D01*
X75490Y40577D01*
X76139Y40309D01*
X76835Y40217D01*
X81165D01*
X81861Y40309D01*
X82509Y40577D01*
X83066Y41005D01*
X83494Y41561D01*
X83762Y42210D01*
X83854Y42904D01*
X85451D01*
Y23756D01*
X83662Y21967D01*
X83110Y21140D01*
X82916Y20165D01*
Y19058D01*
X82563Y18823D01*
X82126Y18169D01*
X81973Y17398D01*
Y4602D01*
X82126Y3831D01*
X82563Y3178D01*
X83217Y2741D01*
X83988Y2587D01*
X86941D01*
X87712Y2741D01*
X88366Y3178D01*
X88803Y3831D01*
X88956Y4602D01*
Y17398D01*
X88803Y18169D01*
X88366Y18823D01*
X88344Y19439D01*
X89802Y20898D01*
X90355Y21724D01*
X90549Y22700D01*
Y42466D01*
X91500D01*
X92183Y42601D01*
X92762Y42988D01*
X93148Y43567D01*
X93284Y44250D01*
Y46750D01*
X93148Y47433D01*
X92762Y48012D01*
X92183Y48399D01*
X91500Y48534D01*
X89000D01*
X88317Y48399D01*
X87738Y48012D01*
X87732Y48002D01*
X83854D01*
Y48024D01*
X83762Y48719D01*
X83494Y49368D01*
X83066Y49925D01*
X82509Y50352D01*
X81861Y50620D01*
X81165Y50712D01*
D02*
G37*
G36*
X363592Y11000D02*
X362408D01*
X361263Y10693D01*
X360237Y10101D01*
X359399Y9263D01*
X358807Y8237D01*
X358500Y7092D01*
Y5908D01*
X358807Y4763D01*
X359399Y3737D01*
X360237Y2899D01*
X361263Y2307D01*
X362408Y2000D01*
X363592D01*
X364737Y2307D01*
X365763Y2899D01*
X366601Y3737D01*
X367193Y4763D01*
X367500Y5908D01*
Y7092D01*
X367193Y8237D01*
X366601Y9263D01*
X365763Y10101D01*
X364737Y10693D01*
X363592Y11000D01*
D02*
G37*
G36*
X353592D02*
X352408D01*
X351263Y10693D01*
X350237Y10101D01*
X349399Y9263D01*
X348807Y8237D01*
X348500Y7092D01*
Y5908D01*
X348807Y4763D01*
X349399Y3737D01*
X350237Y2899D01*
X351263Y2307D01*
X352408Y2000D01*
X353592D01*
X354737Y2307D01*
X355763Y2899D01*
X356601Y3737D01*
X357193Y4763D01*
X357500Y5908D01*
Y7092D01*
X357193Y8237D01*
X356601Y9263D01*
X355763Y10101D01*
X354737Y10693D01*
X353592Y11000D01*
D02*
G37*
G36*
X343592D02*
X342408D01*
X341263Y10693D01*
X340237Y10101D01*
X339399Y9263D01*
X338807Y8237D01*
X338500Y7092D01*
Y5908D01*
X338807Y4763D01*
X339399Y3737D01*
X340237Y2899D01*
X341263Y2307D01*
X342408Y2000D01*
X343592D01*
X344737Y2307D01*
X345763Y2899D01*
X346601Y3737D01*
X347193Y4763D01*
X347500Y5908D01*
Y7092D01*
X347193Y8237D01*
X346601Y9263D01*
X345763Y10101D01*
X344737Y10693D01*
X343592Y11000D01*
D02*
G37*
G36*
X333592D02*
X332408D01*
X331263Y10693D01*
X330237Y10101D01*
X329399Y9263D01*
X328807Y8237D01*
X328500Y7092D01*
Y5908D01*
X328807Y4763D01*
X329399Y3737D01*
X330237Y2899D01*
X331263Y2307D01*
X332408Y2000D01*
X333592D01*
X334737Y2307D01*
X335763Y2899D01*
X336601Y3737D01*
X337193Y4763D01*
X337500Y5908D01*
Y7092D01*
X337193Y8237D01*
X336601Y9263D01*
X335763Y10101D01*
X334737Y10693D01*
X333592Y11000D01*
D02*
G37*
G36*
X323592D02*
X322408D01*
X321263Y10693D01*
X320237Y10101D01*
X319399Y9263D01*
X318807Y8237D01*
X318500Y7092D01*
Y5908D01*
X318807Y4763D01*
X319399Y3737D01*
X320237Y2899D01*
X321263Y2307D01*
X322408Y2000D01*
X323592D01*
X324737Y2307D01*
X325763Y2899D01*
X326601Y3737D01*
X327193Y4763D01*
X327500Y5908D01*
Y7092D01*
X327193Y8237D01*
X326601Y9263D01*
X325763Y10101D01*
X324737Y10693D01*
X323592Y11000D01*
D02*
G37*
G36*
X313592D02*
X312408D01*
X311263Y10693D01*
X310237Y10101D01*
X309399Y9263D01*
X308807Y8237D01*
X308500Y7092D01*
Y5908D01*
X308807Y4763D01*
X309399Y3737D01*
X310237Y2899D01*
X311263Y2307D01*
X312408Y2000D01*
X313592D01*
X314737Y2307D01*
X315763Y2899D01*
X316601Y3737D01*
X317193Y4763D01*
X317500Y5908D01*
Y7092D01*
X317193Y8237D01*
X316601Y9263D01*
X315763Y10101D01*
X314737Y10693D01*
X313592Y11000D01*
D02*
G37*
G36*
X303592D02*
X302408D01*
X301263Y10693D01*
X300237Y10101D01*
X299399Y9263D01*
X298807Y8237D01*
X298500Y7092D01*
Y5908D01*
X298807Y4763D01*
X299399Y3737D01*
X300237Y2899D01*
X301263Y2307D01*
X302408Y2000D01*
X303592D01*
X304737Y2307D01*
X305763Y2899D01*
X306601Y3737D01*
X307193Y4763D01*
X307500Y5908D01*
Y7092D01*
X307193Y8237D01*
X306601Y9263D01*
X305763Y10101D01*
X304737Y10693D01*
X303592Y11000D01*
D02*
G37*
G36*
X207975Y5750D02*
X203750D01*
Y1525D01*
X204930Y1841D01*
X206070Y2499D01*
X207001Y3430D01*
X207659Y4570D01*
X207975Y5750D01*
D02*
G37*
G36*
X193750Y11475D02*
Y6500D01*
Y1525D01*
X194930Y1841D01*
X196070Y2499D01*
X197001Y3430D01*
X197659Y4570D01*
X197750Y4909D01*
X198250D01*
X198341Y4570D01*
X198999Y3430D01*
X199930Y2499D01*
X201070Y1841D01*
X202250Y1525D01*
Y6500D01*
Y11475D01*
X201070Y11159D01*
X199930Y10501D01*
X198999Y9570D01*
X198341Y8430D01*
X198250Y8091D01*
X197750D01*
X197659Y8430D01*
X197001Y9570D01*
X196070Y10501D01*
X194930Y11159D01*
X193750Y11475D01*
D02*
G37*
G36*
X192250Y5750D02*
X188025D01*
X188341Y4570D01*
X188999Y3430D01*
X189930Y2499D01*
X191070Y1841D01*
X192250Y1525D01*
Y5750D01*
D02*
G37*
G36*
X51736Y6713D02*
X45956D01*
Y1432D01*
X48206D01*
X49119Y1553D01*
X49971Y1905D01*
X50702Y2466D01*
X51263Y3197D01*
X51616Y4049D01*
X51736Y4963D01*
Y6713D01*
D02*
G37*
G36*
X44456D02*
X38676D01*
Y4963D01*
X38796Y4049D01*
X39149Y3197D01*
X39710Y2466D01*
X40441Y1905D01*
X41292Y1553D01*
X42206Y1432D01*
X44456D01*
Y6713D01*
D02*
G37*
G36*
X28688Y6612D02*
X22908D01*
Y1332D01*
X25158D01*
X26072Y1453D01*
X26923Y1805D01*
X27654Y2366D01*
X28215Y3097D01*
X28568Y3949D01*
X28688Y4862D01*
Y6612D01*
D02*
G37*
G36*
X21408D02*
X15628D01*
Y4862D01*
X15748Y3949D01*
X16101Y3097D01*
X16662Y2366D01*
X17393Y1805D01*
X18244Y1453D01*
X19158Y1332D01*
X21408D01*
Y6612D01*
D02*
G37*
%LPD*%
G36*
X150048Y160649D02*
Y143283D01*
X149635Y142910D01*
X149140Y142967D01*
X149004Y143171D01*
X148425Y143558D01*
X148016Y143639D01*
Y144480D01*
X148020Y144500D01*
X147942Y144890D01*
X147721Y145221D01*
X147390Y145442D01*
X147000Y145520D01*
X146610Y145442D01*
X146279Y145221D01*
X146275Y145217D01*
X146054Y144886D01*
X145976Y144496D01*
Y143641D01*
X145559Y143558D01*
X144980Y143171D01*
X144844Y142967D01*
X144350Y142910D01*
X143936Y143283D01*
Y144161D01*
Y163339D01*
X143839Y163826D01*
X143563Y164240D01*
X135801Y172001D01*
X135388Y172277D01*
X134900Y172374D01*
X88117D01*
X87966Y172874D01*
X88031Y172919D01*
X88363Y173415D01*
X88479Y174000D01*
Y176000D01*
X88363Y176585D01*
X88253Y176750D01*
X96328Y184826D01*
X101492D01*
X101550Y184664D01*
X101575Y184326D01*
X100931Y183895D01*
X100449Y183174D01*
X100280Y182323D01*
Y179923D01*
X103685D01*
X107090D01*
Y182323D01*
X106921Y183174D01*
X106439Y183895D01*
X105795Y184326D01*
X105820Y184664D01*
X105878Y184826D01*
X125872D01*
X150048Y160649D01*
D02*
G37*
G36*
X132726Y164972D02*
Y155759D01*
X132226Y155552D01*
X132152Y155625D01*
X131534Y155881D01*
X130866D01*
X130248Y155625D01*
X129775Y155152D01*
X129519Y154534D01*
Y153866D01*
X129775Y153248D01*
X130180Y152842D01*
Y146077D01*
X129775Y145671D01*
X129519Y145053D01*
Y144385D01*
X129626Y144127D01*
X129330Y143558D01*
X129258Y143544D01*
X124601Y148201D01*
X124188Y148477D01*
X123700Y148574D01*
X87628D01*
X87421Y149074D01*
X87425Y149079D01*
X87681Y149697D01*
Y150365D01*
X87425Y150983D01*
X86952Y151456D01*
X86334Y151712D01*
X86131D01*
X85975Y151869D01*
Y162471D01*
X86950D01*
X87535Y162587D01*
X88031Y162919D01*
X88363Y163415D01*
X88479Y164000D01*
Y166000D01*
X88363Y166585D01*
X88069Y167025D01*
X88133Y167273D01*
X88267Y167525D01*
X130172D01*
X132726Y164972D01*
D02*
G37*
G36*
X147742Y135125D02*
X148425Y135261D01*
X149004Y135648D01*
X149158Y135878D01*
X149313Y135917D01*
X149792Y135928D01*
X150085Y135732D01*
X150303Y135689D01*
Y133581D01*
X149875Y133152D01*
X149619Y132534D01*
Y131866D01*
X149875Y131248D01*
X150348Y130775D01*
X150966Y130519D01*
X151634D01*
X152252Y130775D01*
X152725Y131248D01*
X152981Y131866D01*
Y132534D01*
X152725Y133152D01*
X152342Y133535D01*
Y135689D01*
X152561Y135732D01*
X152974Y136008D01*
X153224Y136382D01*
X153488Y136409D01*
X153752Y136382D01*
X154002Y136008D01*
X154416Y135732D01*
X154634Y135689D01*
Y133548D01*
X154238Y133152D01*
X153982Y132534D01*
Y131866D01*
X154238Y131248D01*
X154711Y130775D01*
X155329Y130519D01*
X155328Y130020D01*
X155007D01*
X154617Y129942D01*
X154286Y129721D01*
X153700Y129135D01*
X153479Y128804D01*
X153402Y128414D01*
X153321Y128329D01*
X152902Y128082D01*
X152748Y128112D01*
X152157D01*
X151847Y128050D01*
X151840Y128045D01*
X151469Y127915D01*
X151097Y128045D01*
X151090Y128050D01*
X150779Y128112D01*
X150189D01*
X149879Y128050D01*
X149872Y128045D01*
X149500Y127915D01*
X149128Y128045D01*
X149121Y128050D01*
X148811Y128112D01*
X148221D01*
X148067Y128082D01*
X147660Y128322D01*
X147567Y128422D01*
Y131459D01*
X147489Y131849D01*
X147268Y132180D01*
X144139Y135309D01*
X144208Y135894D01*
X144696Y135911D01*
X144827Y135878D01*
X144980Y135648D01*
X145559Y135261D01*
X146242Y135125D01*
D01*
Y139409D01*
X147742D01*
Y135125D01*
D02*
G37*
G36*
X141900Y120900D02*
X154400D01*
X154600Y120700D01*
X154400Y118400D01*
X141800D01*
X140000Y116600D01*
X138200Y118400D01*
Y121700D01*
X138900D01*
X140000Y122800D01*
X141900Y120900D01*
D02*
G37*
%LPC*%
G36*
X122541Y183421D02*
X121837D01*
X121157Y183239D01*
X120548Y182887D01*
X120050Y182389D01*
X119698Y181780D01*
X119516Y181100D01*
Y180396D01*
X119698Y179716D01*
X120050Y179107D01*
X120548Y178609D01*
X121157Y178257D01*
X121837Y178075D01*
X122541D01*
X123221Y178257D01*
X123830Y178609D01*
X124328Y179107D01*
X124680Y179716D01*
X124862Y180396D01*
Y181100D01*
X124680Y181780D01*
X124328Y182389D01*
X123830Y182887D01*
X123221Y183239D01*
X122541Y183421D01*
D02*
G37*
G36*
X107090Y178423D02*
X104435D01*
Y173800D01*
X104866D01*
X105717Y173969D01*
X106439Y174451D01*
X106921Y175173D01*
X107090Y176024D01*
Y178423D01*
D02*
G37*
G36*
X102935D02*
X100280D01*
Y176024D01*
X100449Y175173D01*
X100931Y174451D01*
X101653Y173969D01*
X102504Y173800D01*
X102935D01*
Y178423D01*
D02*
G37*
%LPD*%
G36*
X41648Y138475D02*
X41590Y137958D01*
X41220Y137884D01*
X40558Y137442D01*
X40116Y136780D01*
X39961Y136000D01*
Y124345D01*
X36155Y120539D01*
X26345D01*
X22039Y124845D01*
Y133385D01*
X22038Y133392D01*
X22041Y133400D01*
Y134996D01*
X22743Y135698D01*
X23528D01*
X24015Y135795D01*
X24099Y135851D01*
X24351D01*
X24693Y135351D01*
X24683Y135299D01*
Y134709D01*
X24745Y134398D01*
X24750Y134391D01*
X24880Y134020D01*
X24750Y133648D01*
X24745Y133641D01*
X24683Y133331D01*
Y132740D01*
X24730Y132508D01*
X24560Y132395D01*
X24274Y131966D01*
X24214Y131665D01*
X26872D01*
Y130665D01*
X24214D01*
X24274Y130365D01*
X24418Y130149D01*
X24214Y129671D01*
X24176Y129637D01*
X24105Y129608D01*
X23997D01*
X23635Y129458D01*
X23559Y129382D01*
X23460Y129340D01*
X23183Y129064D01*
X23142Y128964D01*
X23066Y128888D01*
X22916Y128526D01*
Y128419D01*
X22874Y128319D01*
Y127928D01*
X22916Y127828D01*
Y127720D01*
X23066Y127359D01*
X23142Y127283D01*
X23183Y127183D01*
X23460Y126906D01*
X23559Y126865D01*
X23635Y126789D01*
X23997Y126639D01*
X24105D01*
X24204Y126598D01*
X24596D01*
X24758Y126154D01*
X27659D01*
Y125654D01*
X28159D01*
Y124972D01*
X29726D01*
X34623D01*
X34587Y125247D01*
X34288Y125970D01*
X33812Y126590D01*
X33192Y127065D01*
X32470Y127365D01*
X31695Y127467D01*
X30484D01*
X30456Y127682D01*
X30273Y128123D01*
X30612Y128565D01*
X31687D01*
Y130181D01*
X32187D01*
Y130681D01*
X35042D01*
X34982Y130982D01*
X34696Y131410D01*
X34513Y131532D01*
X34511Y131544D01*
X34573Y131854D01*
Y132445D01*
X34511Y132755D01*
X34506Y132762D01*
X34376Y133134D01*
X34506Y133505D01*
X34511Y133512D01*
X34573Y133823D01*
Y134413D01*
X34562Y134465D01*
X34905Y134965D01*
X36276D01*
X36467Y134775D01*
X37084Y134519D01*
X37753D01*
X38371Y134775D01*
X38844Y135248D01*
X39100Y135866D01*
Y136534D01*
X38844Y137152D01*
X38371Y137625D01*
X37753Y137881D01*
X37084D01*
X36467Y137625D01*
X36050Y137208D01*
X34905D01*
X34562Y137708D01*
X34573Y137760D01*
Y138350D01*
X34562Y138402D01*
X34905Y138902D01*
X41221D01*
X41648Y138475D01*
D02*
G37*
G36*
X21288Y137712D02*
X22636D01*
Y137108D01*
X22500Y136972D01*
Y136228D01*
X22504Y136224D01*
X21500Y135220D01*
Y133400D01*
X20015D01*
X20000Y133385D01*
X18500Y133500D01*
Y139000D01*
X20000D01*
X21288Y137712D01*
D02*
G37*
%LPC*%
G36*
X35042Y129681D02*
X32687D01*
Y128565D01*
X33762D01*
X34267Y128666D01*
X34696Y128952D01*
X34982Y129380D01*
X35042Y129681D01*
D02*
G37*
G36*
X27160Y125154D02*
X24765D01*
Y124972D01*
X27160D01*
Y125154D01*
D02*
G37*
G36*
Y123972D02*
X24817D01*
X24863Y123625D01*
X25152Y122927D01*
X25613Y122327D01*
X26212Y121867D01*
X26910Y121578D01*
X27160Y121545D01*
Y123972D01*
D02*
G37*
G36*
X34623D02*
X30226D01*
Y121478D01*
X31695D01*
X32470Y121580D01*
X33192Y121879D01*
X33812Y122355D01*
X34288Y122975D01*
X34587Y123697D01*
X34623Y123972D01*
D02*
G37*
G36*
X29226D02*
X28159D01*
Y121478D01*
X29226D01*
Y123972D01*
D02*
G37*
G36*
X285625Y97037D02*
X285500D01*
Y94750D01*
X287537D01*
Y95125D01*
X287391Y95857D01*
X286977Y96477D01*
X286357Y96891D01*
X285625Y97037D01*
D02*
G37*
G36*
X287537Y93250D02*
X285500D01*
Y90963D01*
X285625D01*
X286357Y91109D01*
X286977Y91523D01*
X287391Y92143D01*
X287537Y92875D01*
Y93250D01*
D02*
G37*
%LPD*%
D13*
X302984Y108324D02*
X305909Y111249D01*
X302984Y101677D02*
Y108324D01*
X235100Y91400D02*
Y117400D01*
X238500Y120800D02*
Y160488D01*
X235100Y117400D02*
X238500Y120800D01*
X237300Y93200D02*
Y116500D01*
X241000Y120200D02*
Y163088D01*
X237300Y116500D02*
X241000Y120200D01*
X232689Y90311D02*
Y117311D01*
X222700Y127300D02*
Y161693D01*
Y127300D02*
X232689Y117311D01*
X225239Y128861D02*
Y161275D01*
Y128861D02*
X225500Y128600D01*
X146992Y139409D02*
X146996Y139413D01*
Y144496D01*
X147000Y144500D01*
X155654Y132431D02*
Y139409D01*
X151323Y132223D02*
Y139409D01*
X288500Y141369D02*
X289205Y142073D01*
Y146323D01*
X288500Y141000D02*
Y141369D01*
Y134101D02*
Y137400D01*
X291173Y140073D01*
Y146323D01*
X291000Y136038D02*
X291215Y136252D01*
X293142Y139542D02*
Y146323D01*
X291215Y136252D02*
Y137615D01*
X293142Y139542D01*
X297079Y141079D02*
Y146323D01*
X293519Y134077D02*
Y137519D01*
X297079Y141079D01*
X299047Y140747D02*
Y146323D01*
X296000Y136038D02*
X296065Y136102D01*
Y137765D01*
X299047Y140747D01*
X298481Y134077D02*
Y137381D01*
X301016Y139916D02*
Y146323D01*
X298481Y137381D02*
X301016Y139916D01*
X305003Y136021D02*
Y141497D01*
X303688Y134707D02*
X305003Y136021D01*
X303688Y134372D02*
Y134707D01*
X301000Y136293D02*
X302768Y138061D01*
X301000Y136038D02*
Y136293D01*
X302768Y138061D02*
Y138768D01*
X304800Y131300D02*
X306921Y133421D01*
X286000Y133093D02*
Y141000D01*
X287793Y131300D02*
X304800D01*
X286000Y133093D02*
X287793Y131300D01*
X302768Y138768D02*
X302984Y138984D01*
X324323Y134827D02*
X329781D01*
X330367Y135413D01*
Y137867D01*
X301016Y109216D02*
X304600Y112800D01*
X301016Y101677D02*
Y109216D01*
X304600Y112800D02*
X314100D01*
X305909Y111249D02*
X312951D01*
X314100Y112800D02*
X320177Y106723D01*
X312951Y111249D02*
X319468Y104732D01*
X142661Y139409D02*
X142831Y139579D01*
Y143992D01*
X142661Y144161D02*
X142831Y143992D01*
X263586Y130131D02*
X265029D01*
X262193Y127390D02*
X263000Y128197D01*
Y129546D02*
X263586Y130131D01*
X263000Y128197D02*
Y129546D01*
X260666Y127390D02*
X262193D01*
X259750Y126473D02*
X260666Y127390D01*
X266250Y131353D02*
Y131400D01*
X265029Y130131D02*
X266250Y131353D01*
X155007Y129000D02*
X162800D01*
X154421Y126347D02*
Y128414D01*
X162800Y129000D02*
X171000Y137200D01*
X154421Y128414D02*
X155007Y129000D01*
X314795Y142605D02*
X315600Y141800D01*
X314795Y142605D02*
Y146323D01*
X315600Y141800D02*
X320800D01*
X317283Y122966D02*
X318812Y124496D01*
X282077Y122966D02*
X317283D01*
X357000Y142000D02*
X358380Y140620D01*
Y104732D02*
Y140620D01*
X142407Y123088D02*
Y126340D01*
X142413Y126347D01*
X142400Y123081D02*
X142407Y123088D01*
X319468Y104732D02*
X348000D01*
X344484Y123016D02*
X355300Y112200D01*
Y111900D02*
Y112200D01*
X324323Y121047D02*
X342065D01*
X358380Y104732D01*
X320177Y106723D02*
X345723D01*
X348800Y109800D01*
X324323Y119079D02*
X335921D01*
X345000Y110000D01*
X336927Y110073D02*
Y110073D01*
X331858Y115142D02*
X336927Y110073D01*
X324323Y115142D02*
X331858D01*
X324323Y113173D02*
X330172D01*
X333345Y110000D01*
X306921Y133421D02*
Y146323D01*
X230700Y168288D02*
X238500Y160488D01*
X235800Y168288D02*
X241000Y163088D01*
X224009Y184000D02*
X254100Y153909D01*
X171000Y137200D02*
Y158500D01*
X163547Y126347D02*
X173500Y136300D01*
Y161519D01*
X155600Y139463D02*
X155654Y139409D01*
X155600Y139463D02*
Y144500D01*
X144579Y126347D02*
Y129621D01*
X142000Y132200D02*
X144579Y129621D01*
X147072Y122905D02*
X147072D01*
X148516Y124348D01*
Y126347D01*
X150528Y122929D02*
X150573Y122885D01*
X153160Y123740D02*
Y123806D01*
X150484Y126347D02*
X150528Y126302D01*
Y122929D02*
Y126302D01*
X154100Y122800D02*
X162200D01*
X152453Y124513D02*
X153160Y123806D01*
X152453Y124513D02*
Y126347D01*
X153160Y123740D02*
X154100Y122800D01*
X146547Y126347D02*
Y131459D01*
X162200Y122800D02*
X162300Y122700D01*
X142661Y135345D02*
X146547Y131459D01*
X142661Y135345D02*
Y139409D01*
X156587Y126347D02*
X163547D01*
X310858Y146323D02*
Y150263D01*
Y138651D02*
Y146323D01*
X305545Y151253D02*
X307526D01*
X305500Y151298D02*
X305545Y151253D01*
X308890Y137101D02*
Y149890D01*
X307526Y151253D02*
X308890Y149890D01*
X309592Y151530D02*
X310858Y150263D01*
X312827Y151324D02*
X313007Y151504D01*
X309592Y151530D02*
Y153399D01*
X312827Y140182D02*
Y151324D01*
X309481Y153511D02*
X309592Y153399D01*
X317221Y151868D02*
Y151959D01*
X311681Y157500D02*
X317221Y151959D01*
X305500Y157500D02*
X311681D01*
X301625Y153625D02*
X305500Y157500D01*
X131200Y144719D02*
Y154200D01*
X254100Y143400D02*
Y153909D01*
X220984Y184000D02*
X224009D01*
X213393Y171000D02*
X222700Y161693D01*
X213636Y175000D02*
X228100Y160536D01*
X210000Y171000D02*
X213393D01*
X236000Y139000D02*
Y159000D01*
X208481Y173481D02*
X213034D01*
X202009Y178000D02*
X214879D01*
X206026Y175000D02*
X213636D01*
X214257Y176500D02*
X230700Y160057D01*
X233181Y136200D02*
Y159698D01*
X215500Y179500D02*
X236000Y159000D01*
X230700Y133700D02*
Y160057D01*
X200000Y179500D02*
X215500D01*
X204018Y176500D02*
X214257D01*
X228100Y131100D02*
Y160536D01*
X213034Y173481D02*
X225239Y161275D01*
X214879Y178000D02*
X233181Y159698D01*
X206000Y171000D02*
X208481Y173481D01*
X202013Y170987D02*
X206026Y175000D01*
X198509Y170991D02*
X204018Y176500D01*
X195004Y170996D02*
X202009Y178000D01*
X191500Y171000D02*
X200000Y179500D01*
X213984Y191000D02*
X220984Y184000D01*
X237300Y93200D02*
X240000Y90500D01*
X239800Y116200D02*
X243100Y119500D01*
X239800Y98200D02*
Y116200D01*
X254100Y143400D02*
X259712Y137788D01*
X273712D01*
X274705Y136795D01*
X262500Y140269D02*
Y146673D01*
X272673Y134827D02*
X279677D01*
X257914Y136000D02*
X271500D01*
X272673Y134827D01*
X253646Y140269D02*
X257914Y136000D01*
X262703Y134400D02*
X269100D01*
X259750Y131447D02*
X262703Y134400D01*
X269100D02*
X272610Y130890D01*
X259750Y131400D02*
Y131447D01*
X274705Y136795D02*
X279677D01*
X273453Y126953D02*
X279677D01*
X271000Y124500D02*
X273453Y126953D01*
X270631Y124500D02*
X271000D01*
X267143Y125580D02*
X267227Y125664D01*
X269467D01*
X270631Y124500D01*
X266250Y126473D02*
X267143Y125580D01*
X272282Y128921D02*
X279677D01*
X270000Y128145D02*
X270261Y128406D01*
X271767D01*
X272282Y128921D01*
X265473Y126473D02*
X266452Y125494D01*
X271500Y120936D02*
X275548Y124984D01*
X274000Y121139D02*
X275877Y123016D01*
X274000Y119000D02*
Y121139D01*
X275548Y124984D02*
X315984D01*
X275877Y123016D02*
X279677D01*
X266250Y121426D02*
X272534Y115142D01*
X279677D01*
X266250Y121426D02*
Y121473D01*
X318812Y124496D02*
X319004D01*
X302984Y138984D02*
Y146323D01*
X310858Y138651D02*
X313981Y135528D01*
X308890Y137101D02*
X311491Y134500D01*
X304953Y141547D02*
X305003Y141497D01*
X304953Y141547D02*
Y146323D01*
X311491Y134500D02*
X311500D01*
X312827Y140182D02*
X317981Y135028D01*
X283772Y132858D02*
X284358Y133444D01*
Y140342D01*
X283000Y141700D02*
X284358Y140342D01*
X279677Y132858D02*
X283772D01*
X283600Y143400D02*
X286000Y141000D01*
X281100Y143400D02*
X283600D01*
X280300Y141700D02*
X283000D01*
X272500Y146462D02*
Y146673D01*
Y146462D02*
X273962Y145000D01*
X277000D01*
X280300Y141700D01*
X277296Y141196D02*
X277374Y141117D01*
Y138814D02*
Y141117D01*
X277424Y138764D02*
X279677D01*
X277374Y138814D02*
X277424Y138764D01*
X277600Y146900D02*
X281100Y143400D01*
X277600Y146900D02*
Y148100D01*
X313981Y135519D02*
Y135528D01*
X315000Y134500D02*
Y134500D01*
X313981Y135519D02*
X315000Y134500D01*
X315984Y124984D02*
X319000Y128000D01*
X317981Y135019D02*
X319000Y134000D01*
Y134000D02*
Y134000D01*
X317981Y135019D02*
Y135028D01*
X319312Y110447D02*
Y113361D01*
Y110447D02*
X320523Y109236D01*
X324323D01*
X292000Y115000D02*
X299047Y107953D01*
X286500Y115000D02*
X292000D01*
X299047Y101677D02*
Y107953D01*
X297079Y101677D02*
Y107421D01*
X286500Y111838D02*
X292662D01*
X297079Y107421D01*
X295110Y101677D02*
Y106804D01*
X286500Y108500D02*
X293414D01*
X295110Y106804D01*
X286000Y106000D02*
X292556D01*
X284500Y104500D02*
X286000Y106000D01*
X293142Y101677D02*
Y105414D01*
X292556Y106000D02*
X293142Y105414D01*
X276500Y99500D02*
X278677Y101677D01*
X287236D01*
X276500Y83983D02*
Y99500D01*
X270958Y78442D02*
X276500Y83983D01*
X213000Y191000D02*
X213984D01*
X238858Y78142D02*
Y84142D01*
X251642D01*
X276686Y109186D01*
X232689Y90311D02*
X238858Y84142D01*
X263000Y111500D02*
Y118176D01*
X264797Y119973D02*
X266250Y121426D01*
X264797Y119973D02*
X264797D01*
X263000Y118176D02*
X264797Y119973D01*
X253500Y116573D02*
Y119000D01*
Y116573D02*
X259750D01*
X251473D02*
X253500D01*
X243100Y119500D02*
X248500D01*
X247000Y105299D02*
Y112100D01*
X251473Y116573D01*
X298750Y66250D02*
X302531Y62469D01*
X306571D01*
X305638Y90000D02*
X305898Y90261D01*
X302327Y48500D02*
X308500D01*
X305898Y90261D02*
Y91931D01*
X306921Y92954D01*
Y101677D01*
X304953Y93460D02*
Y101677D01*
X298327Y52250D02*
X298577D01*
X302327Y48500D01*
X310858Y92611D02*
X312469Y91000D01*
X310858Y92611D02*
Y101677D01*
X312827Y97042D02*
X313539Y96329D01*
Y96000D02*
Y96329D01*
X316764Y95403D02*
X316931Y95236D01*
X316764Y95403D02*
Y101677D01*
X312827Y97042D02*
Y101677D01*
X308890Y90110D02*
Y101677D01*
Y90110D02*
X309000Y90000D01*
X333890Y117110D02*
X341000Y110000D01*
X324323Y117110D02*
X333890D01*
X328123Y111200D02*
X329323Y110000D01*
X324328Y111200D02*
X328123D01*
X329323Y110000D02*
X329500D01*
X360483Y143500D02*
X360569D01*
X355890Y144681D02*
X359302D01*
X360483Y143500D01*
X353181Y141973D02*
X355890Y144681D01*
X344484Y123016D02*
X353181Y131713D01*
Y141973D01*
X340484Y124984D02*
X350500Y135000D01*
Y138000D01*
X346573Y134927D02*
Y137927D01*
X338598Y126953D02*
X346573Y134927D01*
X338518Y135018D02*
Y138000D01*
X336421Y128921D02*
X342500Y135000D01*
X332358Y132858D02*
X334500Y135000D01*
X334390Y130890D02*
X338518Y135018D01*
X330367Y137867D02*
X330500Y138000D01*
X342500Y135000D02*
Y138000D01*
X334500Y135000D02*
Y138000D01*
X324323Y130890D02*
X334390D01*
X324323Y124984D02*
X340484D01*
X324323Y128921D02*
X336421D01*
X324323Y132858D02*
X332358D01*
X324323Y126953D02*
X338598D01*
X324323Y123016D02*
X344484D01*
X320800Y141800D02*
X323000Y144000D01*
X320559Y147861D02*
X320639D01*
X316814Y146500D02*
X319198D01*
X320559Y147861D01*
X273800Y151900D02*
X277600Y148100D01*
X298500Y66250D02*
X298750D01*
X235100Y91400D02*
X239000Y87500D01*
X251000D02*
X274705Y111205D01*
X239000Y87500D02*
X251000D01*
X240000Y90500D02*
X250000D01*
X274705Y111205D02*
X279677D01*
X276686Y109186D02*
X279627D01*
X279677Y109236D01*
X272673Y113173D02*
X279677D01*
X250000Y90500D02*
X272673Y113173D01*
X134000Y134500D02*
Y139409D01*
X129600Y134500D02*
Y139340D01*
X125400Y134500D02*
Y139348D01*
X316764Y146323D02*
X316814Y146373D01*
Y146500D01*
X273800Y151900D02*
Y156300D01*
X279750Y94000D02*
Y98150D01*
X324323Y111205D02*
X324328Y111200D01*
X272610Y130890D02*
X279677D01*
X251900Y131400D02*
X259750D01*
X247000Y136300D02*
Y142701D01*
Y136300D02*
X251900Y131400D01*
X326500Y138814D02*
Y142100D01*
X324323Y138764D02*
X326450D01*
X326500Y138814D01*
X287236Y146323D02*
Y152436D01*
X282500Y147250D02*
X283427Y146323D01*
X287236D01*
X321073Y101677D02*
X321500Y101250D01*
X316764Y101677D02*
X321073D01*
X291173Y94077D02*
Y101677D01*
D16*
X247000Y105299D02*
D03*
Y142701D02*
D03*
X90000Y135201D02*
D03*
Y97799D02*
D03*
D17*
X164709Y179173D02*
D03*
X103685D02*
D03*
D18*
X151323Y139409D02*
D03*
X146992D02*
D03*
X142661D02*
D03*
X138331D02*
D03*
X134000D02*
D03*
X129669D02*
D03*
X125339D02*
D03*
X159984D02*
D03*
X155654D02*
D03*
D19*
X107228Y141575D02*
D03*
D20*
X164709Y141378D02*
D03*
D21*
X116750Y120500D02*
D03*
X123250D02*
D03*
X116750Y125827D02*
D03*
X123250D02*
D03*
X131750Y120500D02*
D03*
X138250D02*
D03*
X131750Y126000D02*
D03*
X138250D02*
D03*
X259750Y131400D02*
D03*
X266250D02*
D03*
X144000Y111500D02*
D03*
X150500D02*
D03*
X273250Y94000D02*
D03*
X279750D02*
D03*
X284750D02*
D03*
X291250D02*
D03*
X259000Y153500D02*
D03*
X265500D02*
D03*
X301750D02*
D03*
X295250D02*
D03*
X277000D02*
D03*
X270500D02*
D03*
X259750Y126473D02*
D03*
X266250D02*
D03*
Y121473D02*
D03*
X259750D02*
D03*
X266250Y116573D02*
D03*
X259750D02*
D03*
X48250Y74673D02*
D03*
X54750D02*
D03*
X59250D02*
D03*
X65750D02*
D03*
X59250Y81673D02*
D03*
X65750D02*
D03*
X48250D02*
D03*
X54750D02*
D03*
X150500Y90000D02*
D03*
X144000D02*
D03*
X48250Y90500D02*
D03*
X54750D02*
D03*
D22*
X156587Y119653D02*
D03*
X142413Y119653D02*
D03*
Y126347D02*
D03*
X156587D02*
D03*
D23*
X152453D02*
D03*
X154421D02*
D03*
X144579Y119653D02*
D03*
X146547D02*
D03*
X148516D02*
D03*
X150484D02*
D03*
X152453D02*
D03*
X154421D02*
D03*
X144579Y126347D02*
D03*
X146547D02*
D03*
X148516D02*
D03*
X150484D02*
D03*
D24*
X221142Y45858D02*
D03*
Y78142D02*
D03*
X238858D02*
D03*
Y45858D02*
D03*
X253242Y46158D02*
D03*
Y78442D02*
D03*
X270958D02*
D03*
Y46158D02*
D03*
X183142Y78142D02*
D03*
Y45858D02*
D03*
X200858D02*
D03*
Y78142D02*
D03*
D25*
X103800Y68250D02*
D03*
Y61750D02*
D03*
Y79250D02*
D03*
Y72750D02*
D03*
X304327Y52250D02*
D03*
Y58750D02*
D03*
X298327Y52250D02*
D03*
Y58750D02*
D03*
X298500Y79250D02*
D03*
Y85750D02*
D03*
X304500Y79250D02*
D03*
Y85750D02*
D03*
X298500Y38750D02*
D03*
Y45250D02*
D03*
X304500Y38750D02*
D03*
Y45250D02*
D03*
Y66250D02*
D03*
Y72750D02*
D03*
X298500Y66250D02*
D03*
Y72750D02*
D03*
X321500Y94750D02*
D03*
Y101250D02*
D03*
X326500Y94750D02*
D03*
Y101250D02*
D03*
X331500Y94750D02*
D03*
Y101250D02*
D03*
X326500Y153750D02*
D03*
Y147250D02*
D03*
X282500Y153750D02*
D03*
Y147250D02*
D03*
X77000Y100530D02*
D03*
Y94029D02*
D03*
Y127750D02*
D03*
Y121250D02*
D03*
Y109529D02*
D03*
Y116030D02*
D03*
X66500Y27250D02*
D03*
Y33750D02*
D03*
Y38250D02*
D03*
Y44750D02*
D03*
D26*
X32187Y151835D02*
D03*
Y132150D02*
D03*
Y130181D02*
D03*
Y134118D02*
D03*
Y136087D02*
D03*
Y138055D02*
D03*
Y140024D02*
D03*
Y141992D02*
D03*
Y143961D02*
D03*
Y145929D02*
D03*
Y147898D02*
D03*
Y149866D02*
D03*
Y95366D02*
D03*
Y93398D02*
D03*
Y91429D02*
D03*
Y89461D02*
D03*
Y87492D02*
D03*
Y85524D02*
D03*
Y83555D02*
D03*
Y81587D02*
D03*
Y79618D02*
D03*
Y75681D02*
D03*
Y77650D02*
D03*
Y97335D02*
D03*
D27*
X26872Y152622D02*
D03*
Y150654D02*
D03*
Y148685D02*
D03*
Y146716D02*
D03*
Y144748D02*
D03*
Y142878D02*
D03*
Y140909D02*
D03*
Y138941D02*
D03*
Y136972D02*
D03*
Y135004D02*
D03*
Y133035D02*
D03*
Y131165D02*
D03*
Y76665D02*
D03*
Y78535D02*
D03*
Y80504D02*
D03*
Y82472D02*
D03*
Y84441D02*
D03*
Y86409D02*
D03*
Y88378D02*
D03*
Y90248D02*
D03*
Y92216D02*
D03*
Y94185D02*
D03*
Y96153D02*
D03*
Y98122D02*
D03*
D28*
X324323Y138764D02*
D03*
Y136795D02*
D03*
Y134827D02*
D03*
Y132858D02*
D03*
Y130890D02*
D03*
Y128921D02*
D03*
Y126953D02*
D03*
Y124984D02*
D03*
Y123016D02*
D03*
Y121047D02*
D03*
Y119079D02*
D03*
Y117110D02*
D03*
Y115142D02*
D03*
Y113173D02*
D03*
Y111205D02*
D03*
Y109236D02*
D03*
X279677D02*
D03*
Y111205D02*
D03*
Y113173D02*
D03*
Y115142D02*
D03*
Y117110D02*
D03*
Y119079D02*
D03*
Y121047D02*
D03*
Y123016D02*
D03*
Y124984D02*
D03*
Y126953D02*
D03*
Y128921D02*
D03*
Y130890D02*
D03*
Y132858D02*
D03*
Y134827D02*
D03*
Y136795D02*
D03*
Y138764D02*
D03*
D29*
X287236Y146323D02*
D03*
X289205D02*
D03*
X291173D02*
D03*
X293142D02*
D03*
X295110D02*
D03*
X297079D02*
D03*
X299047D02*
D03*
X301016D02*
D03*
X302984D02*
D03*
X304953D02*
D03*
X306921D02*
D03*
X308890D02*
D03*
X310858D02*
D03*
X312827D02*
D03*
X314795D02*
D03*
X316764D02*
D03*
Y101677D02*
D03*
X314795D02*
D03*
X312827D02*
D03*
X310858D02*
D03*
X308890D02*
D03*
X306921D02*
D03*
X304953D02*
D03*
X302984D02*
D03*
X301016D02*
D03*
X299047D02*
D03*
X297079D02*
D03*
X295110D02*
D03*
X293142D02*
D03*
X291173D02*
D03*
X289205D02*
D03*
X287236D02*
D03*
D30*
X272500Y146673D02*
D03*
X262500D02*
D03*
D31*
X66200Y185000D02*
D03*
Y165000D02*
D03*
Y175000D02*
D03*
X56200Y165000D02*
D03*
Y175000D02*
D03*
Y185000D02*
D03*
X74700D02*
D03*
Y175000D02*
D03*
Y165000D02*
D03*
X84700Y175000D02*
D03*
Y165000D02*
D03*
Y185000D02*
D03*
D32*
X147240Y104949D02*
D03*
X143500Y95500D02*
D03*
Y104949D02*
D03*
X150980D02*
D03*
Y95500D02*
D03*
D33*
X134617Y70500D02*
D03*
D34*
X111783Y61445D02*
D03*
Y70500D02*
D03*
Y79555D02*
D03*
D35*
X150000Y76890D02*
D03*
Y63110D02*
D03*
X90000Y77890D02*
D03*
Y64110D02*
D03*
D36*
X98716Y24000D02*
D03*
X163284D02*
D03*
D37*
X131000D02*
D03*
D38*
X48673Y96300D02*
D03*
Y101300D02*
D03*
X70327Y131300D02*
D03*
X48673Y126300D02*
D03*
X70327D02*
D03*
Y116300D02*
D03*
X48673Y131300D02*
D03*
X70327Y121300D02*
D03*
X48673D02*
D03*
Y116300D02*
D03*
Y106300D02*
D03*
X70327Y111300D02*
D03*
Y106300D02*
D03*
Y96300D02*
D03*
X48673Y111300D02*
D03*
X70327Y101300D02*
D03*
D39*
X90250Y45500D02*
D03*
X103750D02*
D03*
X126750Y102500D02*
D03*
X113250D02*
D03*
X126750Y95000D02*
D03*
X113250D02*
D03*
X126750Y110000D02*
D03*
X113250D02*
D03*
D40*
X45206Y7463D02*
D03*
X22158Y7362D02*
D03*
X20890Y52637D02*
D03*
X45693D02*
D03*
D41*
X79000Y45465D02*
D03*
Y28535D02*
D03*
D42*
X85465Y11000D02*
D03*
X68535D02*
D03*
D81*
X60050Y169900D02*
X64950Y165000D01*
X56200Y169900D02*
X60050D01*
X76500Y171100D02*
X134900D01*
X72400Y168800D02*
X130700D01*
X126400Y186100D02*
X151323Y161177D01*
X84700Y175000D02*
X95800Y186100D01*
X126400D01*
X116577Y126000D02*
X116750Y125827D01*
X97500Y142700D02*
X114200Y126000D01*
X116577D01*
X254600Y158100D02*
X272000D01*
X223000Y189700D02*
X254600Y158100D01*
X223000Y189700D02*
Y191000D01*
X86000Y150031D02*
Y150041D01*
X84700Y151341D02*
Y165000D01*
Y151341D02*
X86000Y150041D01*
X113300Y120500D02*
X116750D01*
X97500Y136300D02*
X113300Y120500D01*
X299500Y13000D02*
X306500D01*
X293000Y6500D02*
X299500Y13000D01*
X293000Y16500D02*
X306500D01*
X187000Y139900D02*
Y171000D01*
X345200Y79000D02*
X372000D01*
X182900Y139900D02*
X183000Y140000D01*
Y171000D01*
X283000Y6500D02*
X293000Y16500D01*
X285000Y12700D02*
X292300Y20000D01*
X279200Y12700D02*
X285000D01*
X292300Y20000D02*
X306500D01*
X292000Y23500D02*
X306500D01*
X283700Y15200D02*
X292000Y23500D01*
X271700Y15200D02*
X283700D01*
X282300Y17700D02*
X291946Y27346D01*
X264200Y17700D02*
X282300D01*
X291946Y27346D02*
X306346D01*
X206500Y138500D02*
Y155981D01*
X123250Y125827D02*
X127373D01*
X142661Y144161D02*
Y163339D01*
Y139409D02*
Y144161D01*
X65000Y93000D02*
Y99352D01*
Y93000D02*
X65165Y92835D01*
Y82258D02*
Y92835D01*
Y82258D02*
X65750Y81673D01*
X65000Y99352D02*
X66948Y101300D01*
X62269Y78154D02*
X65750Y74673D01*
X66948Y101300D02*
X70327D01*
X62269Y102469D02*
X66100Y106300D01*
X62269Y78154D02*
Y102469D01*
X70327Y106300D02*
X70800Y105826D01*
X78525D01*
X66100Y106300D02*
X70327D01*
X18800Y92100D02*
X18916Y92216D01*
X23759D01*
X19072Y82472D02*
X23759D01*
X19000Y82400D02*
X19072Y82472D01*
X35300Y91429D02*
X41171D01*
X43600Y81600D02*
Y89000D01*
X41171Y91429D02*
X43600Y89000D01*
X43571Y145929D02*
X47000Y142500D01*
Y136000D02*
Y136200D01*
X35429Y145929D02*
X43571D01*
X65400Y121300D02*
X70327D01*
X19252Y138491D02*
Y144752D01*
X21216Y146716D01*
X47000Y136200D02*
Y142500D01*
X22500Y136972D02*
X23528D01*
X21216Y146716D02*
X23216D01*
X50600Y157400D02*
X60700Y147300D01*
X123700D02*
X130000Y141000D01*
X60700Y147300D02*
X123700D01*
X130700Y168800D02*
X134000Y165500D01*
Y139409D02*
Y165500D01*
X128919Y140159D02*
X129669Y139409D01*
X56200Y158800D02*
Y165000D01*
Y158800D02*
X60000Y155000D01*
X74700Y155007D02*
X79557Y150150D01*
X74700Y155007D02*
Y165000D01*
X291250Y38750D02*
X298500D01*
X288500Y36000D02*
X291250Y38750D01*
X280500Y20000D02*
X288500Y28000D01*
X256500Y20000D02*
X280500D01*
X234500Y28000D02*
X275000D01*
X276500Y25000D02*
X279500Y28000D01*
X241500Y25000D02*
X276500D01*
X278500Y22500D02*
X284000Y28000D01*
X249000Y22500D02*
X278500D01*
X213000Y6500D02*
X234500Y28000D01*
X223000Y6500D02*
X241500Y25000D01*
X233000Y6500D02*
X249000Y22500D01*
X243000Y6500D02*
X256500Y20000D01*
X282000Y36000D02*
X282012Y36012D01*
Y50012D01*
X284743Y47543D02*
X289450Y52250D01*
X284743Y42500D02*
Y47543D01*
X279281Y52781D02*
X289500Y63000D01*
X279281Y42500D02*
Y52781D01*
X298250Y66250D02*
X298500D01*
X282012Y50012D02*
X298250Y66250D01*
X306346Y27346D02*
X306500Y27500D01*
X296000Y89700D02*
X301193D01*
X304953Y93460D01*
X326069Y33900D02*
X366900D01*
X372000Y39000D01*
X326169Y29000D02*
X372000D01*
X326069Y29100D02*
X326169Y29000D01*
X326000Y49000D02*
X372000D01*
X341000Y89000D02*
X372000D01*
X351000Y97500D02*
X360500D01*
X355927Y151073D02*
X356037Y151182D01*
Y167963D01*
X352000Y151145D02*
Y166500D01*
X351927Y151073D02*
X352000Y151145D01*
X347927Y151073D02*
X348000Y151145D01*
Y165500D01*
X360500Y97500D02*
X372000Y109000D01*
X351000Y92500D02*
X365500D01*
X372000Y99000D01*
X336000Y151000D02*
Y156000D01*
X324200Y167800D02*
X336000Y156000D01*
X332019Y151019D02*
Y155181D01*
X332000Y151000D02*
X332019Y151019D01*
X323000Y164200D02*
X332019Y155181D01*
X347500Y181500D02*
X360000Y169000D01*
Y151000D02*
Y169000D01*
X344000Y174500D02*
X352000Y166500D01*
X346000Y178000D02*
X356037Y167963D01*
X342200Y171300D02*
X348000Y165500D01*
X134900Y171100D02*
X142661Y163339D01*
X151323Y139409D02*
Y161177D01*
X50600Y157400D02*
Y169400D01*
X56200Y175000D01*
X215600Y106800D02*
Y119900D01*
X289500Y63000D02*
Y79250D01*
Y83200D01*
X296000Y89700D01*
X289450Y52250D02*
X298327D01*
X272700Y171300D02*
X342200D01*
X292500Y181500D02*
X347500D01*
X283000Y191000D02*
X292500Y181500D01*
X273000Y191000D02*
X286000Y178000D01*
X346000D01*
X279500Y174500D02*
X344000D01*
X263000Y191000D02*
X279500Y174500D01*
X66200Y175000D02*
X72400Y168800D01*
X74700Y172900D02*
X76500Y171100D01*
X74700Y172900D02*
Y175000D01*
X243000Y191000D02*
X266200Y167800D01*
X324200D01*
X253000Y191000D02*
X272700Y171300D01*
X259800Y164200D02*
X323000D01*
X233000Y191000D02*
X259800Y164200D01*
X272000Y158100D02*
X273800Y156300D01*
X215500Y106700D02*
X215600Y106800D01*
X270500Y148673D02*
Y153500D01*
Y148673D02*
X272500Y146673D01*
X289500Y79250D02*
X298500D01*
X253000Y6500D02*
X264200Y17700D01*
X263000Y6500D02*
X271700Y15200D01*
X273000Y6500D02*
X279200Y12700D01*
X298500Y45250D02*
X304500D01*
X298327Y58750D02*
X304327D01*
X298500Y72750D02*
X304500D01*
X298500Y85750D02*
X304500D01*
X262500Y146673D02*
X265500Y149673D01*
Y153500D01*
X64950Y165000D02*
X66200D01*
D82*
X22731Y142904D02*
X22748Y142887D01*
X39285Y85081D02*
X39600D01*
X32187Y85524D02*
X38843D01*
X39285Y85081D01*
X30312Y87492D02*
X38316D01*
X26872Y86409D02*
X29230D01*
X30312Y87492D01*
X26872Y140909D02*
X28909D01*
X29992Y141992D01*
X36317D01*
X38316Y87492D02*
X39424Y88600D01*
X39600D01*
X32187Y140024D02*
X42476D01*
X42600Y139900D01*
X36819Y142494D02*
X40194D01*
X40400Y142700D01*
X36317Y141992D02*
X36819Y142494D01*
X32187Y136087D02*
X37419D01*
X32187Y145929D02*
X35429D01*
X23528Y136972D02*
X26872D01*
X26863Y142887D02*
X26872Y142878D01*
X22748Y142887D02*
X26863D01*
X22800Y88400D02*
X22822Y88378D01*
X26872D01*
X70227Y116400D02*
X70327Y116300D01*
X23216Y146716D02*
X26872D01*
D83*
X178500Y191000D02*
X183000D01*
X112250Y111000D02*
X113100Y110150D01*
X97500Y125900D02*
X112250Y111150D01*
X113100Y110150D02*
X113250D01*
X112250Y111000D02*
Y111150D01*
X138331Y126081D02*
Y136409D01*
X20000Y124000D02*
X25500Y118500D01*
X20000Y124000D02*
Y133385D01*
X42000Y123500D02*
Y136000D01*
X37000Y118500D02*
X42000Y123500D01*
X25500Y118500D02*
X37000D01*
X178700Y130700D02*
Y190800D01*
X173000Y191000D02*
X178500D01*
X178700Y190800D01*
X159500Y111500D02*
X178700Y130700D01*
X150500Y111500D02*
X159500D01*
D84*
X163400Y73300D02*
X163431Y73331D01*
X163400Y54400D02*
Y73300D01*
X163431Y73431D02*
X163500Y73500D01*
X163431Y73331D02*
Y73431D01*
X62600Y116500D02*
X62669Y116431D01*
X70196D01*
X70227Y116400D01*
X70327Y131300D02*
X81900D01*
X71905Y126578D02*
X73077Y127750D01*
X70327Y126300D02*
X71685D01*
X73077Y127750D02*
X77000D01*
X71905Y126521D02*
Y126578D01*
X71685Y126300D02*
X71905Y126521D01*
X57500Y111300D02*
X72271D01*
X291173Y91073D02*
Y94077D01*
X284700Y64100D02*
Y84600D01*
X276300Y33500D02*
Y55700D01*
X284700Y64100D01*
Y84600D02*
X291173Y91073D01*
X163284Y24000D02*
X163500Y24216D01*
Y34400D01*
X82100Y124200D02*
X82135Y124165D01*
Y100530D02*
Y124165D01*
Y100530D02*
X87270D01*
X77000D02*
X82135D01*
X90000Y130613D02*
Y135201D01*
X76750Y127750D02*
X87137D01*
X90000Y130613D01*
X87270Y100530D02*
X90000Y97799D01*
X72271Y111300D02*
X77000Y116030D01*
X54823Y74600D02*
X59177D01*
X59250Y74673D01*
X54750D02*
X54823Y74600D01*
Y81600D02*
X59177D01*
X59250Y81673D01*
X54750D02*
X54823Y81600D01*
X66600Y33850D02*
Y38150D01*
X66500Y38250D02*
X66600Y38150D01*
X66500Y33750D02*
X66600Y33850D01*
D85*
X138250Y110750D02*
Y126000D01*
Y110750D02*
X138500Y110500D01*
D86*
X126718Y95032D02*
Y100300D01*
X126750D02*
X143500D01*
X126750D02*
Y102500D01*
X126718Y102532D02*
Y109968D01*
X143500Y100300D02*
Y104949D01*
Y100300D02*
X149407D01*
X64250Y27250D02*
X66500D01*
X58300Y33200D02*
Y60400D01*
Y33200D02*
X64250Y27250D01*
X66500D02*
X67000Y26750D01*
X150500Y111500D02*
X150980Y111020D01*
X36300Y81600D02*
X43600D01*
X68050Y26750D02*
X77000Y17800D01*
X67000Y26750D02*
X68050D01*
X316764Y78700D02*
X316931Y78867D01*
Y95236D01*
X253242Y32400D02*
X276300D01*
X315299D01*
X331500Y101250D02*
X359750D01*
X364000Y105500D01*
Y147250D01*
X326250D02*
X326500D01*
X313550Y160200D02*
X325750Y148000D01*
X291700Y160200D02*
X313550D01*
X325750Y147750D02*
X326250Y147250D01*
X325750Y147750D02*
Y148000D01*
X196500Y90700D02*
Y106700D01*
Y90700D02*
X197200Y90000D01*
X150500D02*
X225500D01*
Y106700D01*
Y82500D02*
Y90000D01*
X57500Y111300D02*
Y141900D01*
Y101200D02*
Y111300D01*
X57500Y111300D01*
X48673Y96300D02*
X52600D01*
X57500Y101200D01*
X46500Y152900D02*
Y189400D01*
Y152900D02*
X57500Y141900D01*
X216500Y126200D02*
X222800Y119900D01*
X216500Y126200D02*
Y138500D01*
X222800Y110852D02*
Y119900D01*
X103750Y45500D02*
X163500D01*
X173000Y6500D02*
Y36000D01*
X163500Y45500D02*
X173000Y36000D01*
X270958Y46158D02*
Y78442D01*
X364000Y147250D02*
Y165000D01*
X326500Y147250D02*
X364000D01*
Y165000D02*
X368000Y169000D01*
X142007Y63110D02*
X150000D01*
X134617Y70500D02*
X142007Y63110D01*
X149407Y100300D02*
X150980Y101873D01*
Y111020D01*
X66321Y180179D02*
Y184879D01*
X221142Y32400D02*
X253242D01*
X221142D02*
Y45858D01*
X253242Y32400D02*
Y46158D01*
X315299Y32400D02*
X316764Y33865D01*
Y39200D01*
X208900Y32400D02*
X221142D01*
X183000Y6500D02*
X208900Y32400D01*
X287236Y155736D02*
X291700Y160200D01*
X238858Y45858D02*
Y78142D01*
X223256Y108943D02*
X225500Y106700D01*
X222800Y110852D02*
X223256Y110395D01*
Y108943D02*
Y110395D01*
X84700Y185000D02*
Y188920D01*
X84727Y188947D01*
X268800Y94000D02*
X273250D01*
X253242Y46158D02*
Y78442D01*
X268800Y94000D01*
X368000Y169000D02*
X372000D01*
X279750Y65350D02*
Y94000D01*
Y65350D02*
X279800Y65300D01*
X316314Y38750D02*
X316764Y39200D01*
X304500Y38750D02*
X316314D01*
X316764Y39200D02*
Y52000D01*
X183142Y47858D02*
Y65400D01*
Y78142D01*
Y65400D02*
X215400D01*
X74700Y185000D02*
Y191900D01*
X56200Y180300D02*
Y185000D01*
X221142Y45858D02*
Y78142D01*
X326500Y142100D02*
Y147250D01*
X287236Y152436D02*
Y155736D01*
X326650Y101100D02*
X331250D01*
X326500Y101250D02*
X326650Y101100D01*
X321500Y101250D02*
X326500D01*
X316764Y65900D02*
Y78700D01*
X304500Y79250D02*
X316214D01*
X316764Y78700D01*
Y52000D02*
Y65900D01*
X304500Y66250D02*
X316414D01*
X316764Y65900D01*
X316514Y52250D02*
X316764Y52000D01*
X304327Y52250D02*
X316514D01*
X150980Y95500D02*
X151000Y95480D01*
Y90500D02*
Y95480D01*
X150500Y90000D02*
X151000Y90500D01*
X221142Y78142D02*
X225500Y82500D01*
X98716Y24000D02*
X113716Y9000D01*
X148284D01*
X163284Y24000D01*
X48250Y74673D02*
Y81673D01*
Y70450D02*
Y74673D01*
Y70450D02*
X58300Y60400D01*
X48250Y90500D02*
Y95877D01*
Y81673D02*
Y90500D01*
X119600Y70500D02*
X134617D01*
X111783D02*
X119600D01*
Y88650D01*
X113250Y95000D02*
X119600Y88650D01*
X110033Y70500D02*
X111783D01*
X107783Y72750D02*
X110033Y70500D01*
X103800Y72750D02*
X107783D01*
X111478Y61750D02*
X111783Y61445D01*
X103800Y61750D02*
X111478D01*
X92360D02*
X103800D01*
X90000Y64110D02*
X92360Y61750D01*
X103750Y61700D02*
X103800Y61750D01*
X103750Y45500D02*
Y61700D01*
D87*
X88000Y45453D02*
X90203D01*
X79012D02*
X88000D01*
Y22700D02*
Y45453D01*
X85465Y20165D02*
X88000Y22700D01*
X85465Y11000D02*
Y20165D01*
X68083Y16374D02*
X68535Y15921D01*
X45693Y36707D02*
X66026Y16374D01*
X68535Y11000D02*
Y15921D01*
X45693Y36707D02*
Y52637D01*
X66026Y16374D02*
X68083D01*
X20890Y52637D02*
X45693D01*
D88*
X127373Y125827D02*
X127400Y125800D01*
X123250Y120500D02*
X127400D01*
X317105Y119079D02*
X319062Y117121D01*
X279677Y119079D02*
X317105D01*
X282288Y121047D02*
X318953D01*
X319000Y121000D01*
X279724Y121047D02*
X282288D01*
X282288Y121047D01*
X295110Y146323D02*
Y153360D01*
X295250Y153500D01*
D89*
X32187Y81587D02*
X36300D01*
X23759Y82472D02*
X26872D01*
X23759Y92216D02*
X26872D01*
X32187Y91429D02*
X35300D01*
D90*
X107600Y102500D02*
X113250D01*
X97600Y81600D02*
Y92500D01*
X107600Y102500D01*
D91*
X153685Y180748D02*
D03*
X122189D02*
D03*
D92*
X186500Y106700D02*
D03*
X196500Y138500D02*
D03*
X206500D02*
D03*
X215500Y106700D02*
D03*
X6500Y189400D02*
D03*
X16500D02*
D03*
X26500D02*
D03*
X36500D02*
D03*
D93*
X196500Y106700D02*
D03*
X216500Y138500D02*
D03*
X225500Y106700D02*
D03*
X46500Y189400D02*
D03*
D94*
X29726Y158528D02*
D03*
Y124472D02*
D03*
Y69972D02*
D03*
Y104027D02*
D03*
D95*
X27659Y157346D02*
D03*
X27659Y125654D02*
D03*
Y71153D02*
D03*
X27659Y102847D02*
D03*
D96*
X11813Y124472D02*
D03*
Y158528D02*
D03*
Y104028D02*
D03*
Y69972D02*
D03*
D97*
X372000Y29000D02*
D03*
Y39000D02*
D03*
Y49000D02*
D03*
Y59000D02*
D03*
Y69000D02*
D03*
Y159000D02*
D03*
Y149000D02*
D03*
Y139000D02*
D03*
Y129000D02*
D03*
Y119000D02*
D03*
Y109000D02*
D03*
Y89000D02*
D03*
Y99000D02*
D03*
Y79000D02*
D03*
X263000Y6500D02*
D03*
X243000D02*
D03*
X253000D02*
D03*
X233000D02*
D03*
X223000D02*
D03*
X213000D02*
D03*
X203000D02*
D03*
X193000D02*
D03*
X183000D02*
D03*
X273000D02*
D03*
X283000D02*
D03*
X293000D02*
D03*
X303000D02*
D03*
X313000D02*
D03*
X323000D02*
D03*
X333000D02*
D03*
X343000D02*
D03*
X353000D02*
D03*
X363000D02*
D03*
X263000Y191000D02*
D03*
X243000D02*
D03*
X253000D02*
D03*
X233000D02*
D03*
X223000D02*
D03*
X213000D02*
D03*
X203000D02*
D03*
X193000D02*
D03*
X183000D02*
D03*
X273000D02*
D03*
X283000D02*
D03*
X293000D02*
D03*
X303000D02*
D03*
X313000D02*
D03*
X323000D02*
D03*
X333000D02*
D03*
X343000D02*
D03*
X353000D02*
D03*
X363000D02*
D03*
D98*
X372000Y169000D02*
D03*
D99*
X173000Y6500D02*
D03*
Y191000D02*
D03*
D100*
X38791Y30000D02*
D03*
D101*
X20791D02*
D03*
D102*
X108900Y154800D02*
D03*
X56200Y169900D02*
D03*
X372300Y183300D02*
D03*
X218400Y25400D02*
D03*
X114000Y179200D02*
D03*
X120700Y134500D02*
D03*
X275000Y28000D02*
D03*
X308500Y48500D02*
D03*
Y42300D02*
D03*
X225500Y128600D02*
D03*
X207900Y25400D02*
D03*
X320639Y147861D02*
D03*
Y159700D02*
D03*
X330500Y142700D02*
D03*
X253100Y165200D02*
D03*
X275700Y61800D02*
D03*
X70800Y87400D02*
D03*
X187000Y181000D02*
D03*
X307805Y128400D02*
D03*
X191900Y61900D02*
D03*
X229900D02*
D03*
X262000Y61800D02*
D03*
X196350Y127850D02*
D03*
X11900Y142904D02*
D03*
X11700Y88400D02*
D03*
X29600Y41100D02*
D03*
Y19000D02*
D03*
X147700Y38100D02*
D03*
X115700D02*
D03*
X345200Y71850D02*
D03*
X155600Y144500D02*
D03*
X187000Y139900D02*
D03*
X147000Y144500D02*
D03*
X155664Y132200D02*
D03*
X307805Y116200D02*
D03*
X151300Y132200D02*
D03*
X160000D02*
D03*
X288500Y141000D02*
D03*
X301000Y136038D02*
D03*
X303688Y134372D02*
D03*
X288500Y134101D02*
D03*
X293519Y134077D02*
D03*
X291000Y136038D02*
D03*
X298481Y134077D02*
D03*
X296000Y136038D02*
D03*
X307805Y108768D02*
D03*
X345200Y64450D02*
D03*
X319312Y113361D02*
D03*
X155600Y156000D02*
D03*
X255200Y102500D02*
D03*
X248500Y125350D02*
D03*
X39600Y85081D02*
D03*
X163400Y54400D02*
D03*
X97500Y142700D02*
D03*
X142400Y123081D02*
D03*
X138500Y110500D02*
D03*
X306500Y16500D02*
D03*
X345200Y79000D02*
D03*
X355300Y111900D02*
D03*
X348800Y110000D02*
D03*
X345000D02*
D03*
X39600Y88600D02*
D03*
X182900Y139900D02*
D03*
X230700Y168288D02*
D03*
X235800D02*
D03*
X171000Y158500D02*
D03*
X206500Y155981D02*
D03*
X147072Y122905D02*
D03*
X150573Y122885D02*
D03*
X142000Y132200D02*
D03*
X127400Y125800D02*
D03*
X162300Y122700D02*
D03*
X134000Y134500D02*
D03*
X129600D02*
D03*
X125400D02*
D03*
X127400Y120500D02*
D03*
X65000Y93000D02*
D03*
X78525Y105826D02*
D03*
X39950Y81600D02*
D03*
X18800Y92100D02*
D03*
X19000Y82400D02*
D03*
X43600Y81600D02*
D03*
X42600Y139900D02*
D03*
X40400Y142700D02*
D03*
X36300Y81600D02*
D03*
X62600Y116500D02*
D03*
X65400Y121300D02*
D03*
X97500Y136300D02*
D03*
Y125900D02*
D03*
X82100Y131300D02*
D03*
X42000Y136000D02*
D03*
X47000Y136200D02*
D03*
X22731Y142904D02*
D03*
X305500Y151298D02*
D03*
X309481Y153511D02*
D03*
X313007Y151504D02*
D03*
X173500Y161519D02*
D03*
X183000Y171000D02*
D03*
X187000D02*
D03*
X317221Y151868D02*
D03*
X131200Y154200D02*
D03*
X60000Y155000D02*
D03*
X86000Y150031D02*
D03*
X131200Y144719D02*
D03*
X210000Y171000D02*
D03*
X206000D02*
D03*
X202013Y170987D02*
D03*
X198509Y170991D02*
D03*
X195004Y170996D02*
D03*
X191500Y171000D02*
D03*
X233181Y136200D02*
D03*
X236000Y139000D02*
D03*
X262500Y140269D02*
D03*
X253646D02*
D03*
X271000Y124500D02*
D03*
X270000Y128145D02*
D03*
X271500Y120936D02*
D03*
X274000Y119000D02*
D03*
X277296Y141196D02*
D03*
X311500Y134500D02*
D03*
X315000D02*
D03*
X319000Y128000D02*
D03*
Y134000D02*
D03*
X319062Y117121D02*
D03*
X319000Y121000D02*
D03*
X319004Y124496D02*
D03*
X286500Y111838D02*
D03*
Y115000D02*
D03*
Y108500D02*
D03*
X284500Y104500D02*
D03*
X278677Y101677D02*
D03*
X336927Y110000D02*
D03*
X263000Y111500D02*
D03*
X253500Y119000D02*
D03*
X248500Y119500D02*
D03*
X77000Y17800D02*
D03*
X288500Y36000D02*
D03*
Y28000D02*
D03*
X279500D02*
D03*
X284000D02*
D03*
X282000Y36000D02*
D03*
X284743Y42500D02*
D03*
X279281D02*
D03*
X306500Y27500D02*
D03*
X306571Y62469D02*
D03*
X305638Y90000D02*
D03*
X306500Y23500D02*
D03*
Y20000D02*
D03*
Y13000D02*
D03*
X326069Y33900D02*
D03*
Y29100D02*
D03*
X326000Y49000D02*
D03*
X333345Y110000D02*
D03*
X313539Y96000D02*
D03*
X312469Y91000D02*
D03*
X309000Y90000D02*
D03*
X341000Y89000D02*
D03*
X351000Y97500D02*
D03*
X348000Y104732D02*
D03*
X341000Y110000D02*
D03*
X329500D02*
D03*
X360569Y143500D02*
D03*
X357000Y142000D02*
D03*
X355927Y151073D02*
D03*
X351927D02*
D03*
X350500Y138000D02*
D03*
X347927Y151073D02*
D03*
X346573Y137927D02*
D03*
X338518Y138000D02*
D03*
X330500D02*
D03*
X334500D02*
D03*
X342500D02*
D03*
X351000Y92500D02*
D03*
X358380Y104732D02*
D03*
X323000Y144000D02*
D03*
X332000Y151000D02*
D03*
X336000D02*
D03*
X360000D02*
D03*
X215600Y119900D02*
D03*
X239800Y98200D02*
D03*
X230700Y133700D02*
D03*
X228100Y131100D02*
D03*
X66321Y180179D02*
D03*
X84727Y188947D02*
D03*
X79557Y150150D02*
D03*
X279750Y98150D02*
D03*
X279800Y65300D02*
D03*
X215400Y65400D02*
D03*
X74700Y191900D02*
D03*
X56200Y180300D02*
D03*
X163500Y34400D02*
D03*
Y73500D02*
D03*
X22800Y88400D02*
D03*
X37419Y136200D02*
D03*
X97600Y81600D02*
D03*
X82100Y124200D02*
D03*
M02*
